<?xml version="1.0" encoding="UTF-8"?>
<svg xmlns="http://www.w3.org/2000/svg" viewBox="0 0 2000 1100" width="2000" height="1100">
<rect width="2000" height="1100" fill="#161614"/>
<path d="M105 0V1600H543L654 1091L771 227H859L814 950L794 1600H1052V0H594L481 539L390 1375H299L341 609L362 0Z" transform="translate(374.216, 686.815) scale(0.177452, -0.177452)" fill="#F5F1E8"/>
<path d="M40 0 247 1600H700L907 0H643L607 370H340L304 0ZM364 597H584L549 947L519 1373H428L398 946Z" transform="translate(579.528, 686.815) scale(0.177452, -0.177452)" fill="#F5F1E8"/>
<path d="M105 0V1600H378L375 1216L347 825H412L522 1226L656 1600H937L679 925L952 0H691L504 655L367 363V0Z" transform="translate(747.575, 686.815) scale(0.177452, -0.177452)" fill="#F5F1E8"/>
<path d="M475 -18Q269 -18 177.5 66.0Q86 150 78 346Q77 385 77.0 427.0Q77 469 79.0 511.0Q81 553 85 594H327Q323 516 322.5 441.5Q322 367 327 301Q332 246 368.0 219.5Q404 193 474 193Q541 193 575.5 219.5Q610 246 616 301Q620 338 621.0 376.5Q622 415 620.5 453.5Q619 492 616 529Q612 582 581.5 618.5Q551 655 497 668L336 705Q238 728 181.5 775.0Q125 822 100.0 895.0Q75 968 72 1068Q71 1118 71.0 1163.5Q71 1209 72 1256Q77 1386 119.5 1465.5Q162 1545 248.5 1581.5Q335 1618 474 1618Q677 1618 768.0 1534.5Q859 1451 866 1256Q868 1207 867.0 1141.0Q866 1075 863 1014H616Q619 1089 620.0 1160.0Q621 1231 618 1301Q616 1355 580.0 1381.0Q544 1407 474 1407Q406 1407 370.5 1381.0Q335 1355 329 1301Q324 1242 324.0 1184.5Q324 1127 329 1068Q333 1014 356.0 978.0Q379 942 431 931L575 900Q681 876 745.5 827.5Q810 779 840.0 704.5Q870 630 874 529Q875 500 875.0 468.5Q875 437 874.5 406.0Q874 375 872 346Q864 150 772.0 66.0Q680 -18 475 -18Z" transform="translate(918.993, 686.815) scale(0.177452, -0.177452)" fill="#F5F1E8"/>
<path d="M105 0V1600H362V925H623V1600H880V0H623V698H362V0Z" transform="translate(1086.863, 686.815) scale(0.177452, -0.177452)" fill="#F5F1E8"/>
<circle cx="1314.8882053708744" cy="580.3442564769905" r="24.84325091683426" fill="#E55642"/>
<path d="M105 0V1600H362V0Z" transform="translate(1368.124, 686.815) scale(0.177452, -0.177452)" fill="#F5F1E8"/>
<path d="M822 -294Q650 -307 564.0 -242.0Q478 -177 459 -18Q266 -11 180.5 74.0Q95 159 91 348Q89 472 88.0 583.5Q87 695 87.0 802.0Q87 909 88.0 1020.0Q89 1131 91 1253Q95 1449 188.0 1533.5Q281 1618 491 1618Q699 1618 791.5 1533.5Q884 1449 890 1253Q894 1131 896.0 1020.0Q898 909 898.0 801.0Q898 693 896.0 582.0Q894 471 890 348Q886 213 842.0 132.5Q798 52 704 16Q702 -43 731.5 -68.5Q761 -94 822 -87ZM491 193Q567 193 599.5 225.0Q632 257 633 333Q638 456 640.5 571.5Q643 687 643.0 800.5Q643 914 640.5 1030.0Q638 1146 633 1268Q632 1344 599.5 1375.5Q567 1407 491 1407Q416 1407 383.0 1375.5Q350 1344 348 1268Q343 1147 341.0 1031.5Q339 916 339.0 802.5Q339 689 341.0 573.0Q343 457 348 333Q350 257 383.0 225.0Q416 193 491 193Z" transform="translate(1450.994, 686.815) scale(0.177452, -0.177452)" fill="#F5F1E8"/>
</svg>
