<?xml version="1.0" encoding="UTF-8"?>
<svg xmlns="http://www.w3.org/2000/svg" viewBox="0 0 836 384" width="836" height="384">
<rect width="835.55" height="384.2" fill="#F5F1E8"/>
<path d="M429 -9Q413 -9 402 15L131 603Q128 610 123.5 609.0Q119 608 119 600V86Q119 58 128.5 43.5Q138 29 163 25L176 23Q189 22 189 11Q189 0 174 0H31Q16 0 16 11Q16 22 29 23L42 25Q68 29 78.0 43.5Q88 58 88 86V654Q88 675 81.5 682.0Q75 689 52 693L29 697Q16 700 16 709Q16 720 31 720H138Q163 720 173 698L409 179Q412 173 416.5 174.0Q421 175 421 181V634Q421 666 410.0 678.5Q399 691 382 694L364 697Q351 700 351 709Q351 720 366 720H509Q524 720 524 709Q524 698 511 697L498 695Q472 691 462.0 678.5Q452 666 452 634V23Q452 5 445.5 -2.0Q439 -9 429 -9Z" transform="translate(51.000, 270.300) scale(0.170000, -0.170000)" fill="#0E0E0C"/>
<path d="M-3 0Q-18 0 -18 10Q-18 20 -4 23L11 26Q31 30 41.0 45.5Q51 61 58 89L213 714Q215 724 219.5 727.0Q224 730 228 730Q233 730 237.5 727.0Q242 724 244 714L402 80Q409 52 418.0 41.0Q427 30 446 26L461 23Q475 20 475 10Q475 0 460 0H289Q275 0 275 11Q275 22 292 23L311 25Q328 27 332.5 36.0Q337 45 332 67L294 222Q288 248 261 248H156Q130 248 123 222L89 88Q74 31 119 25L134 23Q151 20 151 11Q151 0 137 0ZM153 278H263Q279 278 276 295L212 563H207L140 295Q137 278 153 278Z" transform="translate(173.400, 270.300) scale(0.170000, -0.170000)" fill="#0E0E0C"/>
<path d="M34 0Q19 0 19 11Q19 20 32 23L55 27Q76 31 82.5 38.0Q89 45 89 66V654Q89 675 82.5 682.0Q76 689 55 693L32 697Q19 700 19 709Q19 720 34 720H217Q232 720 232 708Q232 699 221 697L194 693Q173 690 166.5 682.0Q160 674 160 653V383Q160 373 166.0 371.0Q172 369 177 378L341 635Q374 686 335 693L312 697Q299 700 299 710Q299 720 313 720H483Q497 720 497 709Q497 698 484 697L465 695Q434 692 414.0 677.0Q394 662 369 623L256 446Q246 429 255 413L443 59Q451 43 459.5 36.0Q468 29 480 27L504 23Q516 22 516 11Q516 0 502 0H324Q310 0 310 11Q310 21 323 23L340 25Q379 30 356 74L212 348Q208 356 203.0 356.5Q198 357 193 349L172 316Q165 306 162.5 297.0Q160 288 160 274V67Q160 46 166.5 38.0Q173 30 194 27L221 23Q232 21 232 12Q232 0 217 0Z" transform="translate(281.690, 270.300) scale(0.170000, -0.170000)" fill="#0E0E0C"/>
<path d="M184 -9Q164 -9 139.5 -5.0Q115 -1 93.5 5.0Q72 11 60 18Q53 22 49.5 26.5Q46 31 46 42L41 199Q41 219 54 219Q65 219 69 201L78 163Q112 20 205 20Q255 20 284.5 53.5Q314 87 314 148Q314 207 283.5 258.0Q253 309 186 359Q112 412 78.0 461.5Q44 511 44 567Q44 641 95.5 685.5Q147 730 227 730Q257 730 285.0 723.0Q313 716 331 703Q337 699 340.5 694.0Q344 689 344 681L347 530Q347 513 334 513Q325 513 321 527L314 552Q292 629 268.5 664.5Q245 700 201 700Q158 700 132.5 672.0Q107 644 107 593Q107 550 135.0 511.0Q163 472 233 416Q308 355 342.5 298.5Q377 242 377 178Q377 122 352.0 80.0Q327 38 283.5 14.5Q240 -9 184 -9Z" transform="translate(396.610, 270.300) scale(0.170000, -0.170000)" fill="#0E0E0C"/>
<path d="M34 0Q19 0 19 11Q19 20 32 23L55 27Q76 31 82.5 38.0Q89 45 89 66V654Q89 675 82.5 682.0Q76 689 55 693L32 697Q19 700 19 709Q19 720 34 720H217Q232 720 232 708Q232 699 221 697L194 693Q173 690 166.5 682.0Q160 674 160 653V402Q160 388 174 388H372Q386 388 386 402V653Q386 674 379.5 682.0Q373 690 352 693L325 697Q314 699 314 708Q314 720 329 720H512Q527 720 527 709Q527 700 514 697L491 693Q470 689 463.5 682.0Q457 675 457 654V66Q457 45 463.5 38.0Q470 31 491 27L514 23Q527 20 527 11Q527 0 512 0H329Q314 0 314 12Q314 21 325 23L352 27Q373 30 379.5 38.0Q386 46 386 67V344Q386 358 372 358H174Q160 358 160 344V67Q160 46 166.5 38.0Q173 30 194 27L221 23Q232 21 232 12Q232 0 217 0Z" transform="translate(496.400, 270.300) scale(0.170000, -0.170000)" fill="#0E0E0C"/>
<path d="M34 0Q19 0 19 11Q19 20 32 23L55 27Q76 31 82.5 38.0Q89 45 89 66V654Q89 675 82.5 682.0Q76 689 55 693L32 697Q19 700 19 709Q19 720 34 720H215Q230 720 230 709Q230 700 217 697L194 693Q173 689 166.5 682.0Q160 675 160 654V66Q160 45 166.5 38.0Q173 31 194 27L217 23Q230 20 230 11Q230 0 215 0Z" transform="translate(619.820, 270.300) scale(0.170000, -0.170000)" fill="#0E0E0C"/>
<path d="M434 -215Q404 -215 370.5 -202.5Q337 -190 311.0 -159.0Q285 -128 275 -71Q270 -39 259.0 -25.0Q248 -11 222 -1Q170 16 128.5 67.5Q87 119 63.5 195.0Q40 271 40 361Q40 439 57.5 506.0Q75 573 106.5 623.5Q138 674 180.0 702.0Q222 730 270 730Q318 730 359.5 702.0Q401 674 433.0 623.5Q465 573 482.5 506.0Q500 439 500 361Q500 269 475.5 191.5Q451 114 408.5 63.0Q366 12 312 -3Q306 -4 306.0 -8.5Q306 -13 311 -17Q324 -26 333.0 -39.5Q342 -53 348 -74Q366 -132 394.5 -158.0Q423 -184 457 -184Q487 -184 518 -165Q526 -160 533.0 -162.0Q540 -164 540 -172Q540 -179 532 -186Q516 -198 492.5 -206.5Q469 -215 434 -215ZM270 18Q341 18 381.0 103.0Q421 188 421 361Q421 534 381.0 618.5Q341 703 270 703Q200 703 159.5 618.5Q119 534 119 361Q119 188 159.5 103.0Q200 18 270 18Z" transform="translate(692.750, 270.300) scale(0.170000, -0.170000)" fill="#0E0E0C"/>
<line x1="51.0" y1="296.650" x2="784.550" y2="296.650" stroke="#0E0E0C" stroke-width="1.5" opacity="0.4"/>
<circle cx="417.775" cy="36.72" r="24.888" fill="none" stroke="#0E0E0C" stroke-width="4.624"/><circle cx="417.775" cy="36.72" r="9.792" fill="#D43F2A"/>
</svg>
