<?xml version="1.0" encoding="UTF-8"?>
<svg xmlns="http://www.w3.org/2000/svg" viewBox="0 0 1011 328" width="1011" height="328">
<rect width="1010.8" height="328.0" fill="#F5F1E8"/>
<path d="M663 -14 139 654Q132 663 123.5 672.0Q115 681 108 687V115Q108 72 134.0 41.0Q160 10 203 10V0H-5V10Q39 10 65.0 41.0Q91 72 91 116V701Q46 735 -4 740V750H253L646 243V635Q646 678 620.0 709.0Q594 740 551 740V750H758V740Q715 740 689.0 709.0Q663 678 663 635Z" transform="translate(206.000, 239.000) scale(0.200000, -0.200000)" fill="#0E0E0C"/>
<path d="M166 -14Q105 -14 68.0 19.0Q31 52 31 106Q31 129 39.0 149.5Q47 170 69 190Q92 210 132.0 231.5Q172 253 238 277L331 311V386Q331 443 313.0 476.5Q295 510 263 510Q225 509 198.5 460.0Q172 411 163 324L55 386Q72 427 107.0 458.0Q142 489 187.5 506.0Q233 523 283 523Q368 523 421.5 475.5Q475 428 475 346V105Q475 47 514 47Q537 47 559 72L567 65Q541 30 504.0 8.0Q467 -14 432 -14Q394 -14 366.5 12.0Q339 38 332 81Q283 31 246.5 8.5Q210 -14 166 -14ZM241 48Q263 48 283.5 59.0Q304 70 330 95L331 298L291 283Q240 264 213.0 244.5Q186 225 175.5 201.0Q165 177 165 146Q165 103 186.5 75.5Q208 48 241 48Z" transform="translate(355.800, 239.000) scale(0.200000, -0.200000)" fill="#0E0E0C"/>
<path d="M0 0V10H1Q37 10 59.0 32.0Q81 54 81 90V660Q81 696 58.5 718.0Q36 740 0 740V750H102Q153 750 180 761Q205 772 215 788H225V262L395 405Q436 439 444 466Q450 491 431 495L418 498V508H567V498L557 496Q533 492 507.5 476.0Q482 460 434 420L365 362L564 56Q583 31 597.0 20.5Q611 10 628 10V0H364V10Q389 10 397 14Q406 17 406 27Q406 36 399 50Q395 58 389.5 68.5Q384 79 376 92L262 275L225 243V90Q225 54 247.0 32.0Q269 10 305 10H306V0Z" transform="translate(466.000, 239.000) scale(0.200000, -0.200000)" fill="#0E0E0C"/>
<path d="M204 -14Q178 -14 165.0 -12.0Q152 -10 140.5 -7.0Q129 -4 110.0 -2.0Q91 0 52 0L28 188H41Q57 94 101.0 46.5Q145 -1 197 -1Q248 -1 274.5 20.0Q301 41 301 77Q301 100 289.5 117.5Q278 135 250.0 153.5Q222 172 174 198L145 214Q90 245 63.5 286.5Q37 328 37 376Q37 444 86.5 483.0Q136 522 219 522Q240 522 253.0 520.0Q266 518 278.0 515.0Q290 512 308.0 510.0Q326 508 356 508L370 347H358Q352 394 331.5 430.5Q311 467 283.0 487.5Q255 508 226 508Q188 508 165.5 488.0Q143 468 143 432Q143 405 160.5 382.5Q178 360 228 334L258 319Q328 283 360.0 244.0Q392 205 392 144Q392 -12 204 -14Z" transform="translate(586.200, 239.000) scale(0.200000, -0.200000)" fill="#0E0E0C"/>
<path d="M0 0V10Q35 10 52.5 24.5Q70 39 75.5 62.0Q81 85 81 112V660Q81 696 58.5 718.0Q36 740 0 740V750H102Q153 750 180 761Q205 772 215 788H225V408Q252 461 304.0 491.5Q356 522 415 522Q462 522 495.0 500.5Q528 479 545.5 443.0Q563 407 563 362V90Q563 53 585.5 31.5Q608 10 644 10V0H339V10Q375 10 397.5 31.5Q420 53 420 90V372Q420 394 414.0 419.5Q408 445 392.5 463.5Q377 482 349 482Q323 482 299.5 466.5Q276 451 257.0 428.0Q238 405 225 382V112Q225 85 230.5 62.0Q236 39 253.5 24.5Q271 10 306 10V0Z" transform="translate(669.400, 239.000) scale(0.200000, -0.200000)" fill="#0E0E0C"/>
<path d="M7 0V10H8Q44 10 66.0 32.0Q88 54 88 90V418Q88 456 72.5 477.0Q57 498 7 498V508H109Q160 508 187 519Q212 530 222 546H232V90Q232 54 254.0 32.0Q276 10 312 10H313V0ZM159 609Q123 609 99.5 632.5Q76 656 76 692Q76 728 99.5 751.5Q123 775 159 775Q194 775 217.5 751.0Q241 727 241 692Q241 657 217.5 633.0Q194 609 159 609Z" transform="translate(795.600, 239.000) scale(0.200000, -0.200000)" fill="#0E0E0C"/>
<path d="M310 -210V-200Q347 -200 369.0 -178.0Q391 -156 391 -120V95Q366 48 320.0 17.0Q274 -14 220 -14Q166 -14 123.5 20.0Q81 54 57.0 113.5Q33 173 33 248Q33 330 62.5 391.5Q92 453 145.0 488.0Q198 523 268 523Q382 523 425 430L525 523H535V-120Q535 -156 557.0 -178.0Q579 -200 616 -200V-210ZM273 26Q295 26 319.0 40.5Q343 55 362.5 78.5Q382 102 391 128V371Q387 434 363.0 470.0Q339 506 299 506Q245 506 217 439Q189 373 189 244Q189 26 273 26Z" transform="translate(855.000, 239.000) scale(0.200000, -0.200000)" fill="#0E0E0C"/>
<circle cx="95.0" cy="188.2" r="50.325" fill="none" stroke="#0E0E0C" stroke-width="9.350"/><circle cx="95.0" cy="188.2" r="19.800" fill="#D43F2A"/>
</svg>
