<?xml version="1.0" encoding="UTF-8"?>
<svg xmlns="http://www.w3.org/2000/svg" viewBox="0 0 2000 1100" width="2000" height="1100">
<rect width="2000" height="1100" fill="#161614"/>
<circle cx="100" cy="100" r="1.5" fill="#6B6862"/>
<circle cx="100" cy="160" r="1.5" fill="#6B6862"/>
<circle cx="100" cy="220" r="1.5" fill="#6B6862"/>
<circle cx="100" cy="280" r="1.5" fill="#6B6862"/>
<circle cx="100" cy="340" r="1.5" fill="#6B6862"/>
<circle cx="100" cy="400" r="1.5" fill="#6B6862"/>
<circle cx="100" cy="460" r="1.5" fill="#6B6862"/>
<circle cx="100" cy="520" r="1.5" fill="#6B6862"/>
<circle cx="100" cy="580" r="1.5" fill="#6B6862"/>
<circle cx="100" cy="640" r="1.5" fill="#6B6862"/>
<circle cx="100" cy="700" r="1.5" fill="#6B6862"/>
<circle cx="100" cy="760" r="1.5" fill="#6B6862"/>
<circle cx="100" cy="820" r="1.5" fill="#6B6862"/>
<circle cx="100" cy="880" r="1.5" fill="#6B6862"/>
<circle cx="100" cy="940" r="1.5" fill="#6B6862"/>
<circle cx="100" cy="1000" r="1.5" fill="#6B6862"/>
<circle cx="160" cy="100" r="1.5" fill="#6B6862"/>
<circle cx="160" cy="160" r="1.5" fill="#6B6862"/>
<circle cx="160" cy="220" r="1.5" fill="#6B6862"/>
<circle cx="160" cy="280" r="1.5" fill="#6B6862"/>
<circle cx="160" cy="340" r="1.5" fill="#6B6862"/>
<circle cx="160" cy="400" r="1.5" fill="#6B6862"/>
<circle cx="160" cy="460" r="1.5" fill="#6B6862"/>
<circle cx="160" cy="520" r="1.5" fill="#6B6862"/>
<circle cx="160" cy="580" r="1.5" fill="#6B6862"/>
<circle cx="160" cy="640" r="1.5" fill="#6B6862"/>
<circle cx="160" cy="700" r="1.5" fill="#6B6862"/>
<circle cx="160" cy="760" r="1.5" fill="#6B6862"/>
<circle cx="160" cy="820" r="1.5" fill="#6B6862"/>
<circle cx="160" cy="880" r="1.5" fill="#6B6862"/>
<circle cx="160" cy="940" r="1.5" fill="#6B6862"/>
<circle cx="160" cy="1000" r="1.5" fill="#6B6862"/>
<circle cx="220" cy="100" r="1.5" fill="#6B6862"/>
<circle cx="220" cy="160" r="1.5" fill="#6B6862"/>
<circle cx="220" cy="220" r="1.5" fill="#6B6862"/>
<circle cx="220" cy="280" r="1.5" fill="#6B6862"/>
<circle cx="220" cy="340" r="1.5" fill="#6B6862"/>
<circle cx="220" cy="400" r="1.5" fill="#6B6862"/>
<circle cx="220" cy="460" r="1.5" fill="#6B6862"/>
<circle cx="220" cy="520" r="1.5" fill="#6B6862"/>
<circle cx="220" cy="580" r="1.5" fill="#6B6862"/>
<circle cx="220" cy="640" r="1.5" fill="#6B6862"/>
<circle cx="220" cy="700" r="1.5" fill="#6B6862"/>
<circle cx="220" cy="760" r="1.5" fill="#6B6862"/>
<circle cx="220" cy="820" r="1.5" fill="#6B6862"/>
<circle cx="220" cy="880" r="1.5" fill="#6B6862"/>
<circle cx="220" cy="940" r="1.5" fill="#6B6862"/>
<circle cx="220" cy="1000" r="1.5" fill="#6B6862"/>
<circle cx="280" cy="100" r="1.5" fill="#6B6862"/>
<circle cx="280" cy="160" r="1.5" fill="#6B6862"/>
<circle cx="280" cy="220" r="1.5" fill="#6B6862"/>
<circle cx="280" cy="280" r="1.5" fill="#6B6862"/>
<circle cx="280" cy="340" r="1.5" fill="#6B6862"/>
<circle cx="280" cy="400" r="1.5" fill="#6B6862"/>
<circle cx="280" cy="460" r="1.5" fill="#6B6862"/>
<circle cx="280" cy="520" r="1.5" fill="#6B6862"/>
<circle cx="280" cy="580" r="1.5" fill="#6B6862"/>
<circle cx="280" cy="640" r="1.5" fill="#6B6862"/>
<circle cx="280" cy="700" r="1.5" fill="#6B6862"/>
<circle cx="280" cy="760" r="1.5" fill="#6B6862"/>
<circle cx="280" cy="820" r="1.5" fill="#6B6862"/>
<circle cx="280" cy="880" r="1.5" fill="#6B6862"/>
<circle cx="280" cy="940" r="1.5" fill="#6B6862"/>
<circle cx="280" cy="1000" r="1.5" fill="#6B6862"/>
<circle cx="340" cy="100" r="1.5" fill="#6B6862"/>
<circle cx="340" cy="160" r="1.5" fill="#6B6862"/>
<circle cx="340" cy="220" r="1.5" fill="#6B6862"/>
<circle cx="340" cy="280" r="1.5" fill="#6B6862"/>
<circle cx="340" cy="340" r="1.5" fill="#6B6862"/>
<circle cx="340" cy="400" r="1.5" fill="#6B6862"/>
<circle cx="340" cy="460" r="1.5" fill="#6B6862"/>
<circle cx="340" cy="520" r="1.5" fill="#6B6862"/>
<circle cx="340" cy="580" r="1.5" fill="#6B6862"/>
<circle cx="340" cy="640" r="1.5" fill="#6B6862"/>
<circle cx="340" cy="700" r="1.5" fill="#6B6862"/>
<circle cx="340" cy="760" r="1.5" fill="#6B6862"/>
<circle cx="340" cy="820" r="1.5" fill="#6B6862"/>
<circle cx="340" cy="880" r="1.5" fill="#6B6862"/>
<circle cx="340" cy="940" r="1.5" fill="#6B6862"/>
<circle cx="340" cy="1000" r="1.5" fill="#6B6862"/>
<circle cx="400" cy="100" r="1.5" fill="#6B6862"/>
<circle cx="400" cy="160" r="1.5" fill="#6B6862"/>
<circle cx="400" cy="220" r="1.5" fill="#6B6862"/>
<circle cx="400" cy="280" r="1.5" fill="#6B6862"/>
<circle cx="400" cy="340" r="1.5" fill="#6B6862"/>
<circle cx="400" cy="400" r="1.5" fill="#6B6862"/>
<circle cx="400" cy="460" r="1.5" fill="#6B6862"/>
<circle cx="400" cy="520" r="1.5" fill="#6B6862"/>
<circle cx="400" cy="580" r="1.5" fill="#6B6862"/>
<circle cx="400" cy="640" r="1.5" fill="#6B6862"/>
<circle cx="400" cy="700" r="1.5" fill="#6B6862"/>
<circle cx="400" cy="760" r="1.5" fill="#6B6862"/>
<circle cx="400" cy="820" r="1.5" fill="#6B6862"/>
<circle cx="400" cy="880" r="1.5" fill="#6B6862"/>
<circle cx="400" cy="940" r="1.5" fill="#6B6862"/>
<circle cx="400" cy="1000" r="1.5" fill="#6B6862"/>
<circle cx="460" cy="100" r="1.5" fill="#6B6862"/>
<circle cx="460" cy="160" r="1.5" fill="#6B6862"/>
<circle cx="460" cy="220" r="1.5" fill="#6B6862"/>
<circle cx="460" cy="280" r="1.5" fill="#6B6862"/>
<circle cx="460" cy="340" r="1.5" fill="#6B6862"/>
<circle cx="460" cy="400" r="1.5" fill="#6B6862"/>
<circle cx="460" cy="700" r="1.5" fill="#6B6862"/>
<circle cx="460" cy="760" r="1.5" fill="#6B6862"/>
<circle cx="460" cy="820" r="1.5" fill="#6B6862"/>
<circle cx="460" cy="880" r="1.5" fill="#6B6862"/>
<circle cx="460" cy="940" r="1.5" fill="#6B6862"/>
<circle cx="460" cy="1000" r="1.5" fill="#6B6862"/>
<circle cx="520" cy="100" r="1.5" fill="#6B6862"/>
<circle cx="520" cy="160" r="1.5" fill="#6B6862"/>
<circle cx="520" cy="220" r="1.5" fill="#6B6862"/>
<circle cx="520" cy="280" r="1.5" fill="#6B6862"/>
<circle cx="520" cy="340" r="1.5" fill="#6B6862"/>
<circle cx="520" cy="760" r="1.5" fill="#6B6862"/>
<circle cx="520" cy="820" r="1.5" fill="#6B6862"/>
<circle cx="520" cy="880" r="1.5" fill="#6B6862"/>
<circle cx="520" cy="940" r="1.5" fill="#6B6862"/>
<circle cx="520" cy="1000" r="1.5" fill="#6B6862"/>
<circle cx="580" cy="100" r="1.5" fill="#6B6862"/>
<circle cx="580" cy="160" r="1.5" fill="#6B6862"/>
<circle cx="580" cy="220" r="1.5" fill="#6B6862"/>
<circle cx="580" cy="280" r="1.5" fill="#6B6862"/>
<circle cx="580" cy="340" r="1.5" fill="#6B6862"/>
<circle cx="580" cy="760" r="1.5" fill="#6B6862"/>
<circle cx="580" cy="820" r="1.5" fill="#6B6862"/>
<circle cx="580" cy="880" r="1.5" fill="#6B6862"/>
<circle cx="580" cy="940" r="1.5" fill="#6B6862"/>
<circle cx="580" cy="1000" r="1.5" fill="#6B6862"/>
<circle cx="640" cy="100" r="1.5" fill="#6B6862"/>
<circle cx="640" cy="160" r="1.5" fill="#6B6862"/>
<circle cx="640" cy="220" r="1.5" fill="#6B6862"/>
<circle cx="640" cy="280" r="1.5" fill="#6B6862"/>
<circle cx="640" cy="340" r="1.5" fill="#6B6862"/>
<circle cx="640" cy="760" r="1.5" fill="#6B6862"/>
<circle cx="640" cy="820" r="1.5" fill="#6B6862"/>
<circle cx="640" cy="880" r="1.5" fill="#6B6862"/>
<circle cx="640" cy="940" r="1.5" fill="#6B6862"/>
<circle cx="640" cy="1000" r="1.5" fill="#6B6862"/>
<circle cx="700" cy="100" r="1.5" fill="#6B6862"/>
<circle cx="700" cy="160" r="1.5" fill="#6B6862"/>
<circle cx="700" cy="220" r="1.5" fill="#6B6862"/>
<circle cx="700" cy="280" r="1.5" fill="#6B6862"/>
<circle cx="700" cy="820" r="1.5" fill="#6B6862"/>
<circle cx="700" cy="880" r="1.5" fill="#6B6862"/>
<circle cx="700" cy="940" r="1.5" fill="#6B6862"/>
<circle cx="700" cy="1000" r="1.5" fill="#6B6862"/>
<circle cx="760" cy="100" r="1.5" fill="#6B6862"/>
<circle cx="760" cy="160" r="1.5" fill="#6B6862"/>
<circle cx="760" cy="220" r="1.5" fill="#6B6862"/>
<circle cx="760" cy="280" r="1.5" fill="#6B6862"/>
<circle cx="760" cy="820" r="1.5" fill="#6B6862"/>
<circle cx="760" cy="880" r="1.5" fill="#6B6862"/>
<circle cx="760" cy="940" r="1.5" fill="#6B6862"/>
<circle cx="760" cy="1000" r="1.5" fill="#6B6862"/>
<circle cx="820" cy="100" r="1.5" fill="#6B6862"/>
<circle cx="820" cy="160" r="1.5" fill="#6B6862"/>
<circle cx="820" cy="220" r="1.5" fill="#6B6862"/>
<circle cx="820" cy="280" r="1.5" fill="#6B6862"/>
<circle cx="820" cy="820" r="1.5" fill="#6B6862"/>
<circle cx="820" cy="880" r="1.5" fill="#6B6862"/>
<circle cx="820" cy="940" r="1.5" fill="#6B6862"/>
<circle cx="820" cy="1000" r="1.5" fill="#6B6862"/>
<circle cx="880" cy="100" r="1.5" fill="#6B6862"/>
<circle cx="880" cy="160" r="1.5" fill="#6B6862"/>
<circle cx="880" cy="220" r="1.5" fill="#6B6862"/>
<circle cx="880" cy="280" r="1.5" fill="#6B6862"/>
<circle cx="880" cy="820" r="1.5" fill="#6B6862"/>
<circle cx="880" cy="880" r="1.5" fill="#6B6862"/>
<circle cx="880" cy="940" r="1.5" fill="#6B6862"/>
<circle cx="880" cy="1000" r="1.5" fill="#6B6862"/>
<circle cx="940" cy="100" r="1.5" fill="#6B6862"/>
<circle cx="940" cy="160" r="1.5" fill="#6B6862"/>
<circle cx="940" cy="220" r="1.5" fill="#6B6862"/>
<circle cx="940" cy="280" r="1.5" fill="#6B6862"/>
<circle cx="940" cy="820" r="1.5" fill="#6B6862"/>
<circle cx="940" cy="880" r="1.5" fill="#6B6862"/>
<circle cx="940" cy="940" r="1.5" fill="#6B6862"/>
<circle cx="940" cy="1000" r="1.5" fill="#6B6862"/>
<circle cx="1000" cy="100" r="1.5" fill="#6B6862"/>
<circle cx="1000" cy="160" r="1.5" fill="#6B6862"/>
<circle cx="1000" cy="220" r="1.5" fill="#6B6862"/>
<circle cx="1000" cy="280" r="1.5" fill="#6B6862"/>
<circle cx="1000" cy="820" r="1.5" fill="#6B6862"/>
<circle cx="1000" cy="880" r="1.5" fill="#6B6862"/>
<circle cx="1000" cy="940" r="1.5" fill="#6B6862"/>
<circle cx="1000" cy="1000" r="1.5" fill="#6B6862"/>
<circle cx="1060" cy="100" r="1.5" fill="#6B6862"/>
<circle cx="1060" cy="160" r="1.5" fill="#6B6862"/>
<circle cx="1060" cy="220" r="1.5" fill="#6B6862"/>
<circle cx="1060" cy="280" r="1.5" fill="#6B6862"/>
<circle cx="1060" cy="820" r="1.5" fill="#6B6862"/>
<circle cx="1060" cy="880" r="1.5" fill="#6B6862"/>
<circle cx="1060" cy="940" r="1.5" fill="#6B6862"/>
<circle cx="1060" cy="1000" r="1.5" fill="#6B6862"/>
<circle cx="1120" cy="100" r="1.5" fill="#6B6862"/>
<circle cx="1120" cy="160" r="1.5" fill="#6B6862"/>
<circle cx="1120" cy="220" r="1.5" fill="#6B6862"/>
<circle cx="1120" cy="280" r="1.5" fill="#6B6862"/>
<circle cx="1120" cy="820" r="1.5" fill="#6B6862"/>
<circle cx="1120" cy="880" r="1.5" fill="#6B6862"/>
<circle cx="1120" cy="940" r="1.5" fill="#6B6862"/>
<circle cx="1120" cy="1000" r="1.5" fill="#6B6862"/>
<circle cx="1180" cy="100" r="1.5" fill="#6B6862"/>
<circle cx="1180" cy="160" r="1.5" fill="#6B6862"/>
<circle cx="1180" cy="220" r="1.5" fill="#6B6862"/>
<circle cx="1180" cy="280" r="1.5" fill="#6B6862"/>
<circle cx="1180" cy="820" r="1.5" fill="#6B6862"/>
<circle cx="1180" cy="880" r="1.5" fill="#6B6862"/>
<circle cx="1180" cy="940" r="1.5" fill="#6B6862"/>
<circle cx="1180" cy="1000" r="1.5" fill="#6B6862"/>
<circle cx="1240" cy="100" r="1.5" fill="#6B6862"/>
<circle cx="1240" cy="160" r="1.5" fill="#6B6862"/>
<circle cx="1240" cy="220" r="1.5" fill="#6B6862"/>
<circle cx="1240" cy="280" r="1.5" fill="#6B6862"/>
<circle cx="1240" cy="820" r="1.5" fill="#6B6862"/>
<circle cx="1240" cy="880" r="1.5" fill="#6B6862"/>
<circle cx="1240" cy="940" r="1.5" fill="#6B6862"/>
<circle cx="1240" cy="1000" r="1.5" fill="#6B6862"/>
<circle cx="1300" cy="100" r="1.5" fill="#6B6862"/>
<circle cx="1300" cy="160" r="1.5" fill="#6B6862"/>
<circle cx="1300" cy="220" r="1.5" fill="#6B6862"/>
<circle cx="1300" cy="280" r="1.5" fill="#6B6862"/>
<circle cx="1300" cy="820" r="1.5" fill="#6B6862"/>
<circle cx="1300" cy="880" r="1.5" fill="#6B6862"/>
<circle cx="1300" cy="940" r="1.5" fill="#6B6862"/>
<circle cx="1300" cy="1000" r="1.5" fill="#6B6862"/>
<circle cx="1360" cy="100" r="1.5" fill="#6B6862"/>
<circle cx="1360" cy="160" r="1.5" fill="#6B6862"/>
<circle cx="1360" cy="220" r="1.5" fill="#6B6862"/>
<circle cx="1360" cy="280" r="1.5" fill="#6B6862"/>
<circle cx="1360" cy="340" r="1.5" fill="#6B6862"/>
<circle cx="1360" cy="760" r="1.5" fill="#6B6862"/>
<circle cx="1360" cy="820" r="1.5" fill="#6B6862"/>
<circle cx="1360" cy="880" r="1.5" fill="#6B6862"/>
<circle cx="1360" cy="940" r="1.5" fill="#6B6862"/>
<circle cx="1360" cy="1000" r="1.5" fill="#6B6862"/>
<circle cx="1420" cy="100" r="1.5" fill="#6B6862"/>
<circle cx="1420" cy="160" r="1.5" fill="#6B6862"/>
<circle cx="1420" cy="220" r="1.5" fill="#6B6862"/>
<circle cx="1420" cy="280" r="1.5" fill="#6B6862"/>
<circle cx="1420" cy="340" r="1.5" fill="#6B6862"/>
<circle cx="1420" cy="760" r="1.5" fill="#6B6862"/>
<circle cx="1420" cy="820" r="1.5" fill="#6B6862"/>
<circle cx="1420" cy="880" r="1.5" fill="#6B6862"/>
<circle cx="1420" cy="940" r="1.5" fill="#6B6862"/>
<circle cx="1420" cy="1000" r="1.5" fill="#6B6862"/>
<circle cx="1480" cy="100" r="1.5" fill="#6B6862"/>
<circle cx="1480" cy="160" r="1.5" fill="#6B6862"/>
<circle cx="1480" cy="220" r="1.5" fill="#6B6862"/>
<circle cx="1480" cy="280" r="1.5" fill="#6B6862"/>
<circle cx="1480" cy="340" r="1.5" fill="#6B6862"/>
<circle cx="1480" cy="760" r="1.5" fill="#6B6862"/>
<circle cx="1480" cy="820" r="1.5" fill="#6B6862"/>
<circle cx="1480" cy="880" r="1.5" fill="#6B6862"/>
<circle cx="1480" cy="940" r="1.5" fill="#6B6862"/>
<circle cx="1480" cy="1000" r="1.5" fill="#6B6862"/>
<circle cx="1540" cy="100" r="1.5" fill="#6B6862"/>
<circle cx="1540" cy="160" r="1.5" fill="#6B6862"/>
<circle cx="1540" cy="220" r="1.5" fill="#6B6862"/>
<circle cx="1540" cy="280" r="1.5" fill="#6B6862"/>
<circle cx="1540" cy="340" r="1.5" fill="#6B6862"/>
<circle cx="1540" cy="400" r="1.5" fill="#6B6862"/>
<circle cx="1540" cy="700" r="1.5" fill="#6B6862"/>
<circle cx="1540" cy="760" r="1.5" fill="#6B6862"/>
<circle cx="1540" cy="820" r="1.5" fill="#6B6862"/>
<circle cx="1540" cy="880" r="1.5" fill="#6B6862"/>
<circle cx="1540" cy="940" r="1.5" fill="#6B6862"/>
<circle cx="1540" cy="1000" r="1.5" fill="#6B6862"/>
<circle cx="1600" cy="100" r="1.5" fill="#6B6862"/>
<circle cx="1600" cy="160" r="1.5" fill="#6B6862"/>
<circle cx="1600" cy="220" r="1.5" fill="#6B6862"/>
<circle cx="1600" cy="280" r="1.5" fill="#6B6862"/>
<circle cx="1600" cy="340" r="1.5" fill="#6B6862"/>
<circle cx="1600" cy="400" r="1.5" fill="#6B6862"/>
<circle cx="1600" cy="460" r="1.5" fill="#6B6862"/>
<circle cx="1600" cy="520" r="1.5" fill="#6B6862"/>
<circle cx="1600" cy="580" r="1.5" fill="#6B6862"/>
<circle cx="1600" cy="640" r="1.5" fill="#6B6862"/>
<circle cx="1600" cy="700" r="1.5" fill="#6B6862"/>
<circle cx="1600" cy="760" r="1.5" fill="#6B6862"/>
<circle cx="1600" cy="820" r="1.5" fill="#6B6862"/>
<circle cx="1600" cy="880" r="1.5" fill="#6B6862"/>
<circle cx="1600" cy="940" r="1.5" fill="#6B6862"/>
<circle cx="1600" cy="1000" r="1.5" fill="#6B6862"/>
<circle cx="1660" cy="100" r="1.5" fill="#6B6862"/>
<circle cx="1660" cy="160" r="1.5" fill="#6B6862"/>
<circle cx="1660" cy="220" r="1.5" fill="#6B6862"/>
<circle cx="1660" cy="280" r="1.5" fill="#6B6862"/>
<circle cx="1660" cy="340" r="1.5" fill="#6B6862"/>
<circle cx="1660" cy="400" r="1.5" fill="#6B6862"/>
<circle cx="1660" cy="460" r="1.5" fill="#6B6862"/>
<circle cx="1660" cy="520" r="1.5" fill="#6B6862"/>
<circle cx="1660" cy="580" r="1.5" fill="#6B6862"/>
<circle cx="1660" cy="640" r="1.5" fill="#6B6862"/>
<circle cx="1660" cy="700" r="1.5" fill="#6B6862"/>
<circle cx="1660" cy="760" r="1.5" fill="#6B6862"/>
<circle cx="1660" cy="820" r="1.5" fill="#6B6862"/>
<circle cx="1660" cy="880" r="1.5" fill="#6B6862"/>
<circle cx="1660" cy="940" r="1.5" fill="#6B6862"/>
<circle cx="1660" cy="1000" r="1.5" fill="#6B6862"/>
<circle cx="1720" cy="100" r="1.5" fill="#6B6862"/>
<circle cx="1720" cy="160" r="1.5" fill="#6B6862"/>
<circle cx="1720" cy="220" r="1.5" fill="#6B6862"/>
<circle cx="1720" cy="280" r="1.5" fill="#6B6862"/>
<circle cx="1720" cy="340" r="1.5" fill="#6B6862"/>
<circle cx="1720" cy="400" r="1.5" fill="#6B6862"/>
<circle cx="1720" cy="460" r="1.5" fill="#6B6862"/>
<circle cx="1720" cy="520" r="1.5" fill="#6B6862"/>
<circle cx="1720" cy="580" r="1.5" fill="#6B6862"/>
<circle cx="1720" cy="640" r="1.5" fill="#6B6862"/>
<circle cx="1720" cy="700" r="1.5" fill="#6B6862"/>
<circle cx="1720" cy="760" r="1.5" fill="#6B6862"/>
<circle cx="1720" cy="820" r="1.5" fill="#6B6862"/>
<circle cx="1720" cy="880" r="1.5" fill="#6B6862"/>
<circle cx="1720" cy="940" r="1.5" fill="#6B6862"/>
<circle cx="1720" cy="1000" r="1.5" fill="#6B6862"/>
<circle cx="1780" cy="100" r="1.5" fill="#6B6862"/>
<circle cx="1780" cy="160" r="1.5" fill="#6B6862"/>
<circle cx="1780" cy="220" r="1.5" fill="#6B6862"/>
<circle cx="1780" cy="280" r="1.5" fill="#6B6862"/>
<circle cx="1780" cy="340" r="1.5" fill="#6B6862"/>
<circle cx="1780" cy="400" r="1.5" fill="#6B6862"/>
<circle cx="1780" cy="460" r="1.5" fill="#6B6862"/>
<circle cx="1780" cy="520" r="1.5" fill="#6B6862"/>
<circle cx="1780" cy="580" r="1.5" fill="#6B6862"/>
<circle cx="1780" cy="640" r="1.5" fill="#6B6862"/>
<circle cx="1780" cy="700" r="1.5" fill="#6B6862"/>
<circle cx="1780" cy="760" r="1.5" fill="#6B6862"/>
<circle cx="1780" cy="820" r="1.5" fill="#6B6862"/>
<circle cx="1780" cy="880" r="1.5" fill="#6B6862"/>
<circle cx="1780" cy="940" r="1.5" fill="#6B6862"/>
<circle cx="1780" cy="1000" r="1.5" fill="#6B6862"/>
<circle cx="1840" cy="100" r="1.5" fill="#6B6862"/>
<circle cx="1840" cy="160" r="1.5" fill="#6B6862"/>
<circle cx="1840" cy="220" r="1.5" fill="#6B6862"/>
<circle cx="1840" cy="280" r="1.5" fill="#6B6862"/>
<circle cx="1840" cy="340" r="1.5" fill="#6B6862"/>
<circle cx="1840" cy="400" r="1.5" fill="#6B6862"/>
<circle cx="1840" cy="460" r="1.5" fill="#6B6862"/>
<circle cx="1840" cy="520" r="1.5" fill="#6B6862"/>
<circle cx="1840" cy="580" r="1.5" fill="#6B6862"/>
<circle cx="1840" cy="640" r="1.5" fill="#6B6862"/>
<circle cx="1840" cy="700" r="1.5" fill="#6B6862"/>
<circle cx="1840" cy="760" r="1.5" fill="#6B6862"/>
<circle cx="1840" cy="820" r="1.5" fill="#6B6862"/>
<circle cx="1840" cy="880" r="1.5" fill="#6B6862"/>
<circle cx="1840" cy="940" r="1.5" fill="#6B6862"/>
<circle cx="1840" cy="1000" r="1.5" fill="#6B6862"/>
<circle cx="1900" cy="100" r="1.5" fill="#6B6862"/>
<circle cx="1900" cy="160" r="1.5" fill="#6B6862"/>
<circle cx="1900" cy="220" r="1.5" fill="#6B6862"/>
<circle cx="1900" cy="280" r="1.5" fill="#6B6862"/>
<circle cx="1900" cy="340" r="1.5" fill="#6B6862"/>
<circle cx="1900" cy="400" r="1.5" fill="#6B6862"/>
<circle cx="1900" cy="460" r="1.5" fill="#6B6862"/>
<circle cx="1900" cy="520" r="1.5" fill="#6B6862"/>
<circle cx="1900" cy="580" r="1.5" fill="#6B6862"/>
<circle cx="1900" cy="640" r="1.5" fill="#6B6862"/>
<circle cx="1900" cy="700" r="1.5" fill="#6B6862"/>
<circle cx="1900" cy="760" r="1.5" fill="#6B6862"/>
<circle cx="1900" cy="820" r="1.5" fill="#6B6862"/>
<circle cx="1900" cy="880" r="1.5" fill="#6B6862"/>
<circle cx="1900" cy="940" r="1.5" fill="#6B6862"/>
<circle cx="1900" cy="1000" r="1.5" fill="#6B6862"/>
<line x1="110" y1="140" x2="170" y2="140" stroke="#B8B2A3" stroke-width="1.5"/><line x1="140" y1="110" x2="140" y2="170" stroke="#B8B2A3" stroke-width="1.5"/><circle cx="140" cy="140" r="6" fill="none" stroke="#B8B2A3" stroke-width="1.5"/>
<line x1="1830" y1="960" x2="1890" y2="960" stroke="#B8B2A3" stroke-width="1.5"/><line x1="1860" y1="930" x2="1860" y2="990" stroke="#B8B2A3" stroke-width="1.5"/><circle cx="1860" cy="960" r="6" fill="none" stroke="#B8B2A3" stroke-width="1.5"/>
<path d="M79 0V121L307 350Q355 399 378.0 438.5Q401 478 401 520Q401 571 373.0 599.5Q345 628 297 628Q244 628 214.0 597.5Q184 567 184 513H59Q60 583 89.5 633.5Q119 684 173.0 712.0Q227 740 299 740Q368 740 419.0 714.0Q470 688 498.0 641.0Q526 594 526 529Q526 462 491.5 398.5Q457 335 381 262L229 113H535V0Z" transform="translate(758.200, 170.000) scale(0.026000, -0.026000)" fill="#B8B2A3"/>
<path d="M300 -10Q228 -10 175.0 14.5Q122 39 93.0 84.0Q64 129 64 189Q64 255 101.0 302.0Q138 349 211 382L323 433Q359 450 379.5 479.0Q400 508 400 544Q400 585 373.0 609.5Q346 634 300 634Q254 634 226.5 609.0Q199 584 199 543Q199 508 220.0 479.0Q241 450 276 434L387 383Q466 348 501.0 300.5Q536 253 536 189Q536 97 472.5 43.5Q409 -10 300 -10ZM300 97Q352 97 382.5 124.5Q413 152 413 197Q413 232 392.0 263.5Q371 295 334 312L215 367Q147 399 111.5 443.5Q76 488 76 550Q76 606 103.0 649.0Q130 692 180.5 716.0Q231 740 300 740Q369 740 418.5 716.0Q468 692 495.5 649.0Q523 606 523 550Q523 487 488.0 443.0Q453 399 385 367L265 311Q229 295 208.0 264.0Q187 233 187 198Q187 153 217.5 125.0Q248 97 300 97Z" transform="translate(777.700, 170.000) scale(0.026000, -0.026000)" fill="#B8B2A3"/>
<path d="M300 450Q233 450 191.5 490.0Q150 530 150 595Q150 660 191.5 700.0Q233 740 300 740Q368 740 409.0 700.0Q450 660 450 595Q450 530 409.0 490.0Q368 450 300 450ZM299 509Q336 509 358.5 533.0Q381 557 381 595Q381 634 358.5 657.5Q336 681 300 681Q263 681 241.0 657.5Q219 634 219 595Q219 557 241.0 533.0Q263 509 299 509Z" transform="translate(797.200, 170.000) scale(0.026000, -0.026000)" fill="#B8B2A3"/>
<path d="M293 -10Q222 -10 169.5 16.0Q117 42 88.0 89.0Q59 136 59 200H185Q185 151 213.5 123.5Q242 96 294 96Q346 96 374.0 124.0Q402 152 402 200V257Q402 306 374.0 333.5Q346 361 294 361H212V474L373 623H92V730H500V617L294 428V468Q402 468 465.0 411.0Q528 354 528 257V200Q528 136 499.0 89.0Q470 42 417.0 16.0Q364 -10 293 -10Z" transform="translate(816.700, 170.000) scale(0.026000, -0.026000)" fill="#B8B2A3"/>
<path d="M300 -10Q227 -10 171.5 20.5Q116 51 85.5 106.5Q55 162 55 235Q55 287 72.5 344.0Q90 401 121 451L293 730H432L216 390L222 386Q242 417 276.0 433.0Q310 449 352 449Q411 449 454.0 421.0Q497 393 521.0 343.0Q545 293 545 226Q545 155 514.5 102.0Q484 49 429.5 19.5Q375 -10 300 -10ZM300 96Q355 96 389.0 131.5Q423 167 423 224Q423 283 389.0 318.5Q355 354 300 354Q245 354 211.0 318.5Q177 283 177 224Q177 167 211.0 131.5Q245 96 300 96Z" transform="translate(836.200, 170.000) scale(0.026000, -0.026000)" fill="#B8B2A3"/>
<path d="M150 465 230 776H390L260 465Z" transform="translate(855.700, 170.000) scale(0.026000, -0.026000)" fill="#B8B2A3"/>
<path d="M299 -10Q198 -10 137.0 40.5Q76 91 70 178H195Q199 140 225.5 119.5Q252 99 299 99Q351 99 378.0 126.5Q405 154 405 203V274Q405 324 378.0 350.5Q351 377 299 377Q267 377 244.0 364.0Q221 351 209 328H87L92 730H503V617H210L208 405H237L207 380Q207 426 243.5 452.5Q280 479 342 479Q431 480 480.5 425.5Q530 371 530 274V203Q530 104 468.5 47.0Q407 -10 299 -10Z" transform="translate(875.200, 170.000) scale(0.026000, -0.026000)" fill="#B8B2A3"/>
<path d="M300 -10Q229 -10 177.0 17.0Q125 44 96.5 93.0Q68 142 68 208V522Q68 588 96.5 637.0Q125 686 177.0 713.0Q229 740 300 740Q372 740 423.5 713.0Q475 686 503.5 637.0Q532 588 532 522V208Q532 142 503.5 93.0Q475 44 423.0 17.0Q371 -10 300 -10ZM300 98Q352 98 383.0 128.0Q414 158 414 208V522Q414 572 383.0 602.0Q352 632 300 632Q248 632 217.0 602.0Q186 572 186 522V208Q186 158 217.0 128.0Q248 98 300 98ZM300 300Q271 300 252.5 319.0Q234 338 234 368Q234 398 252.0 416.0Q270 434 300 434Q330 434 348.0 416.0Q366 398 366 368Q366 338 348.0 319.0Q330 300 300 300Z" transform="translate(894.700, 170.000) scale(0.026000, -0.026000)" fill="#B8B2A3"/>
<path d="M309 465 389 776H548L418 465ZM62 465 142 776H301L171 465Z" transform="translate(914.200, 170.000) scale(0.026000, -0.026000)" fill="#B8B2A3"/>
<path d="M72 0V730H225L428 140Q425 172 421.5 215.5Q418 259 416.0 304.5Q414 350 414 384V730H528V0H375L174 590Q176 561 179.0 520.0Q182 479 184.0 436.0Q186 393 186 357V0Z" transform="translate(933.700, 170.000) scale(0.026000, -0.026000)" fill="#B8B2A3"/>
<path d="M300 255Q257 255 231.5 280.0Q206 305 206 348Q206 391 231.5 416.5Q257 442 300 442Q343 442 368.5 416.5Q394 391 394 348Q394 305 368.5 280.0Q343 255 300 255Z" transform="translate(992.200, 170.000) scale(0.026000, -0.026000)" fill="#B8B2A3"/>
<path d="M155 0 419 614H185V508H60V730H544V612L289 0Z" transform="translate(1050.700, 170.000) scale(0.026000, -0.026000)" fill="#B8B2A3"/>
<path d="M155 0 419 614H185V508H60V730H544V612L289 0Z" transform="translate(1070.200, 170.000) scale(0.026000, -0.026000)" fill="#B8B2A3"/>
<path d="M300 450Q233 450 191.5 490.0Q150 530 150 595Q150 660 191.5 700.0Q233 740 300 740Q368 740 409.0 700.0Q450 660 450 595Q450 530 409.0 490.0Q368 450 300 450ZM299 509Q336 509 358.5 533.0Q381 557 381 595Q381 634 358.5 657.5Q336 681 300 681Q263 681 241.0 657.5Q219 634 219 595Q219 557 241.0 533.0Q263 509 299 509Z" transform="translate(1089.700, 170.000) scale(0.026000, -0.026000)" fill="#B8B2A3"/>
<path d="M84 0V110H274V619L83 477V609L251 730H399V110H552V0Z" transform="translate(1109.200, 170.000) scale(0.026000, -0.026000)" fill="#B8B2A3"/>
<path d="M79 0V121L307 350Q355 399 378.0 438.5Q401 478 401 520Q401 571 373.0 599.5Q345 628 297 628Q244 628 214.0 597.5Q184 567 184 513H59Q60 583 89.5 633.5Q119 684 173.0 712.0Q227 740 299 740Q368 740 419.0 714.0Q470 688 498.0 641.0Q526 594 526 529Q526 462 491.5 398.5Q457 335 381 262L229 113H535V0Z" transform="translate(1128.700, 170.000) scale(0.026000, -0.026000)" fill="#B8B2A3"/>
<path d="M150 465 230 776H390L260 465Z" transform="translate(1148.200, 170.000) scale(0.026000, -0.026000)" fill="#B8B2A3"/>
<path d="M293 -10Q222 -10 169.5 16.0Q117 42 88.0 89.0Q59 136 59 200H185Q185 151 213.5 123.5Q242 96 294 96Q346 96 374.0 124.0Q402 152 402 200V257Q402 306 374.0 333.5Q346 361 294 361H212V474L373 623H92V730H500V617L294 428V468Q402 468 465.0 411.0Q528 354 528 257V200Q528 136 499.0 89.0Q470 42 417.0 16.0Q364 -10 293 -10Z" transform="translate(1167.700, 170.000) scale(0.026000, -0.026000)" fill="#B8B2A3"/>
<path d="M79 0V121L307 350Q355 399 378.0 438.5Q401 478 401 520Q401 571 373.0 599.5Q345 628 297 628Q244 628 214.0 597.5Q184 567 184 513H59Q60 583 89.5 633.5Q119 684 173.0 712.0Q227 740 299 740Q368 740 419.0 714.0Q470 688 498.0 641.0Q526 594 526 529Q526 462 491.5 398.5Q457 335 381 262L229 113H535V0Z" transform="translate(1187.200, 170.000) scale(0.026000, -0.026000)" fill="#B8B2A3"/>
<path d="M309 465 389 776H548L418 465ZM62 465 142 776H301L171 465Z" transform="translate(1206.700, 170.000) scale(0.026000, -0.026000)" fill="#B8B2A3"/>
<path d="M88 0V730H526V621H211V431H491V323H211V109H526V0Z" transform="translate(1226.200, 170.000) scale(0.026000, -0.026000)" fill="#B8B2A3"/>
<path d="M72 0V730H225L428 140Q425 172 421.5 215.5Q418 259 416.0 304.5Q414 350 414 384V730H528V0H375L174 590Q176 561 179.0 520.0Q182 479 184.0 436.0Q186 393 186 357V0Z" transform="translate(631.450, 970.000) scale(0.026000, -0.026000)" fill="#B8B2A3"/>
<path d="M35 0 219 730H380L565 0H437L397 177H203L163 0ZM226 279H374L330 475Q319 524 311.0 563.5Q303 603 300 621Q297 603 289.5 563.5Q282 524 270 476Z" transform="translate(650.950, 970.000) scale(0.026000, -0.026000)" fill="#B8B2A3"/>
<path d="M76 0V730H201V435H288L425 730H561L398 380L569 0H430L286 321H201V0Z" transform="translate(670.450, 970.000) scale(0.026000, -0.026000)" fill="#B8B2A3"/>
<path d="M302 -10Q227 -10 172.0 15.0Q117 40 87.5 86.5Q58 133 57 196H182Q182 151 214.5 125.5Q247 100 303 100Q357 100 387.5 125.0Q418 150 418 194Q418 231 396.5 258.5Q375 286 335 296L251 319Q165 341 118.5 398.0Q72 455 72 536Q72 598 100.0 644.0Q128 690 179.5 715.0Q231 740 301 740Q407 740 469.0 685.5Q531 631 532 539H407Q407 582 379.0 606.5Q351 631 300 631Q251 631 224.0 608.0Q197 585 197 543Q197 505 217.5 478.5Q238 452 277 441L364 417Q451 395 497.0 338.5Q543 282 543 199Q543 137 513.0 89.5Q483 42 429.0 16.0Q375 -10 302 -10Z" transform="translate(689.950, 970.000) scale(0.026000, -0.026000)" fill="#B8B2A3"/>
<path d="M77 0V730H202V437H398V730H523V0H398V321H202V0Z" transform="translate(709.450, 970.000) scale(0.026000, -0.026000)" fill="#B8B2A3"/>
<path d="M90 0V110H237V620H90V730H510V620H363V110H510V0Z" transform="translate(728.950, 970.000) scale(0.026000, -0.026000)" fill="#B8B2A3"/>
<path d="M409 -180 299 1 321 -9Q317 -9 311.5 -9.5Q306 -10 300 -10Q230 -10 178.0 17.0Q126 44 97.0 93.5Q68 143 68 208V522Q68 589 97.0 637.5Q126 686 178.0 713.0Q230 740 300 740Q370 740 422.0 713.0Q474 686 503.0 637.0Q532 588 532 522V208Q532 142 503.5 92.5Q475 43 423 17L544 -180ZM300 100Q352 100 379.5 128.5Q407 157 407 208V522Q407 574 378.5 602.5Q350 631 300 631Q250 631 221.5 602.5Q193 574 193 522V208Q193 157 221.0 128.5Q249 100 300 100Z" transform="translate(748.450, 970.000) scale(0.026000, -0.026000)" fill="#B8B2A3"/>
<path d="M300 255Q257 255 231.5 280.0Q206 305 206 348Q206 391 231.5 416.5Q257 442 300 442Q343 442 368.5 416.5Q394 391 394 348Q394 305 368.5 280.0Q343 255 300 255Z" transform="translate(806.950, 970.000) scale(0.026000, -0.026000)" fill="#B8B2A3"/>
<path d="M72 0V730H225L428 140Q425 172 421.5 215.5Q418 259 416.0 304.5Q414 350 414 384V730H528V0H375L174 590Q176 561 179.0 520.0Q182 479 184.0 436.0Q186 393 186 357V0Z" transform="translate(865.450, 970.000) scale(0.026000, -0.026000)" fill="#B8B2A3"/>
<path d="M300 -10Q230 -10 178.5 16.5Q127 43 99.5 91.5Q72 140 72 206V524Q72 590 99.5 638.5Q127 687 178.5 713.5Q230 740 300 740Q371 740 422.0 713.5Q473 687 500.5 638.5Q528 590 528 525V206Q528 140 500.5 91.5Q473 43 422.0 16.5Q371 -10 300 -10ZM300 100Q351 100 377.0 127.5Q403 155 403 206V524Q403 576 377.0 603.0Q351 630 300 630Q249 630 223.0 603.0Q197 576 197 524V206Q197 155 223.5 127.5Q250 100 300 100Z" transform="translate(884.950, 970.000) scale(0.026000, -0.026000)" fill="#B8B2A3"/>
<path d="M76 0V730H307Q380 730 433.5 703.0Q487 676 517.0 627.5Q547 579 547 513Q547 441 510.5 386.0Q474 331 412 308L557 0H417L290 290H201V0ZM201 400H307Q360 400 390.0 429.0Q420 458 420 509Q420 561 390.0 590.5Q360 620 307 620H201Z" transform="translate(904.450, 970.000) scale(0.026000, -0.026000)" fill="#B8B2A3"/>
<path d="M237 0V614H46V730H554V614H363V0Z" transform="translate(923.950, 970.000) scale(0.026000, -0.026000)" fill="#B8B2A3"/>
<path d="M77 0V730H202V437H398V730H523V0H398V321H202V0Z" transform="translate(943.450, 970.000) scale(0.026000, -0.026000)" fill="#B8B2A3"/>
<path d="M90 0V110H237V620H90V730H510V620H363V110H510V0Z" transform="translate(982.450, 970.000) scale(0.026000, -0.026000)" fill="#B8B2A3"/>
<path d="M72 0V730H225L428 140Q425 172 421.5 215.5Q418 259 416.0 304.5Q414 350 414 384V730H528V0H375L174 590Q176 561 179.0 520.0Q182 479 184.0 436.0Q186 393 186 357V0Z" transform="translate(1001.950, 970.000) scale(0.026000, -0.026000)" fill="#B8B2A3"/>
<path d="M75 0V730H292Q366 730 420.5 702.0Q475 674 505.0 623.0Q535 572 535 502V229Q535 160 505.0 108.5Q475 57 420.5 28.5Q366 0 292 0ZM200 115H292Q346 115 378.0 145.5Q410 176 410 229V502Q410 554 378.0 584.5Q346 615 292 615H200Z" transform="translate(1021.450, 970.000) scale(0.026000, -0.026000)" fill="#B8B2A3"/>
<path d="M90 0V110H237V620H90V730H510V620H363V110H510V0Z" transform="translate(1040.950, 970.000) scale(0.026000, -0.026000)" fill="#B8B2A3"/>
<path d="M35 0 219 730H380L565 0H437L397 177H203L163 0ZM226 279H374L330 475Q319 524 311.0 563.5Q303 603 300 621Q297 603 289.5 563.5Q282 524 270 476Z" transform="translate(1060.450, 970.000) scale(0.026000, -0.026000)" fill="#B8B2A3"/>
<path d="M35 0 219 730H380L565 0H437L397 177H203L163 0ZM226 279H374L330 475Q319 524 311.0 563.5Q303 603 300 621Q297 603 289.5 563.5Q282 524 270 476Z" transform="translate(1099.450, 970.000) scale(0.026000, -0.026000)" fill="#B8B2A3"/>
<path d="M237 0V614H46V730H554V614H363V0Z" transform="translate(1118.950, 970.000) scale(0.026000, -0.026000)" fill="#B8B2A3"/>
<path d="M103 0V730H228V116H538V0Z" transform="translate(1138.450, 970.000) scale(0.026000, -0.026000)" fill="#B8B2A3"/>
<path d="M35 0 219 730H380L565 0H437L397 177H203L163 0ZM226 279H374L330 475Q319 524 311.0 563.5Q303 603 300 621Q297 603 289.5 563.5Q282 524 270 476Z" transform="translate(1157.950, 970.000) scale(0.026000, -0.026000)" fill="#B8B2A3"/>
<path d="M302 -10Q227 -10 172.0 15.0Q117 40 87.5 86.5Q58 133 57 196H182Q182 151 214.5 125.5Q247 100 303 100Q357 100 387.5 125.0Q418 150 418 194Q418 231 396.5 258.5Q375 286 335 296L251 319Q165 341 118.5 398.0Q72 455 72 536Q72 598 100.0 644.0Q128 690 179.5 715.0Q231 740 301 740Q407 740 469.0 685.5Q531 631 532 539H407Q407 582 379.0 606.5Q351 631 300 631Q251 631 224.0 608.0Q197 585 197 543Q197 505 217.5 478.5Q238 452 277 441L364 417Q451 395 497.0 338.5Q543 282 543 199Q543 137 513.0 89.5Q483 42 429.0 16.0Q375 -10 302 -10Z" transform="translate(1177.450, 970.000) scale(0.026000, -0.026000)" fill="#B8B2A3"/>
<path d="M300 255Q257 255 231.5 280.0Q206 305 206 348Q206 391 231.5 416.5Q257 442 300 442Q343 442 368.5 416.5Q394 391 394 348Q394 305 368.5 280.0Q343 255 300 255Z" transform="translate(1235.950, 970.000) scale(0.026000, -0.026000)" fill="#B8B2A3"/>
<path d="M79 0V121L307 350Q355 399 378.0 438.5Q401 478 401 520Q401 571 373.0 599.5Q345 628 297 628Q244 628 214.0 597.5Q184 567 184 513H59Q60 583 89.5 633.5Q119 684 173.0 712.0Q227 740 299 740Q368 740 419.0 714.0Q470 688 498.0 641.0Q526 594 526 529Q526 462 491.5 398.5Q457 335 381 262L229 113H535V0Z" transform="translate(1294.450, 970.000) scale(0.026000, -0.026000)" fill="#B8B2A3"/>
<path d="M300 -10Q229 -10 177.0 17.0Q125 44 96.5 93.0Q68 142 68 208V522Q68 588 96.5 637.0Q125 686 177.0 713.0Q229 740 300 740Q372 740 423.5 713.0Q475 686 503.5 637.0Q532 588 532 522V208Q532 142 503.5 93.0Q475 44 423.0 17.0Q371 -10 300 -10ZM300 98Q352 98 383.0 128.0Q414 158 414 208V522Q414 572 383.0 602.0Q352 632 300 632Q248 632 217.0 602.0Q186 572 186 522V208Q186 158 217.0 128.0Q248 98 300 98ZM300 300Q271 300 252.5 319.0Q234 338 234 368Q234 398 252.0 416.0Q270 434 300 434Q330 434 348.0 416.0Q366 398 366 368Q366 338 348.0 319.0Q330 300 300 300Z" transform="translate(1313.950, 970.000) scale(0.026000, -0.026000)" fill="#B8B2A3"/>
<path d="M79 0V121L307 350Q355 399 378.0 438.5Q401 478 401 520Q401 571 373.0 599.5Q345 628 297 628Q244 628 214.0 597.5Q184 567 184 513H59Q60 583 89.5 633.5Q119 684 173.0 712.0Q227 740 299 740Q368 740 419.0 714.0Q470 688 498.0 641.0Q526 594 526 529Q526 462 491.5 398.5Q457 335 381 262L229 113H535V0Z" transform="translate(1333.450, 970.000) scale(0.026000, -0.026000)" fill="#B8B2A3"/>
<path d="M300 -10Q227 -10 171.5 20.5Q116 51 85.5 106.5Q55 162 55 235Q55 287 72.5 344.0Q90 401 121 451L293 730H432L216 390L222 386Q242 417 276.0 433.0Q310 449 352 449Q411 449 454.0 421.0Q497 393 521.0 343.0Q545 293 545 226Q545 155 514.5 102.0Q484 49 429.5 19.5Q375 -10 300 -10ZM300 96Q355 96 389.0 131.5Q423 167 423 224Q423 283 389.0 318.5Q355 354 300 354Q245 354 211.0 318.5Q177 283 177 224Q177 167 211.0 131.5Q245 96 300 96Z" transform="translate(1352.950, 970.000) scale(0.026000, -0.026000)" fill="#B8B2A3"/>
<path d="M429 -9Q413 -9 402 15L131 603Q128 610 123.5 609.0Q119 608 119 600V86Q119 58 128.5 43.5Q138 29 163 25L176 23Q189 22 189 11Q189 0 174 0H31Q16 0 16 11Q16 22 29 23L42 25Q68 29 78.0 43.5Q88 58 88 86V654Q88 675 81.5 682.0Q75 689 52 693L29 697Q16 700 16 709Q16 720 31 720H138Q163 720 173 698L409 179Q412 173 416.5 174.0Q421 175 421 181V634Q421 666 410.0 678.5Q399 691 382 694L364 697Q351 700 351 709Q351 720 366 720H509Q524 720 524 709Q524 698 511 697L498 695Q472 691 462.0 678.5Q452 666 452 634V23Q452 5 445.5 -2.0Q439 -9 429 -9Z" transform="translate(545.440, 630.640) scale(0.320000, -0.320000)" fill="#F5F1E8"/>
<path d="M120 -9Q78 -9 51.0 17.5Q24 44 24 88Q24 131 51.0 169.5Q78 208 125.0 239.0Q172 270 232 289Q245 293 245 306V397Q245 445 230.0 465.5Q215 486 189 486Q164 486 143.5 463.5Q123 441 114 388Q109 356 92.5 341.5Q76 327 59 327Q31 327 31 355Q31 384 47.5 412.5Q64 441 91.0 464.5Q118 488 150.0 502.0Q182 516 214 516Q313 516 313 401V95Q313 53 334 53Q347 53 358.0 70.5Q369 88 369 130Q369 146 382 146Q394 146 394 129Q394 56 368.5 23.5Q343 -9 311 -9Q287 -9 273.0 10.5Q259 30 254 57Q253 67 245.5 67.5Q238 68 231 58Q207 25 182.0 8.0Q157 -9 120 -9ZM147 37Q173 37 195.0 55.5Q217 74 231.0 105.0Q245 136 245 175V248Q245 267 224 259Q163 237 129.5 198.5Q96 160 96 106Q96 37 147 37Z" transform="translate(718.240, 630.640) scale(0.320000, -0.320000)" fill="#F5F1E8"/>
<path d="M27 0Q15 0 15 11Q15 21 26 23L40 25Q61 28 67.5 37.0Q74 46 74 67V640Q74 658 68.5 664.5Q63 671 49 673L28 676Q17 678 17 688Q17 698 28 700Q56 706 75.0 714.0Q94 722 107 730Q123 740 131 740Q142 740 142 724V305Q142 295 150.5 292.5Q159 290 167 299L284 425Q305 448 301.5 463.5Q298 479 278 483L255 487Q242 490 242 500Q242 510 256 510H428Q442 510 442 499Q442 488 429 487L420 486Q397 484 374.0 468.5Q351 453 319 420L257 354Q236 331 247 309L373 67Q384 47 397.0 38.0Q410 29 429 25L439 23Q451 20 451 11Q451 0 437 0H263Q249 0 249 11Q249 21 262 23L279 25Q317 30 295 74L200 259Q195 269 185.5 270.0Q176 271 168 263L157 252Q148 243 145.0 234.0Q142 225 142 214V67Q142 46 148.5 37.0Q155 28 176 26L203 23Q214 21 214 11Q214 0 202 0Z" transform="translate(845.920, 630.640) scale(0.320000, -0.320000)" fill="#F5F1E8"/>
<path d="M131 -9Q108 -9 82.0 -3.5Q56 2 40 10Q31 15 31 27L28 139Q28 156 41 156Q52 156 56 140Q73 69 97.5 43.0Q122 17 157 17Q186 17 205.0 39.5Q224 62 224 102Q224 142 202.0 173.0Q180 204 128 241Q76 276 52.0 311.5Q28 347 28 389Q28 446 68.0 481.0Q108 516 174 516Q194 516 213.0 511.5Q232 507 247 497Q256 491 256 481L258 371Q258 356 246 356Q239 356 236.0 360.5Q233 365 231 372Q211 437 191.0 462.5Q171 488 142 488Q116 488 99.0 470.0Q82 452 82 425Q82 390 103.0 364.0Q124 338 179 300Q229 264 254.5 222.5Q280 181 280 132Q280 68 239.0 29.5Q198 -9 131 -9Z" transform="translate(990.240, 630.640) scale(0.320000, -0.320000)" fill="#F5F1E8"/>
<path d="M27 0Q15 0 15 11Q15 21 26 23L40 25Q61 28 67.5 37.0Q74 46 74 67V640Q74 658 68.5 664.5Q63 671 49 673L28 676Q17 678 17 688Q17 698 28 700Q56 706 75.0 714.0Q94 722 107 730Q123 740 131 740Q142 740 142 724V459Q142 450 148.0 448.5Q154 447 163 455Q201 490 230.0 503.0Q259 516 291 516Q338 516 365.0 484.5Q392 453 392 392V67Q392 46 398.5 37.5Q405 29 426 26L448 23Q459 21 459 11Q459 0 447 0H279Q265 0 265 11Q265 21 276 23L290 25Q311 28 317.5 37.0Q324 46 324 67V381Q324 430 306.0 450.0Q288 470 255 470Q223 470 197.5 451.5Q172 433 157.0 402.5Q142 372 142 335V67Q142 46 148.5 37.0Q155 28 176 26L203 23Q214 21 214 11Q214 0 202 0Z" transform="translate(1088.800, 630.640) scale(0.320000, -0.320000)" fill="#F5F1E8"/>
<path d="M204 605Q185 605 172.5 618.5Q160 632 160 651Q160 678 176.5 694.0Q193 710 214 710Q234 710 247.5 697.5Q261 685 261 665Q261 637 244.0 621.0Q227 605 204 605ZM122 -10Q89 -10 75.0 14.5Q61 39 74 95L148 412Q153 434 149.5 446.5Q146 459 131 459Q113 459 91.5 432.5Q70 406 43 332Q39 319 29 319Q14 319 21 337Q43 406 67.5 445.0Q92 484 117.0 500.0Q142 516 163 516Q198 516 212.0 491.5Q226 467 213 411L139 94Q134 72 137.5 59.5Q141 47 156 47Q174 47 195.5 73.5Q217 100 244 174Q248 187 258 187Q273 187 266 169Q245 101 219.5 61.5Q194 22 169.0 6.0Q144 -10 122 -10Z" transform="translate(1226.400, 630.640) scale(0.320000, -0.320000)" fill="#F5F1E8"/>
<path d="M134 -205Q121 -205 121 -194Q121 -184 137 -182L162 -180Q182 -178 191.0 -169.0Q200 -160 205 -138L276 168Q278 175 273.5 176.0Q269 177 266 171Q232 102 201.5 63.0Q171 24 143.5 7.5Q116 -9 90 -9Q53 -9 33.0 22.0Q13 53 13 113Q13 170 29.0 227.5Q45 285 73.0 337.0Q101 389 136.5 429.0Q172 469 211.5 492.5Q251 516 290 516Q309 516 326.0 508.5Q343 501 354 485Q360 476 366 476Q372 476 378 485Q389 501 396.0 505.5Q403 510 409 510Q422 510 419 496L272 -138Q267 -160 272.5 -167.5Q278 -175 296 -178L313 -181Q331 -184 331 -193Q331 -205 314 -205ZM114 42Q138 42 167.0 71.0Q196 100 224.5 146.0Q253 192 277.0 245.0Q301 298 315.5 347.0Q330 396 330 430Q330 491 287 491Q261 491 232.0 467.5Q203 444 176.5 404.0Q150 364 128.5 313.5Q107 263 94.0 208.5Q81 154 81 102Q81 67 90.5 54.5Q100 42 114 42Z" transform="translate(1318.560, 630.640) scale(0.320000, -0.320000)" fill="#F5F1E8"/>
<circle cx="1494.56" cy="549.04" r="12" fill="#E55642"/>
</svg>
