<?xml version="1.0" encoding="UTF-8"?>
<svg xmlns="http://www.w3.org/2000/svg" viewBox="0 0 2000 1100" width="2000" height="1100">
<rect width="2000" height="1100" fill="#161614"/>
<rect x="199.68000000000006" y="307.2" width="1600.6399999999999" height="465.59999999999997" fill="none" stroke="#F5F1E8" stroke-width="3"/><rect x="213.68000000000006" y="321.2" width="1572.6399999999999" height="437.59999999999997" fill="none" stroke="#F5F1E8" stroke-width="1"/><path d="M 262.68000000000006 335.2 L 227.68000000000006 335.2 L 227.68000000000006 370.2" fill="none" stroke="#E55642" stroke-width="5" stroke-linecap="square"/><path d="M 1737.32 744.8 L 1772.32 744.8 L 1772.32 709.8" fill="none" stroke="#E55642" stroke-width="5" stroke-linecap="square"/><rect x="886.2139999999999" y="296.2" width="227.572" height="42" fill="#161614"/><path d="M50 0V720H204V0ZM122 0V118H586V0ZM122 310V426H551V310ZM122 602V720H574V602Z" transform="translate(906.214, 323.200) scale(0.022000, -0.022000)" fill="#F5F1E8"/>
<path d="M346 -9Q206 -9 122.0 53.5Q38 116 24 230H172Q179 172 228.0 138.5Q277 105 353 105Q415 105 448.5 127.0Q482 149 482 186Q482 221 462.0 242.5Q442 264 393 277L259 314Q156 343 108.5 393.5Q61 444 61 520Q61 585 94.5 632.5Q128 680 189.0 705.5Q250 731 332 731Q458 731 533.0 671.5Q608 612 618 514H470Q460 567 421.5 592.0Q383 617 323 617Q271 617 240.0 597.0Q209 577 209 543Q209 517 226.0 495.5Q243 474 297 459L431 422Q537 393 583.5 342.5Q630 292 630 215Q630 107 555.0 49.0Q480 -9 346 -9Z" transform="translate(928.786, 323.200) scale(0.022000, -0.022000)" fill="#F5F1E8"/>
<path d="M259 0V602H24V720H648V602H413V0Z" transform="translate(951.930, 323.200) scale(0.022000, -0.022000)" fill="#F5F1E8"/>
<path d="M0 290V455H165V290Z" transform="translate(988.494, 323.200) scale(0.022000, -0.022000)" fill="#F5F1E8"/>
<path d="M25 0V120Q124 201 190.5 259.5Q257 318 296.5 363.0Q336 408 353.0 445.0Q370 482 370 519Q370 563 346.5 587.5Q323 612 281 612Q237 612 208.0 585.0Q179 558 172 511H18Q29 613 101.0 671.5Q173 730 287 730Q403 730 468.0 670.5Q533 611 533 505Q533 455 516.5 409.0Q500 363 462.0 314.0Q424 265 358.5 206.5Q293 148 195 73L158 118H547V0Z" transform="translate(1013.904, 323.200) scale(0.022000, -0.022000)" fill="#F5F1E8"/>
<path d="M341 -10Q251 -10 180.5 37.5Q110 85 70.0 169.5Q30 254 30 363Q30 472 70.0 554.5Q110 637 180.5 683.5Q251 730 341 730Q432 730 502.0 683.5Q572 637 612.0 554.5Q652 472 652 363Q652 253 612.0 169.0Q572 85 501.5 37.5Q431 -10 341 -10ZM341 118Q392 118 425.0 152.0Q458 186 474.0 242.0Q490 298 490 364Q490 430 474.0 484.0Q458 538 425.0 570.0Q392 602 341 602Q290 602 257.0 569.5Q224 537 208.0 483.0Q192 429 192 364Q192 297 208.0 241.0Q224 185 257.5 151.5Q291 118 341 118Z" transform="translate(1035.090, 323.200) scale(0.022000, -0.022000)" fill="#F5F1E8"/>
<path d="M25 0V120Q124 201 190.5 259.5Q257 318 296.5 363.0Q336 408 353.0 445.0Q370 482 370 519Q370 563 346.5 587.5Q323 612 281 612Q237 612 208.0 585.0Q179 558 172 511H18Q29 613 101.0 671.5Q173 730 287 730Q403 730 468.0 670.5Q533 611 533 505Q533 455 516.5 409.0Q500 363 462.0 314.0Q424 265 358.5 206.5Q293 148 195 73L158 118H547V0Z" transform="translate(1058.894, 323.200) scale(0.022000, -0.022000)" fill="#F5F1E8"/>
<path d="M327 -10Q185 -10 107.5 82.5Q30 175 30 344Q30 463 67.5 549.5Q105 636 174.0 683.0Q243 730 336 730Q441 730 507.5 674.5Q574 619 589 521H436Q431 565 403.5 588.5Q376 612 335 612Q262 612 226.0 549.0Q190 486 190 354V289L159 298Q170 346 198.0 381.0Q226 416 268.5 435.0Q311 454 364 454Q434 454 487.0 425.5Q540 397 569.5 345.5Q599 294 599 225Q599 154 565.5 101.0Q532 48 471.0 19.0Q410 -10 327 -10ZM316 108Q367 108 401.5 137.5Q436 167 436 224Q436 281 400.5 309.5Q365 338 314 338Q262 338 226.0 309.5Q190 281 190 226Q190 189 207.5 162.5Q225 136 253.5 122.0Q282 108 316 108Z" transform="translate(1080.080, 323.200) scale(0.022000, -0.022000)" fill="#F5F1E8"/><path d="M295 291V0H60V1190H335L424 870Q436 829 449.0 778.5Q462 728 474.0 677.5Q486 627 494 588Q512 505 526.0 434.0Q540 363 554 288Q560 252 565 218Q570 183 575 150H595Q587 203 580.0 245.5Q573 288 566.0 333.0Q559 378 551 440Q544 484 537.0 539.5Q530 595 524.0 649.5Q518 704 516 746Q513 783 511.5 818.5Q510 854 510 887V1190H745V0H485L393 309Q383 341 370.0 389.0Q357 437 342.5 491.5Q328 546 316 599Q299 672 282.0 749.5Q265 827 252 902Q245 938 239.0 973.0Q233 1008 228 1040H208Q218 975 230.0 902.5Q242 830 254 749Q264 671 274.0 591.5Q284 512 290 436Q292 398 293.5 361.5Q295 325 295 291Z" transform="translate(299.680, 682.800) scale(0.240000, -0.240000)" fill="#F5F1E8"/>
<path d="M10 0 196 1190H532L718 0H483L448 273H280L245 0ZM308 493H420L380 866Q378 889 377.0 907.5Q376 926 375.0 947.5Q374 969 374 1000H354V971Q354 964 354 957Q353 949 353 942Q353 932 352.0 921.5Q351 911 351 901Q351 881 348 866Z" transform="translate(512.080, 682.800) scale(0.240000, -0.240000)" fill="#F5F1E8"/>
<path d="M295 1190V972Q295 947 292.5 920.0Q290 893 285 861Q279 829 273.0 795.0Q267 761 258 724Q253 706 249 688Q244 669 239 650H259Q262 662 267.5 685.5Q273 709 280.0 733.0Q287 757 293 774Q303 806 308.5 822.5Q314 839 320.0 855.0Q326 871 338 900Q344 915 350.0 929.5Q356 944 362 957L470 1190H705L480 724L725 0H490L333 464L295 408V0H60V1190Z" transform="translate(706.000, 682.800) scale(0.240000, -0.240000)" fill="#F5F1E8"/>
<path d="M404 833V903Q404 1000 339 1000Q309 1000 292.0 977.0Q275 954 275 911Q275 898 277.5 883.0Q280 868 290 851Q298 836 314.0 815.5Q330 795 354 772Q366 759 381 745Q395 730 413 714Q467 665 512.5 618.0Q558 571 587 535Q616 497 633.0 462.0Q650 427 658 390Q662 371 663.5 351.0Q665 331 665 309Q665 249 652.0 198.5Q639 148 612 108Q587 70 546.5 43.0Q506 16 458 4Q405 -10 344 -10Q221 -10 144 43Q68 95 43 198Q30 248 30 313V418H250V312Q250 254 274 222Q296 190 342 190Q358 190 373.0 194.5Q388 199 398 209Q407 218 415.0 231.5Q423 245 427 265Q428 274 429.0 284.5Q430 295 430 306Q430 327 427.0 342.5Q424 358 415 376Q405 394 387.5 413.0Q370 432 347 455Q334 467 318.5 481.0Q303 495 285 511Q229 561 187.5 602.5Q146 644 117 683Q88 721 71.5 756.5Q55 792 47 829Q43 847 41.5 867.0Q40 887 40 908Q40 963 51.5 1010.5Q63 1058 88 1094Q137 1164 230 1188Q276 1200 335 1200Q447 1200 519 1155Q543 1140 570.0 1108.0Q597 1076 612 1021Q624 976 624 921V833Z" transform="translate(904.000, 682.800) scale(0.240000, -0.240000)" fill="#F5F1E8"/>
<path d="M60 0V1190H295V773H470V1190H705V0H470V553H295V0Z" transform="translate(1090.000, 682.800) scale(0.240000, -0.240000)" fill="#F5F1E8"/>
<path d="M60 0V1190H295V0Z" transform="translate(1292.800, 682.800) scale(0.240000, -0.240000)" fill="#F5F1E8"/>
<path d="M30 602Q30 701 61.0 789.5Q92 878 148 954Q203 1029 279.5 1084.0Q356 1139 444 1169Q488 1184 535.5 1192.0Q583 1200 632 1200Q733 1200 822.0 1168.5Q911 1137 985 1084Q1070 1021 1123.0 943.5Q1176 866 1202 790Q1217 745 1225.0 698.0Q1233 651 1233 602Q1233 503 1206.0 421.0Q1179 339 1142 280Q1098 210 1038.5 153.0Q979 96 906 58Q833 20 750 2L759 -220H529V-1Q445 15 369.5 52.0Q294 89 232 147Q170 204 125.0 274.0Q80 344 55 429Q43 470 36.5 513.5Q30 557 30 602ZM265 598Q265 549 277.5 498.5Q290 448 314 405Q338 363 370.5 328.5Q403 294 443 269Q481 244 529 230V410H734L741 232Q783 245 824.5 271.5Q866 298 896 331Q930 369 951.0 407.5Q972 446 986 497Q992 521 995.0 546.5Q998 572 998 598Q998 658 979.0 714.5Q960 771 927 816Q892 863 847.5 897.0Q803 931 747 951Q692 970 633 970Q575 970 519.0 951.0Q463 932 417 898Q372 863 337.5 818.0Q303 773 284 715Q275 687 270.0 657.5Q265 628 265 598Z" transform="translate(1397.200, 682.800) scale(0.240000, -0.240000)" fill="#F5F1E8"/>
</svg>
