<?xml version="1.0" encoding="UTF-8"?>
<svg xmlns="http://www.w3.org/2000/svg" viewBox="0 0 2000 1100" width="2000" height="1100">
<rect width="2000" height="1100" fill="#161614"/>
<rect x="1297.84" y="368.27000000000004" width="443.36000000000007" height="289.0" fill="#E55642"/>
<path d="M72 0V730H225L428 140Q425 172 421.5 215.5Q418 259 416.0 304.5Q414 350 414 384V730H528V0H375L174 590Q176 561 179.0 520.0Q182 479 184.0 436.0Q186 393 186 357V0Z" transform="translate(286.000, 636.870) scale(0.340000, -0.340000)" fill="#F5F1E8"/>
<path d="M35 0 219 730H380L565 0H437L397 177H203L163 0ZM226 279H374L330 475Q319 524 311.0 563.5Q303 603 300 621Q297 603 289.5 563.5Q282 524 270 476Z" transform="translate(490.000, 636.870) scale(0.340000, -0.340000)" fill="#F5F1E8"/>
<path d="M76 0V730H201V435H288L425 730H561L398 380L569 0H430L286 321H201V0Z" transform="translate(694.000, 636.870) scale(0.340000, -0.340000)" fill="#F5F1E8"/>
<path d="M302 -10Q227 -10 172.0 15.0Q117 40 87.5 86.5Q58 133 57 196H182Q182 151 214.5 125.5Q247 100 303 100Q357 100 387.5 125.0Q418 150 418 194Q418 231 396.5 258.5Q375 286 335 296L251 319Q165 341 118.5 398.0Q72 455 72 536Q72 598 100.0 644.0Q128 690 179.5 715.0Q231 740 301 740Q407 740 469.0 685.5Q531 631 532 539H407Q407 582 379.0 606.5Q351 631 300 631Q251 631 224.0 608.0Q197 585 197 543Q197 505 217.5 478.5Q238 452 277 441L364 417Q451 395 497.0 338.5Q543 282 543 199Q543 137 513.0 89.5Q483 42 429.0 16.0Q375 -10 302 -10Z" transform="translate(898.000, 636.870) scale(0.340000, -0.340000)" fill="#F5F1E8"/>
<path d="M77 0V730H202V437H398V730H523V0H398V321H202V0Z" transform="translate(1102.000, 636.870) scale(0.340000, -0.340000)" fill="#F5F1E8"/>
<path d="M90 0V110H237V620H90V730H510V620H363V110H510V0Z" transform="translate(1306.000, 636.870) scale(0.340000, -0.340000)" fill="#161614"/>
<path d="M409 -180 299 1 321 -9Q317 -9 311.5 -9.5Q306 -10 300 -10Q230 -10 178.0 17.0Q126 44 97.0 93.5Q68 143 68 208V522Q68 589 97.0 637.5Q126 686 178.0 713.0Q230 740 300 740Q370 740 422.0 713.0Q474 686 503.0 637.0Q532 588 532 522V208Q532 142 503.5 92.5Q475 43 423 17L544 -180ZM300 100Q352 100 379.5 128.5Q407 157 407 208V522Q407 574 378.5 602.5Q350 631 300 631Q250 631 221.5 602.5Q193 574 193 522V208Q193 157 221.0 128.5Q249 100 300 100Z" transform="translate(1510.000, 636.870) scale(0.340000, -0.340000)" fill="#161614"/>
</svg>
