<?xml version="1.0" encoding="UTF-8"?>
<svg xmlns="http://www.w3.org/2000/svg" viewBox="0 0 2000 1100" width="2000" height="1100">
<rect width="2000" height="1100" fill="#161614"/>
<path d="M168 0 384 340 378 344Q358 313 324.0 297.0Q290 281 248 281Q190 281 146.5 309.0Q103 337 79.0 387.0Q55 437 55 504Q55 576 85.5 628.5Q116 681 171.0 710.5Q226 740 299 740Q374 740 429.0 709.5Q484 679 514.5 624.0Q545 569 545 495Q545 444 528.0 386.5Q511 329 479 279L307 0ZM300 376Q355 376 389.0 411.5Q423 447 423 506Q423 563 389.0 598.5Q355 634 300 634Q245 634 211.0 598.5Q177 563 177 506Q177 447 211.0 411.5Q245 376 300 376Z" transform="translate(286.222, 684.320) scale(0.460000, -0.460000)" fill="#E55642"/>
<path d="M300 -10Q257 -10 231.5 15.0Q206 40 206 83Q206 126 231.5 151.5Q257 177 300 177Q343 177 368.5 151.5Q394 126 394 83Q394 40 368.5 15.0Q343 -10 300 -10Z" transform="translate(562.222, 684.320) scale(0.460000, -0.460000)" fill="#E55642"/>
<path d="M79 0V121L307 350Q355 399 378.0 438.5Q401 478 401 520Q401 571 373.0 599.5Q345 628 297 628Q244 628 214.0 597.5Q184 567 184 513H59Q60 583 89.5 633.5Q119 684 173.0 712.0Q227 740 299 740Q368 740 419.0 714.0Q470 688 498.0 641.0Q526 594 526 529Q526 462 491.5 398.5Q457 335 381 262L229 113H535V0Z" transform="translate(838.222, 684.320) scale(0.460000, -0.460000)" fill="#E55642"/>
<path d="M50 0V720H249L569 84L520 72V720H670V0H471L151 636L200 648V0Z" transform="translate(1234.222, 423.160) scale(0.062000, -0.062000)" fill="#F5F1E8"/>
<path d="M24 0 282 720H414L177 0ZM552 0 316 720H454L712 0ZM160 279H564V159H160Z" transform="translate(1297.462, 423.160) scale(0.062000, -0.062000)" fill="#F5F1E8"/>
<path d="M50 0V720H204V0ZM155 374 479 720H684L342 374ZM495 0 153 374H342L704 0Z" transform="translate(1361.694, 423.160) scale(0.062000, -0.062000)" fill="#F5F1E8"/>
<path d="M346 -9Q206 -9 122.0 53.5Q38 116 24 230H172Q179 172 228.0 138.5Q277 105 353 105Q415 105 448.5 127.0Q482 149 482 186Q482 221 462.0 242.5Q442 264 393 277L259 314Q156 343 108.5 393.5Q61 444 61 520Q61 585 94.5 632.5Q128 680 189.0 705.5Q250 731 332 731Q458 731 533.0 671.5Q608 612 618 514H470Q460 567 421.5 592.0Q383 617 323 617Q271 617 240.0 597.0Q209 577 209 543Q209 517 226.0 495.5Q243 474 297 459L431 422Q537 393 583.5 342.5Q630 292 630 215Q630 107 555.0 49.0Q480 -9 346 -9Z" transform="translate(1425.058, 423.160) scale(0.062000, -0.062000)" fill="#F5F1E8"/>
<path d="M50 0V720H204V0ZM516 0V720H670V0ZM122 434H586V316H122Z" transform="translate(1484.082, 423.160) scale(0.062000, -0.062000)" fill="#F5F1E8"/>
<path d="M50 0V720H204V0Z" transform="translate(1547.322, 423.160) scale(0.062000, -0.062000)" fill="#F5F1E8"/>
<path d="M399 -10Q292 -10 208.5 37.0Q125 84 77.5 168.0Q30 252 30 363Q30 473 77.0 555.5Q124 638 207.5 684.0Q291 730 398 730Q507 730 590.0 684.0Q673 638 720.5 555.0Q768 472 768 362Q768 292 745.5 230.0Q723 168 673.5 123.0Q624 78 543 56ZM398 106Q461 106 509.0 137.0Q557 168 584.5 226.0Q612 284 612 364Q612 438 585.0 493.0Q558 548 510.0 578.0Q462 608 398 608Q335 608 287.0 578.0Q239 548 212.5 493.5Q186 439 186 364Q186 283 213.0 225.5Q240 168 288.0 137.0Q336 106 398 106ZM399 -10V98L805 118V0Q741 0 690.5 -1.5Q640 -3 595.0 -5.0Q550 -7 503.0 -8.5Q456 -10 399 -10Z" transform="translate(1581.670, 423.160) scale(0.062000, -0.062000)" fill="#F5F1E8"/>
<path d="M65 0Q51 0 51 10Q51 20 67 23L109 30Q129 33 139.0 40.5Q149 48 153 69L292 669Q295 683 289.5 689.0Q284 695 265 695Q231 695 190.5 667.5Q150 640 118 565L102 527Q97 514 85 514Q71 514 76 531L126 712Q132 735 148 735Q157 735 162.5 731.5Q168 728 181.0 724.0Q194 720 226 720H449Q481 720 496.5 724.0Q512 728 519.5 731.5Q527 735 533 735Q550 735 545 712L513 531Q510 514 496 514Q483 514 485 527L487 552Q493 626 468.0 660.5Q443 695 398 695Q379 695 371.5 689.0Q364 683 361 669L222 69Q217 48 223.5 40.5Q230 33 249 30L296 23Q307 22 307 12Q307 0 291 0Z" transform="translate(1234.222, 503.160) scale(0.042000, -0.042000)" fill="#B8B2A3"/>
<path d="M322 -9Q286 -9 268.0 21.0Q250 51 266 114L343 404Q354 443 346.5 458.0Q339 473 325 473Q303 473 275.5 445.5Q248 418 218.5 370.5Q189 323 161.5 263.5Q134 204 111.0 138.5Q88 73 74 11Q71 0 60 0H18Q4 0 7 13L153 640Q158 658 153.5 665.0Q149 672 135 673L105 676Q90 677 92 689Q94 698 106 700Q142 706 170.0 714.5Q198 723 215 737Q223 743 230 743Q242 743 239 728L141 303Q140 296 144.0 295.0Q148 294 151 300Q191 382 227.0 429.0Q263 476 294.5 496.0Q326 516 352 516Q389 516 406.0 486.0Q423 456 406 394L330 104Q323 76 329.0 62.0Q335 48 351 48Q371 48 390.0 74.5Q409 101 431 175Q434 186 444 186Q452 186 453.5 180.0Q455 174 453 166Q434 98 412.0 59.5Q390 21 367.5 6.0Q345 -9 322 -9Z" transform="translate(1253.584, 503.160) scale(0.042000, -0.042000)" fill="#B8B2A3"/>
<path d="M129 -9Q76 -9 44.0 32.5Q12 74 12 150Q12 216 35.5 281.0Q59 346 97.0 399.0Q135 452 180.5 484.0Q226 516 269 516Q316 516 336.5 493.5Q357 471 357 433Q357 388 325.5 343.5Q294 299 237.5 264.0Q181 229 105 212Q83 207 82 187Q81 180 81.0 172.5Q81 165 81 158Q81 101 100.5 72.0Q120 43 154 43Q192 43 227.5 78.0Q263 113 287 177Q290 186 299 186Q305 186 306.5 181.0Q308 176 306 169Q274 81 228.5 36.0Q183 -9 129 -9ZM92 250Q90 243 94.5 238.5Q99 234 106 236Q168 253 210.0 287.5Q252 322 273.5 365.0Q295 408 295 449Q295 491 262 491Q233 491 199.0 457.0Q165 423 136.0 368.0Q107 313 92 250Z" transform="translate(1273.576, 503.160) scale(0.042000, -0.042000)" fill="#B8B2A3"/>
<path d="M204 605Q185 605 172.5 618.5Q160 632 160 651Q160 678 176.5 694.0Q193 710 214 710Q234 710 247.5 697.5Q261 685 261 665Q261 637 244.0 621.0Q227 605 204 605ZM122 -10Q89 -10 75.0 14.5Q61 39 74 95L148 412Q153 434 149.5 446.5Q146 459 131 459Q113 459 91.5 432.5Q70 406 43 332Q39 319 29 319Q14 319 21 337Q43 406 67.5 445.0Q92 484 117.0 500.0Q142 516 163 516Q198 516 212.0 491.5Q226 467 213 411L139 94Q134 72 137.5 59.5Q141 47 156 47Q174 47 195.5 73.5Q217 100 244 174Q248 187 258 187Q273 187 266 169Q245 101 219.5 61.5Q194 22 169.0 6.0Q144 -10 122 -10Z" transform="translate(1295.332, 503.160) scale(0.042000, -0.042000)" fill="#B8B2A3"/>
<path d="M53 13 148 412Q153 434 149.5 446.5Q146 459 131 459Q113 459 91.5 432.5Q70 406 43 332Q39 319 29 319Q14 319 21 337Q43 406 67.5 445.0Q92 484 117.0 500.0Q142 516 163 516Q196 516 210.0 491.5Q224 467 211 411L186 303Q185 296 189.0 295.0Q193 294 196 300Q235 381 271.0 428.5Q307 476 339.0 496.0Q371 516 397 516Q434 516 451.0 486.0Q468 456 451 394L375 104Q368 76 374.0 62.0Q380 48 396 48Q416 48 435.5 74.5Q455 101 476 175Q479 186 489 186Q497 186 498.5 180.0Q500 174 498 166Q479 98 457.0 59.5Q435 21 412.5 6.0Q390 -9 367 -9Q331 -9 313.0 21.0Q295 51 311 114L388 404Q399 443 391.5 458.0Q384 473 370 473Q348 473 320.0 445.5Q292 418 263.0 370.5Q234 323 206.0 263.0Q178 203 155.5 138.0Q133 73 119 11Q116 0 105 0H64Q50 0 53 13Z" transform="translate(1307.428, 503.160) scale(0.042000, -0.042000)" fill="#B8B2A3"/>
<path d="M102 -9Q68 -9 49.0 18.0Q30 45 43 105L126 467Q129 482 114 482H76Q62 482 62 495Q62 502 67.0 506.0Q72 510 79 510H115Q138 510 142 531L166 638Q169 649 180 649H221Q235 649 232 636L207 525Q204 510 219 510H276Q293 510 293 497Q293 482 272 482H218Q196 482 191 461L107 95Q102 73 108.5 60.5Q115 48 131 48Q154 48 173.5 74.0Q193 100 215 173Q219 186 228 186Q235 186 237.0 180.0Q239 174 234 158Q215 90 192.5 54.0Q170 18 147.0 4.5Q124 -9 102 -9Z" transform="translate(1329.310, 503.160) scale(0.042000, -0.042000)" fill="#B8B2A3"/>
<path d="M129 -9Q76 -9 44.0 32.5Q12 74 12 150Q12 216 35.5 281.0Q59 346 97.0 399.0Q135 452 180.5 484.0Q226 516 269 516Q316 516 336.5 493.5Q357 471 357 433Q357 388 325.5 343.5Q294 299 237.5 264.0Q181 229 105 212Q83 207 82 187Q81 180 81.0 172.5Q81 165 81 158Q81 101 100.5 72.0Q120 43 154 43Q192 43 227.5 78.0Q263 113 287 177Q290 186 299 186Q305 186 306.5 181.0Q308 176 306 169Q274 81 228.5 36.0Q183 -9 129 -9ZM92 250Q90 243 94.5 238.5Q99 234 106 236Q168 253 210.0 287.5Q252 322 273.5 365.0Q295 408 295 449Q295 491 262 491Q233 491 199.0 457.0Q165 423 136.0 368.0Q107 313 92 250Z" transform="translate(1340.734, 503.160) scale(0.042000, -0.042000)" fill="#B8B2A3"/>
<path d="M74 -10Q41 -10 27.0 14.5Q13 39 26 95L153 640Q158 658 153.5 665.0Q149 672 135 673L105 676Q90 677 92 689Q94 698 106 700Q142 706 170.0 714.5Q198 723 215 737Q223 743 230 743Q242 743 239 728L91 94Q86 72 89.5 59.5Q93 47 108 47Q126 47 147.5 73.5Q169 100 196 174Q200 187 210 187Q225 187 218 169Q197 101 171.5 61.5Q146 22 121.0 6.0Q96 -10 74 -10Z" transform="translate(1355.350, 503.160) scale(0.042000, -0.042000)" fill="#B8B2A3"/>
<path d="M74 -10Q41 -10 27.0 14.5Q13 39 26 95L153 640Q158 658 153.5 665.0Q149 672 135 673L105 676Q90 677 92 689Q94 698 106 700Q142 706 170.0 714.5Q198 723 215 737Q223 743 230 743Q242 743 239 728L91 94Q86 72 89.5 59.5Q93 47 108 47Q126 47 147.5 73.5Q169 100 196 174Q200 187 210 187Q225 187 218 169Q197 101 171.5 61.5Q146 22 121.0 6.0Q96 -10 74 -10Z" transform="translate(1365.430, 503.160) scale(0.042000, -0.042000)" fill="#B8B2A3"/>
<path d="M204 605Q185 605 172.5 618.5Q160 632 160 651Q160 678 176.5 694.0Q193 710 214 710Q234 710 247.5 697.5Q261 685 261 665Q261 637 244.0 621.0Q227 605 204 605ZM122 -10Q89 -10 75.0 14.5Q61 39 74 95L148 412Q153 434 149.5 446.5Q146 459 131 459Q113 459 91.5 432.5Q70 406 43 332Q39 319 29 319Q14 319 21 337Q43 406 67.5 445.0Q92 484 117.0 500.0Q142 516 163 516Q198 516 212.0 491.5Q226 467 213 411L139 94Q134 72 137.5 59.5Q141 47 156 47Q174 47 195.5 73.5Q217 100 244 174Q248 187 258 187Q273 187 266 169Q245 101 219.5 61.5Q194 22 169.0 6.0Q144 -10 122 -10Z" transform="translate(1375.510, 503.160) scale(0.042000, -0.042000)" fill="#B8B2A3"/>
<path d="M93 -216Q14 -216 -27.0 -187.0Q-68 -158 -68 -118Q-68 -83 -40.5 -49.5Q-13 -16 61 27Q72 33 73.5 40.5Q75 48 64 55Q36 73 30.5 97.0Q25 121 43 131L119 175Q129 180 129.5 187.5Q130 195 119 201Q92 217 78.5 246.5Q65 276 65 311Q65 365 91.5 411.5Q118 458 162.5 487.0Q207 516 262 516Q285 516 301 510Q313 506 319 518Q336 555 362.5 576.5Q389 598 418 598Q439 598 450.5 587.0Q462 576 462 557Q462 538 451.0 526.0Q440 514 423 514Q410 514 403.5 519.0Q397 524 392.0 529.0Q387 534 376 534Q354 534 341 509Q337 500 339.0 492.5Q341 485 347 477Q373 443 373 391Q373 344 352.5 301.5Q332 259 296.5 229.5Q261 200 215 190Q197 186 182.5 180.5Q168 175 146 161L106 137Q91 128 98.0 114.5Q105 101 137 89L223 57Q279 37 300.5 8.0Q322 -21 322 -60Q322 -108 290.5 -143.0Q259 -178 207.0 -197.0Q155 -216 93 -216ZM132 293Q132 247 145.5 226.5Q159 206 184 206Q216 206 243.5 235.5Q271 265 288.0 311.5Q305 358 305 408Q305 458 292.0 476.5Q279 495 253 495Q222 495 194.0 465.5Q166 436 149.0 390.0Q132 344 132 293ZM104 -191Q143 -191 177.0 -178.0Q211 -165 232.5 -141.0Q254 -117 254 -84Q254 -51 237.5 -29.5Q221 -8 173 10L154 17Q136 24 118.0 22.0Q100 20 84 12Q30 -18 11.0 -44.0Q-8 -70 -8 -101Q-8 -138 19.0 -164.5Q46 -191 104 -191Z" transform="translate(1387.606, 503.160) scale(0.042000, -0.042000)" fill="#B8B2A3"/>
<path d="M129 -9Q76 -9 44.0 32.5Q12 74 12 150Q12 216 35.5 281.0Q59 346 97.0 399.0Q135 452 180.5 484.0Q226 516 269 516Q316 516 336.5 493.5Q357 471 357 433Q357 388 325.5 343.5Q294 299 237.5 264.0Q181 229 105 212Q83 207 82 187Q81 180 81.0 172.5Q81 165 81 158Q81 101 100.5 72.0Q120 43 154 43Q192 43 227.5 78.0Q263 113 287 177Q290 186 299 186Q305 186 306.5 181.0Q308 176 306 169Q274 81 228.5 36.0Q183 -9 129 -9ZM92 250Q90 243 94.5 238.5Q99 234 106 236Q168 253 210.0 287.5Q252 322 273.5 365.0Q295 408 295 449Q295 491 262 491Q233 491 199.0 457.0Q165 423 136.0 368.0Q107 313 92 250Z" transform="translate(1404.448, 503.160) scale(0.042000, -0.042000)" fill="#B8B2A3"/>
<path d="M53 13 148 412Q153 434 149.5 446.5Q146 459 131 459Q113 459 91.5 432.5Q70 406 43 332Q39 319 29 319Q14 319 21 337Q43 406 67.5 445.0Q92 484 117.0 500.0Q142 516 163 516Q196 516 210.0 491.5Q224 467 211 411L186 303Q185 296 189.0 295.0Q193 294 196 300Q235 381 271.0 428.5Q307 476 339.0 496.0Q371 516 397 516Q434 516 451.0 486.0Q468 456 451 394L375 104Q368 76 374.0 62.0Q380 48 396 48Q416 48 435.5 74.5Q455 101 476 175Q479 186 489 186Q497 186 498.5 180.0Q500 174 498 166Q479 98 457.0 59.5Q435 21 412.5 6.0Q390 -9 367 -9Q331 -9 313.0 21.0Q295 51 311 114L388 404Q399 443 391.5 458.0Q384 473 370 473Q348 473 320.0 445.5Q292 418 263.0 370.5Q234 323 206.0 263.0Q178 203 155.5 138.0Q133 73 119 11Q116 0 105 0H64Q50 0 53 13Z" transform="translate(1419.064, 503.160) scale(0.042000, -0.042000)" fill="#B8B2A3"/>
<path d="M102 -9Q68 -9 49.0 18.0Q30 45 43 105L126 467Q129 482 114 482H76Q62 482 62 495Q62 502 67.0 506.0Q72 510 79 510H115Q138 510 142 531L166 638Q169 649 180 649H221Q235 649 232 636L207 525Q204 510 219 510H276Q293 510 293 497Q293 482 272 482H218Q196 482 191 461L107 95Q102 73 108.5 60.5Q115 48 131 48Q154 48 173.5 74.0Q193 100 215 173Q219 186 228 186Q235 186 237.0 180.0Q239 174 234 158Q215 90 192.5 54.0Q170 18 147.0 4.5Q124 -9 102 -9Z" transform="translate(1440.946, 503.160) scale(0.042000, -0.042000)" fill="#B8B2A3"/>
<path d="M591 -9Q555 -9 537.0 21.0Q519 51 535 114L612 404Q623 443 615.5 458.0Q608 473 594 473Q574 473 548.0 445.5Q522 418 493.5 371.0Q465 324 438.0 264.0Q411 204 388.0 139.0Q365 74 350 11Q347 0 336 0H297Q283 0 286 13L378 404Q387 443 380.5 458.0Q374 473 360 473Q341 473 315.0 445.5Q289 418 261.0 371.0Q233 324 206.0 264.0Q179 204 156.0 139.0Q133 74 119 11Q116 0 105 0H64Q50 0 53 13L148 412Q153 434 149.5 446.5Q146 459 131 459Q113 459 91.5 432.5Q70 406 43 332Q39 319 29 319Q14 319 21 337Q43 406 67.5 445.0Q92 484 117.0 500.0Q142 516 163 516Q196 516 210.0 491.5Q224 467 211 411L186 303Q185 296 189.0 295.0Q193 294 196 300Q254 420 301.0 468.0Q348 516 387 516Q424 516 439.5 486.0Q455 456 441 394L420 303Q419 296 423.0 295.0Q427 294 430 300Q468 381 501.5 428.5Q535 476 565.0 496.0Q595 516 621 516Q658 516 675.0 486.0Q692 456 675 394L599 104Q592 76 598.0 62.0Q604 48 620 48Q640 48 659.5 74.5Q679 101 700 175Q703 186 713 186Q721 186 722.5 180.0Q724 174 722 166Q703 98 681.0 59.5Q659 21 636.5 6.0Q614 -9 591 -9Z" transform="translate(1459.510, 503.160) scale(0.042000, -0.042000)" fill="#B8B2A3"/>
<path d="M89 -9Q53 -9 33.0 22.0Q13 53 13 113Q13 170 29.0 227.5Q45 285 73.0 337.0Q101 389 136.5 429.0Q172 469 211.5 492.5Q251 516 290 516Q309 516 326.0 508.5Q343 501 354 485Q360 476 366 476Q372 476 378 485Q389 501 396.0 505.5Q403 510 409 510Q422 510 419 496L330 113Q315 48 350 48Q373 48 391.5 79.0Q410 110 429 175Q432 186 442 186Q449 186 451.0 180.0Q453 174 451 166Q432 72 400.0 31.5Q368 -9 323 -9Q284 -9 267.5 24.0Q251 57 264 114L277 169Q279 176 274.5 177.0Q270 178 267 172Q212 71 169.5 31.0Q127 -9 89 -9ZM114 42Q138 42 167.0 71.0Q196 100 224.5 146.0Q253 192 277.0 245.0Q301 298 315.5 347.0Q330 396 330 430Q330 491 287 491Q261 491 232.0 467.5Q203 444 176.5 404.0Q150 364 128.5 313.5Q107 263 94.0 208.5Q81 154 81 102Q81 67 89.5 54.5Q98 42 114 42Z" transform="translate(1490.800, 503.160) scale(0.042000, -0.042000)" fill="#B8B2A3"/>
<path d="M-76 -205Q-89 -205 -89 -194Q-89 -184 -73 -182L-59 -180Q-39 -177 -29.5 -168.5Q-20 -160 -15 -138L118 436Q120 444 115.5 448.5Q111 453 103 448Q93 443 84.0 437.5Q75 432 66 426Q57 420 51.0 422.5Q45 425 45 432Q45 439 55 446Q83 465 113 479Q130 487 134 505L147 562Q152 583 173 583H191Q203 583 209.0 576.0Q215 569 212 556L205 527Q202 510 218 513Q241 516 262 516Q336 516 383.0 474.0Q430 432 430 345Q430 277 405.0 213.5Q380 150 339.0 100.0Q298 50 249.0 20.5Q200 -9 151 -9Q124 -9 100 2Q85 9 82 -6L52 -138Q47 -160 52.5 -167.0Q58 -174 77 -177L103 -181Q121 -184 121 -193Q121 -205 104 -205ZM110 115Q92 16 153 16Q188 16 224.0 45.5Q260 75 291.0 124.5Q322 174 341.0 236.0Q360 298 360 363Q360 430 331.0 459.5Q302 489 246 489Q196 489 189 455Z" transform="translate(1510.708, 503.160) scale(0.042000, -0.042000)" fill="#B8B2A3"/>
<path d="M32 0Q19 0 22 13L123 445Q132 482 99 482H78Q62 482 62 496Q62 510 80 510Q111 510 126.5 518.0Q142 526 147 550Q160 607 185.5 651.5Q211 696 247.0 722.0Q283 748 326 748Q361 748 382.5 731.5Q404 715 404 686Q404 664 392.5 650.5Q381 637 364 637Q343 637 336.5 649.0Q330 661 328.5 677.0Q327 693 322.0 705.0Q317 717 299 717Q276 717 258.5 694.5Q241 672 227 610L207 523Q204 510 218 510H298Q317 510 313 496Q310 482 295 482H208Q198 482 195 472L88 11Q85 0 74 0Z" transform="translate(1234.222, 558.160) scale(0.042000, -0.042000)" fill="#B8B2A3"/>
<path d="M154 -9Q92 -9 56.0 42.5Q20 94 20 182Q20 247 41.0 307.0Q62 367 96.5 414.0Q131 461 173.5 488.5Q216 516 259 516Q321 516 357.0 465.0Q393 414 393 325Q393 260 372.0 200.0Q351 140 316.5 93.0Q282 46 239.5 18.5Q197 -9 154 -9ZM152 15Q184 15 214.5 46.0Q245 77 270.0 128.0Q295 179 310.0 241.5Q325 304 325 367Q325 492 260 492Q229 492 198.0 461.5Q167 431 142.5 380.0Q118 329 103.0 266.5Q88 204 88 141Q88 15 152 15Z" transform="translate(1245.688, 558.160) scale(0.042000, -0.042000)" fill="#B8B2A3"/>
<path d="M64 0Q50 0 53 13L148 412Q153 434 149.5 446.5Q146 459 131 459Q113 459 91.5 432.5Q70 406 43 332Q39 319 29 319Q14 319 21 337Q43 406 67.5 445.0Q92 484 117.0 500.0Q142 516 163 516Q196 516 210.0 491.5Q224 467 211 411L200 364Q199 357 203.0 356.0Q207 355 210 361Q248 448 279.0 482.0Q310 516 350 516Q377 516 390.5 501.5Q404 487 404 462Q404 437 392.0 422.0Q380 407 361 407Q345 407 338.0 415.0Q331 423 327.5 433.5Q324 444 320.0 452.0Q316 460 307 460Q292 460 268.0 422.0Q244 384 216.5 319.5Q189 255 163.5 175.0Q138 95 119 11Q116 0 105 0Z" transform="translate(1263.076, 558.160) scale(0.042000, -0.042000)" fill="#B8B2A3"/>
<path d="M-22 0Q-36 0 -36 10Q-36 21 -16 24L4 27Q26 30 34.5 37.5Q43 45 47 66L183 654Q188 675 183.0 682.0Q178 689 158 693L138 697Q125 700 125 708Q125 720 143 720H321Q335 720 335 710Q335 699 315 696L295 693Q273 690 265.0 682.5Q257 675 252 654L116 66Q112 45 116.5 38.0Q121 31 141 27L161 23Q174 20 174 12Q174 0 156 0Z" transform="translate(1285.672, 558.160) scale(0.042000, -0.042000)" fill="#B8B2A3"/>
<path d="M53 13 148 412Q153 434 149.5 446.5Q146 459 131 459Q113 459 91.5 432.5Q70 406 43 332Q39 319 29 319Q14 319 21 337Q43 406 67.5 445.0Q92 484 117.0 500.0Q142 516 163 516Q196 516 210.0 491.5Q224 467 211 411L186 303Q185 296 189.0 295.0Q193 294 196 300Q235 381 271.0 428.5Q307 476 339.0 496.0Q371 516 397 516Q434 516 451.0 486.0Q468 456 451 394L375 104Q368 76 374.0 62.0Q380 48 396 48Q416 48 435.5 74.5Q455 101 476 175Q479 186 489 186Q497 186 498.5 180.0Q500 174 498 166Q479 98 457.0 59.5Q435 21 412.5 6.0Q390 -9 367 -9Q331 -9 313.0 21.0Q295 51 311 114L388 404Q399 443 391.5 458.0Q384 473 370 473Q348 473 320.0 445.5Q292 418 263.0 370.5Q234 323 206.0 263.0Q178 203 155.5 138.0Q133 73 119 11Q116 0 105 0H64Q50 0 53 13Z" transform="translate(1296.172, 558.160) scale(0.042000, -0.042000)" fill="#B8B2A3"/>
<path d="M90 -9Q53 -9 33.0 22.0Q13 53 13 113Q13 170 29.0 227.5Q45 285 73.0 337.0Q101 389 136.5 429.0Q172 469 211.5 492.5Q251 516 290 516Q317 516 337 502Q351 493 354 508L386 640Q391 658 386.5 665.0Q382 672 368 673L338 676Q323 677 325 689Q327 698 339 700Q375 706 403.0 714.5Q431 723 448 737Q456 743 463 743Q475 743 472 728L330 113Q315 48 350 48Q373 48 391.5 79.0Q410 110 429 175Q432 186 442 186Q449 186 451.0 180.0Q453 174 451 166Q432 72 398.5 31.5Q365 -9 320 -9Q281 -9 264.5 24.0Q248 57 261 114L272 160Q274 167 269.5 168.0Q265 169 262 163Q214 69 171.0 30.0Q128 -9 90 -9ZM114 42Q138 42 167.0 71.0Q196 100 224.5 146.0Q253 192 277.0 245.0Q301 298 315.5 347.0Q330 396 330 430Q330 491 287 491Q261 491 232.0 467.5Q203 444 176.5 404.0Q150 364 128.5 313.5Q107 263 94.0 208.5Q81 154 81 102Q81 67 90.5 54.5Q100 42 114 42Z" transform="translate(1318.054, 558.160) scale(0.042000, -0.042000)" fill="#B8B2A3"/>
<path d="M204 605Q185 605 172.5 618.5Q160 632 160 651Q160 678 176.5 694.0Q193 710 214 710Q234 710 247.5 697.5Q261 685 261 665Q261 637 244.0 621.0Q227 605 204 605ZM122 -10Q89 -10 75.0 14.5Q61 39 74 95L148 412Q153 434 149.5 446.5Q146 459 131 459Q113 459 91.5 432.5Q70 406 43 332Q39 319 29 319Q14 319 21 337Q43 406 67.5 445.0Q92 484 117.0 500.0Q142 516 163 516Q198 516 212.0 491.5Q226 467 213 411L139 94Q134 72 137.5 59.5Q141 47 156 47Q174 47 195.5 73.5Q217 100 244 174Q248 187 258 187Q273 187 266 169Q245 101 219.5 61.5Q194 22 169.0 6.0Q144 -10 122 -10Z" transform="translate(1337.962, 558.160) scale(0.042000, -0.042000)" fill="#B8B2A3"/>
<path d="M89 -9Q53 -9 33.0 22.0Q13 53 13 113Q13 170 29.0 227.5Q45 285 73.0 337.0Q101 389 136.5 429.0Q172 469 211.5 492.5Q251 516 290 516Q309 516 326.0 508.5Q343 501 354 485Q360 476 366 476Q372 476 378 485Q389 501 396.0 505.5Q403 510 409 510Q422 510 419 496L330 113Q315 48 350 48Q373 48 391.5 79.0Q410 110 429 175Q432 186 442 186Q449 186 451.0 180.0Q453 174 451 166Q432 72 400.0 31.5Q368 -9 323 -9Q284 -9 267.5 24.0Q251 57 264 114L277 169Q279 176 274.5 177.0Q270 178 267 172Q212 71 169.5 31.0Q127 -9 89 -9ZM114 42Q138 42 167.0 71.0Q196 100 224.5 146.0Q253 192 277.0 245.0Q301 298 315.5 347.0Q330 396 330 430Q330 491 287 491Q261 491 232.0 467.5Q203 444 176.5 404.0Q150 364 128.5 313.5Q107 263 94.0 208.5Q81 154 81 102Q81 67 89.5 54.5Q98 42 114 42Z" transform="translate(1350.058, 558.160) scale(0.042000, -0.042000)" fill="#B8B2A3"/>
<path d="M62 -9Q41 -9 28.0 4.5Q15 18 15 38Q15 64 33.0 80.0Q51 96 71 96Q91 96 104.5 82.5Q118 69 118 49Q118 23 100.0 7.0Q82 -9 62 -9Z" transform="translate(1369.966, 558.160) scale(0.042000, -0.042000)" fill="#B8B2A3"/>
<line x1="1234.222" y1="608.1600000000001" x2="1545.9334" y2="608.1600000000001" stroke="#6B6862" stroke-width="1"/>
<path d="M346 -9Q206 -9 122.0 53.5Q38 116 24 230H172Q179 172 228.0 138.5Q277 105 353 105Q415 105 448.5 127.0Q482 149 482 186Q482 221 462.0 242.5Q442 264 393 277L259 314Q156 343 108.5 393.5Q61 444 61 520Q61 585 94.5 632.5Q128 680 189.0 705.5Q250 731 332 731Q458 731 533.0 671.5Q608 612 618 514H470Q460 567 421.5 592.0Q383 617 323 617Q271 617 240.0 597.0Q209 577 209 543Q209 517 226.0 495.5Q243 474 297 459L431 422Q537 393 583.5 342.5Q630 292 630 215Q630 107 555.0 49.0Q480 -9 346 -9Z" transform="translate(1234.222, 643.160) scale(0.022000, -0.022000)" fill="#6B6862"/>
<path d="M50 0V720H392Q472 720 529.5 692.0Q587 664 618.5 614.0Q650 564 650 497Q650 430 618.0 379.0Q586 328 528.5 299.5Q471 271 392 271H172V389H384Q437 389 466.5 418.5Q496 448 496 496Q496 544 466.5 573.0Q437 602 384 602H204V0Z" transform="translate(1256.266, 643.160) scale(0.022000, -0.022000)" fill="#6B6862"/>
<path d="M50 0V720H204V0Z" transform="translate(1278.750, 643.160) scale(0.022000, -0.022000)" fill="#6B6862"/>
<path d="M259 0V602H24V720H648V602H413V0Z" transform="translate(1292.038, 643.160) scale(0.022000, -0.022000)" fill="#6B6862"/>
<path d="M50 0V720H204V0Z" transform="translate(1314.522, 643.160) scale(0.022000, -0.022000)" fill="#6B6862"/>
<path d="M282 0 24 720H184L381 120H362L560 720H712L454 0Z" transform="translate(1339.690, 643.160) scale(0.022000, -0.022000)" fill="#6B6862"/>
<path d="M24 0 282 720H414L177 0ZM552 0 316 720H454L712 0ZM160 279H564V159H160Z" transform="translate(1363.582, 643.160) scale(0.022000, -0.022000)" fill="#6B6862"/>
<path d="M50 0V720H204V0ZM122 0V118H550V0Z" transform="translate(1387.474, 643.160) scale(0.022000, -0.022000)" fill="#6B6862"/>
<path d="M50 0V720H204V0ZM122 0V118H550V0Z" transform="translate(1408.154, 643.160) scale(0.022000, -0.022000)" fill="#6B6862"/>
<path d="M50 0V720H204V0ZM122 0V118H586V0ZM122 310V426H551V310ZM122 602V720H574V602Z" transform="translate(1428.834, 643.160) scale(0.022000, -0.022000)" fill="#6B6862"/>
<path d="M279 0V291L11 720H196L408 339H321L532 720H701L433 291V0Z" transform="translate(1450.306, 643.160) scale(0.022000, -0.022000)" fill="#6B6862"/>
<path d="M0 290V455H165V290Z" transform="translate(1497.430, 643.160) scale(0.022000, -0.022000)" fill="#6B6862"/>
<path d="M50 0V720H290L490 26H403L603 720H844V0H692V677H718L523 0H364L171 671H196V0Z" transform="translate(1532.520, 643.160) scale(0.022000, -0.022000)" fill="#6B6862"/>
<path d="M24 0 282 720H414L177 0ZM552 0 316 720H454L712 0ZM160 279H564V159H160Z" transform="translate(1559.888, 643.160) scale(0.022000, -0.022000)" fill="#6B6862"/>
<path d="M279 0V291L11 720H196L408 339H321L532 720H701L433 291V0Z" transform="translate(1583.780, 643.160) scale(0.022000, -0.022000)" fill="#6B6862"/>
<path d="M0 290V455H165V290Z" transform="translate(1630.904, 643.160) scale(0.022000, -0.022000)" fill="#6B6862"/>
<path d="M292 -10Q214 -10 159.5 18.5Q105 47 74.0 97.5Q43 148 35 214H188Q193 161 220.0 134.5Q247 108 297 108Q333 108 357.5 122.5Q382 137 396.5 167.5Q411 198 417.5 247.0Q424 296 424 366V431L465 430Q454 382 426.0 347.0Q398 312 355.5 293.0Q313 274 258 274Q189 274 136.5 302.5Q84 331 54.0 381.5Q24 432 24 498Q24 568 58.0 620.0Q92 672 153.0 701.0Q214 730 295 730Q439 730 516.5 637.5Q594 545 594 370Q594 252 558.5 166.5Q523 81 455.5 35.5Q388 -10 292 -10ZM309 390Q365 390 393.0 420.0Q421 450 421 496Q421 528 408.5 554.5Q396 581 371.0 596.5Q346 612 309 612Q254 612 224.0 579.5Q194 547 194 500Q194 453 224.0 421.5Q254 390 309 390Z" transform="translate(1665.994, 643.160) scale(0.022000, -0.022000)" fill="#6B6862"/>
<path d="M60 0V165H225V0Z" transform="translate(1687.422, 643.160) scale(0.022000, -0.022000)" fill="#6B6862"/>
<path d="M25 0V120Q124 201 190.5 259.5Q257 318 296.5 363.0Q336 408 353.0 445.0Q370 482 370 519Q370 563 346.5 587.5Q323 612 281 612Q237 612 208.0 585.0Q179 558 172 511H18Q29 613 101.0 671.5Q173 730 287 730Q403 730 468.0 670.5Q533 611 533 505Q533 455 516.5 409.0Q500 363 462.0 314.0Q424 265 358.5 206.5Q293 148 195 73L158 118H547V0Z" transform="translate(1701.392, 643.160) scale(0.022000, -0.022000)" fill="#6B6862"/>
</svg>
