<?xml version="1.0" encoding="UTF-8"?>
<svg xmlns="http://www.w3.org/2000/svg" viewBox="0 0 1024 1024" width="1024" height="1024">
<defs>
<clipPath id="iconClip">
<rect x="0" y="0" width="1024" height="1024" rx="224" ry="224"/>
</clipPath>
</defs>
<g clip-path="url(#iconClip)">
<rect x="0" y="0" width="1024" height="1024" fill="#161614"/>
<path d="M 160 632.0 L 160 632.0 L 180 637.4245424971355 L 200 642.670254736056 L 220 647.5642019347588 L 240 651.9450459081904 L 260 655.6683638853277 L 280 658.6114096777837 L 300 660.6771602390468 L 320 661.7975142119108 L 340 661.9355370179543 L 360 661.0866784754697 L 380 659.2789228047704 L 400 656.5718660756728 L 420 653.0547515108307 L 440 648.8435274148492 L 460 644.0770247200849 L 480 638.9123801635321 L 500 633.5198559783884 L 520 628.0772268789208 L 540 622.7639193822484 L 560 617.7550966753328 L 580 613.2158840306743 L 600 609.2959251407622 L 620 606.124448831962 L 640 603.8060087929074 L 660 602.4170367652721 L 680 602.0033228274797 L 700 602.578505838542 L 720 604.1236238073892 L 740 606.5877390106118 L 760 609.8896172504326 L 780 613.9204058930059 L 800 618.5472224004694 L 820 623.6175350540323 L 840 628.9641914493126 L 860 634.4109289901085" fill="none" stroke="#F5F1E8" stroke-width="8" stroke-linecap="round" opacity="0.35"/>
<path d="M 160 547.0 L 160 547.0 L 180 553.8710871630382 L 200 560.5156559990043 L 220 566.7146557840279 L 240 572.2637248170412 L 260 576.9799275880818 L 280 580.7077855918593 L 300 583.3244029694592 L 320 584.7435180017536 L 340 584.9183468894088 L 360 583.8431260689283 L 380 581.553302219376 L 400 578.1243636958523 L 420 573.6693519137189 L 440 568.3351347254755 L 460 562.2975646454408 L 480 555.755681540474 L 500 548.9251509059586 L 520 542.0311540466329 L 540 535.3009645508481 L 560 528.9564557887549 L 580 523.206786438854 L 600 518.2415051782988 L 620 514.2243018538186 L 640 511.2876111376827 L 660 509.5282465693447 L 680 509.00420891480763 L 700 509.7327740621532 L 720 511.6899234893596 L 740 514.8111360801083 L 760 518.9935151838813 L 780 524.0991807978074 L 800 529.9598150405945 L 820 536.3822110684408 L 840 543.1546425024627 L 860 550.0538433874707" fill="none" stroke="#F5F1E8" stroke-width="10" stroke-linecap="round" opacity="0.5"/>
<path d="M 160 462.0 L 160 462.0 L 180 470.317631828941 L 200 478.36105726195245 L 220 485.86510963329687 L 240 492.58240372589194 L 260 498.29149129083584 L 280 502.804161505935 L 300 505.9716456998718 L 320 507.68952179159646 L 340 507.90115676086333 L 360 506.5995736623869 L 380 503.82768163398134 L 400 499.6768613160317 L 420 494.283952316607 L 440 487.826742036102 L 460 480.5181045707968 L 480 472.598982917416 L 500 464.3304458335288 L 520 455.98508121434514 L 540 447.83800971944765 L 560 440.157814902177 L 580 433.1976888470339 L 600 427.1870852158353 L 620 422.32415487567505 L 640 418.769213482458 L 660 416.63945637341726 L 680 416.00509500213553 L 700 416.88704228576444 L 720 419.2562231713301 L 740 423.0345331496047 L 760 428.09741311733 L 780 434.27795570260906 L 800 441.3724076807198 L 820 449.1468870828494 L 840 457.3450935556127 L 860 465.696757784833" fill="none" stroke="#F5F1E8" stroke-width="12" stroke-linecap="round" opacity="0.6499999999999999"/>
<path d="M 160 377.0 L 160 377.0 L 180 386.76417649484375 L 200 396.2064585249007 L 220 405.0155634825659 L 240 412.9010826347427 L 260 419.6030549935899 L 280 424.90053742001066 L 300 428.61888843028424 L 320 430.6355255814393 L 340 430.8839666323178 L 360 429.35602125584546 L 380 426.1020610485868 L 400 421.2293589362111 L 420 414.8985527194951 L 440 407.31834934672844 L 460 398.7386444961528 L 480 389.4422842943579 L 500 379.735740761099 L 520 369.93900838205735 L 540 360.37505488804726 L 560 351.3591740155991 L 580 343.1885912552137 L 600 336.1326652533719 L 620 330.4240078975316 L 640 326.2508158272333 L 660 323.7506661774898 L 680 323.00598108946343 L 700 324.04131050937565 L 720 326.8225228533005 L 740 331.25793021910124 L 760 337.20131105077866 L 780 344.45673060741063 L 800 352.785000320845 L 820 361.911563097258 L 840 371.53554460876273 L 860 381.3396721821952" fill="none" stroke="#F5F1E8" stroke-width="14" stroke-linecap="round" opacity="0.7999999999999999"/>
<circle cx="512.0" cy="292.0" r="40" fill="#E55642"/>
</g>
</svg>
