<?xml version="1.0" encoding="UTF-8"?>
<svg xmlns="http://www.w3.org/2000/svg" viewBox="0 0 1024 1024" width="1024" height="1024">
<defs>
<clipPath id="iconClip">
<rect x="0" y="0" width="1024" height="1024" rx="224" ry="224"/>
</clipPath>
</defs>
<g clip-path="url(#iconClip)">
<rect x="0" y="0" width="1024" height="1024" fill="#161614"/>
<path d="M 120 281.0 L 120 296.1464777265421 L 160 298.49488222453965 L 200 298.91734323953176 L 240 297.36735368286224 L 280 294.0155458712898 L 320 289.23090727944464 L 360 283.5401601450776 L 400 277.5697766682413 L 440 271.97701312540977 L 480 267.3775550844573 L 520 264.27773897712626 L 560 263.0188114922373 L 600 263.7393630560635 L 640 266.36007095178354 L 680 270.5924316486024 L 720 275.97052103241936 L 760 281.9022861778791 L 800 287.734722150282 L 840 292.8257587769382 L 880 296.6149436531385 L 904 281.0" fill="none" stroke="#F5F1E8" stroke-width="2" opacity="0.18545454545454548"/>
<path d="M 120 323.0 L 120 347.67360010324524 L 160 348.99795673183473 L 200 347.4602995042292 L 240 343.229903119086 L 280 336.77247544707967 L 320 328.79888956424827 L 360 320.1869265022172 L 400 311.8846437513042 L 440 304.8060073018468 L 480 299.7302766860568 L 520 297.216219329488 L 560 297.54059802023124 L 600 300.6677031709086 L 640 306.2532839481438 L 680 313.6824455067673 L 720 322.13734036976354 L 760 330.6872020734382 L 800 338.39080962427744 L 840 344.4001028542991 L 880 348.0535420637622 L 904 323.0" fill="none" stroke="#F5F1E8" stroke-width="2" opacity="0.1763636363636364"/>
<path d="M 120 365.0 L 120 398.91482954453784 L 160 397.834978227755 L 200 393.1404519722827 L 240 385.34805289953454 L 280 375.3156158905071 L 320 364.14757288296425 L 360 353.0733702585529 L 400 343.31212387642705 L 440 335.9384113538794 L 480 331.76397599938673 L 520 331.2483651515948 L 560 334.4483404016552 L 600 341.01162893060666 L 640 350.21570385274737 L 680 361.0473243879522 L 720 372.31407959498574 L 760 382.7756562504091 L 800 391.28038010326844 L 840 396.8919992103411 L 880 398.9927522680835 L 904 365.0" fill="none" stroke="#F5F1E8" stroke-width="2" opacity="0.1672727272727273"/>
<path d="M 120 407.0 L 120 424.71174704373084 L 160 422.6870574459428 L 200 418.935440757833 L 240 413.869897856942 L 280 408.04807464294703 L 320 402.1108729712763 L 360 396.7118962626378 L 400 392.44549684666964 L 440 389.78134602756364 L 480 389.0127297984432 L 520 390.22426212803396 L 560 393.28257013821775 L 600 397.85097660501333 L 640 403.4265634436049 L 680 409.3955360026255 L 720 415.1007933280511 L 760 419.91426584937847 L 800 423.3060571137996 L 840 424.9027780240012 L 880 424.5286517904218 L 904 407.0" fill="none" stroke="#F5F1E8" stroke-width="2" opacity="0.1581818181818182"/>
<path d="M 120 449.0 L 120 472.64173309746775 L 160 467.80023292519644 L 200 460.8890882925311 L 240 452.6691202095565 L 280 444.0452329652374 L 320 435.96679673670303 L 360 429.32313512199386 L 400 424.8456229669602 L 440 423.02717215545385 L 480 424.0679688587584 L 520 427.8534358192429 L 560 433.96684571464795 L 600 441.7351970468279 L 640 450.3033022569365 L 680 458.7279319948517 L 720 466.0816515666885 L 760 471.554918610089 L 800 474.5452024616457 L 840 474.7233144122079 L 880 472.0696468104621 L 904 449.0" fill="none" stroke="#F5F1E8" stroke-width="2" opacity="0.1490909090909091"/>
<path d="M 120 491.0 L 120 517.4544886941893 L 160 509.01016020002726 L 200 498.5831632763246 L 240 487.3213654259763 L 280 476.4645341363209 L 320 467.20785570241503 L 360 460.5703618202282 L 400 457.28274835394586 L 440 457.7069358726101 L 480 461.79622722349586 L 520 469.10044823988034 L 560 478.81550566269567 L 600 489.87190663738306 L 640 501.05249501911146 L 680 511.12644335482435 L 720 518.9847498863912 L 760 523.7623242372275 L 800 524.9332218443765 L 840 522.3685431481375 L 880 516.3506236428359 L 904 491.0" fill="none" stroke="#F5F1E8" stroke-width="2" opacity="0.14"/>
<path d="M 120 533.0 L 120 543.7724985938712 L 160 538.4612084126214 L 200 532.548715055687 L 240 526.6859019015868 L 280 521.5181832286967 L 320 517.6144530697009 L 360 515.4044578820283 L 400 515.1314874331972 L 440 516.8255919773469 L 480 520.3002741397329 L 520 525.1730196867486 L 560 530.9074070289158 L 600 536.8721597855807 L 640 542.4106415443342 L 680 546.9131424076127 L 720 549.8839995819453 L 760 550.9961629654559 L 800 550.1271988204941 L 840 547.3727680272228 L 880 543.0360951496951 L 904 533.0" fill="none" stroke="#F5F1E8" stroke-width="2" opacity="0.1490909090909091"/>
<path d="M 120 575.0 L 120 584.9231857933606 L 160 576.5138855953679 L 200 567.9379276251769 L 240 560.139405712699 L 280 553.9768287785229 L 320 550.1286109287031 L 360 549.0183874866402 L 400 550.7683786293824 L 440 555.1859346440923 L 480 561.7847439850193 L 520 569.8383694185404 L 560 578.4602186704591 L 600 586.7011459182961 L 640 593.6539395602133 L 680 598.5531936088217 L 720 600.8595682568906 L 760 600.3191636972759 L 800 596.9914709643512 L 840 591.242822797609 L 880 583.7060654963689 L 904 575.0" fill="none" stroke="#F5F1E8" stroke-width="2" opacity="0.1581818181818182"/>
<path d="M 120 617.0 L 120 621.7980802740354 L 160 610.5206892622335 L 200 599.9565803479962 L 240 591.2687151595304 L 280 585.4135069567941 L 320 583.0355328186704 L 360 584.3965746614533 L 400 589.3468006867023 L 440 597.3412597806935 L 480 607.4998730612365 L 520 618.7043183359939 L 560 629.7211418394215 L 600 639.3375443564388 L 640 646.4948935670394 L 680 650.4052647575367 L 720 650.638180385195 L 760 647.1679996752196 L 800 640.3767413138441 L 840 631.0120284982197 L 880 620.1047860088614 L 904 617.0" fill="none" stroke="#F5F1E8" stroke-width="2" opacity="0.1672727272727273"/>
<path d="M 120 659.0 L 120 657.052487578458 L 160 651.3047533662875 L 200 646.4041589012786 L 240 642.8901915518856 L 280 641.1496903050302 L 320 641.3742601678524 L 360 643.5391791183214 L 400 647.4061196564072 L 440 652.5493853508389 L 480 658.402774102144 L 520 664.3219091277649 L 560 669.6551758937305 L 600 673.8154558222071 L 640 676.3447598902969 L 680 676.9646468587875 L 720 675.6068757843082 L 760 672.4209183991484 L 800 667.757504350089 L 840 662.1300107368478 L 880 656.1579464255591 L 904 659.0" fill="none" stroke="#F5F1E8" stroke-width="2" opacity="0.1763636363636364"/>
<path d="M 120 701.0 L 120 691.8796360800699 L 160 684.4151535525618 L 200 678.7764322117902 L 240 675.5842169407075 L 280 675.1899262923961 L 320 677.636966189501 L 360 682.6559515351698 L 400 689.694361769748 L 440 697.977365708434 L 480 706.5931196902832 L 520 714.5931488973716 L 560 721.0967612554406 L 600 725.3879993961432 L 640 726.9944576167698 L 680 725.739287185158 L 720 721.7606649282108 L 760 715.496581882893 L 800 707.6366265679095 L 840 699.046070867993 L 880 690.670615620297 L 904 701.0" fill="none" stroke="#F5F1E8" stroke-width="2" opacity="0.18545454545454548"/>
<circle cx="512.0" cy="512.0" r="340" fill="#161614"/>
<path d="M866 750Q881 750 881 735V705Q881 690 866 690Q829 690 811.0 663.0Q793 636 793 595V15Q793 0 778 0H709Q699 0 691 9L218 553V155Q218 115 236.5 87.5Q255 60 292 60Q307 60 307 45V15Q307 0 292 0H45Q30 0 30 15V45Q30 60 45 60Q82 60 100.0 87.5Q118 115 118 155V665Q103 678 88.5 684.0Q74 690 55 690Q40 690 40 705V735Q40 750 55 750H228Q239 750 246 741L693 231V595Q693 636 674.5 663.0Q656 690 619 690Q604 690 604 705V735Q604 750 619 750Z" transform="translate(146.690, 809.500) scale(0.820000, -0.820000)" fill="#F5F1E8"/>
<circle cx="818.8604" cy="268.29999999999995" r="24" fill="#E55642"/>
</g>
</svg>
