<?xml version="1.0" encoding="UTF-8"?>
<svg xmlns="http://www.w3.org/2000/svg" viewBox="0 0 288 288" width="288" height="288">
  <path d="M429 -9Q413 -9 402 15L131 603Q128 610 123.5 609.0Q119 608 119 600V86Q119 58 128.5 43.5Q138 29 163 25L176 23Q189 22 189 11Q189 0 174 0H31Q16 0 16 11Q16 22 29 23L42 25Q68 29 78.0 43.5Q88 58 88 86V654Q88 675 81.5 682.0Q75 689 52 693L29 697Q16 700 16 709Q16 720 31 720H138Q163 720 173 698L409 179Q412 173 416.5 174.0Q421 175 421 181V634Q421 666 410.0 678.5Q399 691 382 694L364 697Q351 700 351 709Q351 720 366 720H509Q524 720 524 709Q524 698 511 697L498 695Q472 691 462.0 678.5Q452 666 452 634V23Q452 5 445.5 -2.0Q439 -9 429 -9Z" transform="translate(79.200, 227.160) scale(0.240000, -0.240000)" fill="#0E0E0C"/>
  <circle cx="218.400" cy="221.400" r="9.600" fill="#D43F2A"/>
</svg>
