<?xml version="1.0" encoding="UTF-8"?>
<svg xmlns="http://www.w3.org/2000/svg" viewBox="0 0 1024 1024" width="1024" height="1024">
  <rect width="1024" height="1024" rx="225" fill="#F5F1E8"/>
  <path d="M 0 307 Q 256 295, 512 307 T 1024 307" fill="none" stroke="#E6E0D2" stroke-width="2"/>
  <path d="M 0 512 Q 256 500, 512 512 T 1024 512" fill="none" stroke="#E6E0D2" stroke-width="2"/>
  <path d="M 0 717 Q 256 705, 512 717 T 1024 717" fill="none" stroke="#E6E0D2" stroke-width="2"/>
  <path d="M429 -9Q413 -9 402 15L131 603Q128 610 123.5 609.0Q119 608 119 600V86Q119 58 128.5 43.5Q138 29 163 25L176 23Q189 22 189 11Q189 0 174 0H31Q16 0 16 11Q16 22 29 23L42 25Q68 29 78.0 43.5Q88 58 88 86V654Q88 675 81.5 682.0Q75 689 52 693L29 697Q16 700 16 709Q16 720 31 720H138Q163 720 173 698L409 179Q412 173 416.5 174.0Q421 175 421 181V634Q421 666 410.0 678.5Q399 691 382 694L364 697Q351 700 351 709Q351 720 366 720H509Q524 720 524 709Q524 698 511 697L498 695Q472 691 462.0 678.5Q452 666 452 634V23Q452 5 445.5 -2.0Q439 -9 429 -9Z" transform="translate(360.800, 664.460) scale(0.560000, -0.560000)" fill="#0E0E0C"/>
  <circle cx="688.400" cy="650.180" r="23.800" fill="#D43F2A"/>
</svg>
