<?xml version="1.0" encoding="UTF-8"?>
<svg xmlns="http://www.w3.org/2000/svg" viewBox="0 0 1024 1024" width="1024" height="1024">


<path d="M489 137 538 368Q550 422 556.5 455.0Q563 488 566.0 507.0Q569 526 570 536L505 550L515 587H702L696 550L632 536Q629 525 624.5 506.0Q620 487 612.5 454.5Q605 422 593 368L542 130Q535 99 528.5 65.0Q522 31 515 -4H473L210 495H229L173 229Q166 197 159.0 161.0Q152 125 146.5 95.0Q141 65 139 51L204 37L194 0H6L12 37L76 51Q80 65 90.5 111.0Q101 157 117 232L152 394Q165 456 170.5 491.5Q176 527 177 536L119 550L130 587H262L501 139Z" transform="translate(201.650, 688.100) scale(0.750000, -0.750000)" fill="#F5F1E8"/>
<circle cx="780.11" cy="637.412" r="42.24" fill="#E55642"/>
</svg>