<?xml version="1.0" encoding="UTF-8"?>
<svg xmlns="http://www.w3.org/2000/svg" viewBox="0 0 1024 1024" width="1024" height="1024">
<defs>
<clipPath id="iconClip">
<rect x="0" y="0" width="1024" height="1024" rx="224" ry="224"/>
</clipPath>
</defs>
<g clip-path="url(#iconClip)">
<rect x="0" y="0" width="1024" height="1024" fill="#161614"/>
<rect x="218.0" y="218.0" width="180" height="180" fill="none" stroke="#F5F1E8" stroke-width="3" rx="6" opacity="0.25"/>
<rect x="422.0" y="218.0" width="180" height="180" fill="none" stroke="#F5F1E8" stroke-width="3" rx="6" opacity="0.25"/>
<rect x="626.0" y="218.0" width="180" height="180" fill="none" stroke="#F5F1E8" stroke-width="3" rx="6" opacity="0.25"/>
<rect x="218.0" y="422.0" width="180" height="180" fill="none" stroke="#F5F1E8" stroke-width="3" rx="6" opacity="0.25"/>
<rect x="422.0" y="422.0" width="180" height="180" fill="none" stroke="#F5F1E8" stroke-width="5" rx="6"/>
<circle cx="512.0" cy="512.0" r="39.6" fill="#E55642"/>
<rect x="626.0" y="422.0" width="180" height="180" fill="none" stroke="#F5F1E8" stroke-width="3" rx="6" opacity="0.25"/>
<rect x="218.0" y="626.0" width="180" height="180" fill="none" stroke="#F5F1E8" stroke-width="3" rx="6" opacity="0.25"/>
<rect x="422.0" y="626.0" width="180" height="180" fill="none" stroke="#F5F1E8" stroke-width="3" rx="6" opacity="0.25"/>
<rect x="626.0" y="626.0" width="180" height="180" fill="none" stroke="#F5F1E8" stroke-width="3" rx="6" opacity="0.25"/>
</g>
</svg>
