<?xml version="1.0" encoding="UTF-8"?>
<svg xmlns="http://www.w3.org/2000/svg" viewBox="0 0 1024 1024" width="1024" height="1024">
<defs>
<clipPath id="iconClip">
<rect x="0" y="0" width="1024" height="1024" rx="224" ry="224"/>
</clipPath>
</defs>
<g clip-path="url(#iconClip)">
<rect x="0" y="0" width="1024" height="1024" fill="#161614"/>
<path d="M53 13 148 412Q153 434 149.5 446.5Q146 459 131 459Q113 459 91.5 432.5Q70 406 43 332Q39 319 29 319Q14 319 21 337Q43 406 67.5 445.0Q92 484 117.0 500.0Q142 516 163 516Q196 516 210.0 491.5Q224 467 211 411L186 303Q185 296 189.0 295.0Q193 294 196 300Q235 381 271.0 428.5Q307 476 339.0 496.0Q371 516 397 516Q434 516 451.0 486.0Q468 456 451 394L375 104Q368 76 374.0 62.0Q380 48 396 48Q416 48 435.5 74.5Q455 101 476 175Q479 186 489 186Q497 186 498.5 180.0Q500 174 498 166Q479 98 457.0 59.5Q435 21 412.5 6.0Q390 -9 367 -9Q331 -9 313.0 21.0Q295 51 311 114L388 404Q399 443 391.5 458.0Q384 473 370 473Q348 473 320.0 445.5Q292 418 263.0 370.5Q234 323 206.0 263.0Q178 203 155.5 138.0Q133 73 119 11Q116 0 105 0H64Q50 0 53 13Z" transform="translate(254.210, 651.230) scale(0.780000, -0.780000)" fill="#F5F1E8"/>
<circle cx="730.7900000000001" cy="608.33" r="39.0" fill="#E55642"/>
</g>
</svg>
