<?xml version="1.0" encoding="UTF-8"?>
<svg xmlns="http://www.w3.org/2000/svg" viewBox="0 0 1024 1024" width="1024" height="1024">
<defs>
<clipPath id="iconClip">
<rect x="0" y="0" width="1024" height="1024" rx="224" ry="224"/>
</clipPath>
</defs>
<g clip-path="url(#iconClip)">
<rect x="0" y="0" width="1024" height="1024" fill="#161614"/>
<path d="M473 -11Q426 -11 409.0 14.0Q392 39 392 85Q392 113 396.5 151.0Q401 189 407.5 232.0Q414 275 418.5 319.0Q423 363 423 403Q423 415 419.5 429.0Q416 443 406.0 453.5Q396 464 376 464Q348 464 320.0 438.0Q292 412 267.0 368.0Q242 324 222.0 270.5Q202 217 190.5 160.5Q179 104 179 53Q179 38 179.5 25.5Q180 13 181 0H97Q96 7 96.0 12.5Q96 18 96 26Q96 43 98.0 65.5Q100 88 104.5 125.5Q109 163 116 226Q123 285 126.5 318.0Q130 351 132.0 368.5Q134 386 134.5 395.5Q135 405 135 416Q135 434 130.0 447.5Q125 461 108 461Q92 461 71.0 439.0Q50 417 35 364L7 370Q10 388 19.5 411.5Q29 435 45.0 458.0Q61 481 84.0 496.0Q107 511 137 511Q171 511 187.5 492.5Q204 474 208.5 445.0Q213 416 211 383Q209 355 204.5 329.0Q200 303 196 283H199Q233 374 266.0 423.5Q299 473 331.5 492.0Q364 511 396 511Q436 511 460.0 493.0Q484 475 494.5 445.5Q505 416 505 381Q505 326 497.5 268.5Q490 211 482.5 162.5Q475 114 475 85Q475 67 479.5 53.0Q484 39 502 39Q519 39 539.5 60.5Q560 82 575 136L603 129Q600 112 590.5 88.0Q581 64 565.0 41.5Q549 19 526.0 4.0Q503 -11 473 -11Z" transform="translate(240.200, 638.000) scale(0.720000, -0.720000)" fill="#F5F1E8"/>
<circle cx="747.8" cy="598.4" r="36.0" fill="#E55642"/>
</g>
</svg>
