<?xml version="1.0" encoding="UTF-8"?>
<svg xmlns="http://www.w3.org/2000/svg" viewBox="0 0 1024 1024" width="1024" height="1024">
<defs>
<clipPath id="iconClip">
<rect x="0" y="0" width="1024" height="1024" rx="224" ry="224"/>
</clipPath>
</defs>
<g clip-path="url(#iconClip)">
<rect x="0" y="0" width="1024" height="1024" fill="#161614"/>
<path d="M489 137 538 368Q550 422 556.5 455.0Q563 488 566.0 507.0Q569 526 570 536L505 550L515 587H702L696 550L632 536Q629 525 624.5 506.0Q620 487 612.5 454.5Q605 422 593 368L542 130Q535 99 528.5 65.0Q522 31 515 -4H473L210 495H229L173 229Q166 197 159.0 161.0Q152 125 146.5 95.0Q141 65 139 51L204 37L194 0H6L12 37L76 51Q80 65 90.5 111.0Q101 157 117 232L152 394Q165 456 170.5 491.5Q176 527 177 536L119 550L130 587H262L501 139Z" transform="translate(111.404, 452.500) scale(0.332031, -0.332031)" fill="#F5F1E8"/>
<path d="M101 -8Q67 -8 48.0 20.5Q29 49 29 94Q29 165 52.5 227.0Q76 289 115.0 336.5Q154 384 200.5 411.0Q247 438 292 438Q319 438 339.0 424.5Q359 411 379 387L359 355Q343 373 320.0 381.0Q297 389 274 389Q242 389 213.0 366.5Q184 344 162.0 305.5Q140 267 127.0 217.0Q114 167 114 112Q114 86 119.5 71.5Q125 57 138 57Q154 57 180.5 82.5Q207 108 238.0 152.5Q269 197 298.0 254.0Q327 311 348 375L358 395L396 430H439Q422 376 406.0 318.5Q390 261 378.0 208.0Q366 155 359.0 113.5Q352 72 352 49Q374 61 394.0 79.5Q414 98 434 123L458 94Q433 63 407.0 40.0Q381 17 357.0 4.5Q333 -8 312 -8Q293 -8 284.0 3.5Q275 15 275 34Q275 52 280.0 82.0Q285 112 297.0 161.5Q309 211 330 285H341Q310 198 268.0 132.0Q226 66 182.0 29.0Q138 -8 101 -8Z" transform="translate(335.193, 452.500) scale(0.332031, -0.332031)" fill="#F5F1E8"/>
<path d="M23 0Q40 68 57.0 137.0Q74 206 89 270L167 613L95 623L100 651L245 694L262 680Q254 651 246.0 620.5Q238 590 230.0 558.0Q222 526 213 490L158 266Q142 199 127.5 133.0Q113 67 98 0ZM292 -8Q270 -8 258.0 6.0Q246 20 234 49L170 208H129L137 233L179 243L332 382L268 393L279 430H483L478 393L409 381L222 231L228 256Q257 192 284.0 135.5Q311 79 328 49Q350 61 370.0 79.5Q390 98 410 123L434 94Q409 63 383.5 40.0Q358 17 334.5 4.5Q311 -8 292 -8Z" transform="translate(495.232, 452.500) scale(0.332031, -0.332031)" fill="#F5F1E8"/>
<path d="M115 -8Q83 -8 56.5 2.0Q30 12 14.0 29.5Q-2 47 -2 67Q-2 81 3.0 92.0Q8 103 17 113Q44 79 76.0 60.0Q108 41 136 41Q164 41 180.0 55.0Q196 69 196 97Q196 114 184.0 133.0Q172 152 139 180Q106 211 88.0 232.0Q70 253 63.0 270.5Q56 288 56 306Q56 343 76.5 373.0Q97 403 132.5 420.5Q168 438 211 438Q236 438 259.5 431.0Q283 424 298.0 411.0Q313 398 313 379Q313 367 308.0 357.5Q303 348 294 338Q269 364 241.0 378.0Q213 392 187 392Q159 392 142.5 376.0Q126 360 126 334Q126 322 131.5 309.5Q137 297 150.0 282.0Q163 267 187 245Q220 215 237.0 194.5Q254 174 260.5 157.5Q267 141 267 123Q267 88 245.5 58.0Q224 28 189.5 10.0Q155 -8 115 -8Z" transform="translate(643.650, 452.500) scale(0.332031, -0.332031)" fill="#F5F1E8"/>
<path d="M172 326Q165 299 159.0 274.5Q153 250 144.5 219.5Q136 189 123 145H115Q134 199 162.0 251.0Q190 303 223.5 345.0Q257 387 294.0 412.5Q331 438 368 438Q398 438 414.5 421.5Q431 405 431 375Q431 359 423.0 326.5Q415 294 403.5 253.0Q392 212 380.0 171.0Q368 130 360.0 97.5Q352 65 352 49Q374 61 394.0 79.5Q414 98 434 123L458 94Q433 63 407.0 40.0Q381 17 357.0 4.5Q333 -8 313 -8Q294 -8 283.5 3.0Q273 14 273 33Q273 47 281.0 79.5Q289 112 301.0 153.0Q313 194 324.5 235.0Q336 276 344.0 308.5Q352 341 352 355Q352 375 332 375Q311 375 284.0 352.0Q257 329 228.5 289.5Q200 250 173.0 201.0Q146 152 125.0 100.0Q104 48 93 0H16Q39 72 56.0 137.0Q73 202 85.5 256.0Q98 310 107 349L168 613L96 623L101 651L247 694L263 680Q255 651 244.0 609.0Q233 567 221.0 519.0Q209 471 197 423Z" transform="translate(748.572, 452.500) scale(0.332031, -0.332031)" fill="#F5F1E8"/>
<circle cx="512.0" cy="517.95" r="18" fill="#E55642"/>
<path d="M99 -8Q80 -8 69.0 3.5Q58 15 58 36Q58 50 66.0 84.0Q74 118 86.5 161.5Q99 205 111.0 249.0Q123 293 131.0 328.0Q139 363 139 380Q117 369 97.0 350.5Q77 332 57 303L33 335Q58 366 83.5 389.0Q109 412 133.5 425.0Q158 438 178 438Q198 438 208.5 426.5Q219 415 219 392Q219 378 211.0 343.5Q203 309 191.0 265.5Q179 222 166.5 178.0Q154 134 146.0 99.0Q138 64 138 49Q160 61 180.0 79.5Q200 98 220 123L244 94Q219 63 193.0 40.0Q167 17 143.0 4.5Q119 -8 99 -8ZM208 549Q188 549 174.0 562.5Q160 576 160 596Q160 617 169.5 633.0Q179 649 195.0 658.0Q211 667 228 667Q248 667 261.0 654.0Q274 641 274 621Q274 599 265.0 582.5Q256 566 241.0 557.5Q226 549 208 549Z" transform="translate(389.480, 766.402) scale(0.332031, -0.332031)" fill="#F5F1E8"/>
<path d="M443 430Q435 404 427.5 380.0Q420 356 413.0 330.0Q406 304 399.0 274.5Q392 245 385 208L339 -25Q326 -89 320.5 -124.5Q315 -160 313 -173L372 -188L362 -220H150L155 -188L230 -173Q235 -153 241.0 -123.0Q247 -93 254 -59L279 54Q287 92 299.5 146.5Q312 201 335 285H345Q313 198 270.5 132.0Q228 66 184.0 29.0Q140 -8 104 -8Q68 -8 49.0 20.5Q30 49 29 94Q29 163 52.0 225.0Q75 287 113.5 335.0Q152 383 199.5 410.5Q247 438 295 438Q324 438 344.0 424.5Q364 411 383 387L363 355Q347 373 324.5 381.0Q302 389 277 389Q244 389 215.0 366.5Q186 344 163.0 305.5Q140 267 127.0 217.0Q114 167 114 112Q114 85 120.0 71.0Q126 57 138 57Q155 57 182.5 83.0Q210 109 241.5 154.0Q273 199 302.5 256.0Q332 313 353 375L363 395L401 430Z" transform="translate(481.453, 766.402) scale(0.332031, -0.332031)" fill="#F5F1E8"/>
</g>
</svg>
