<?xml version="1.0" encoding="UTF-8"?>
<svg xmlns="http://www.w3.org/2000/svg" viewBox="0 0 1024 1024" width="1024" height="1024">
<defs>
<clipPath id="iconClip">
<rect x="0" y="0" width="1024" height="1024" rx="224" ry="224"/>
</clipPath>
</defs>
<g clip-path="url(#iconClip)">
<rect x="0" y="0" width="1024" height="1024" fill="#161614"/>
<path d="M337 -8Q318 -8 307.5 3.5Q297 15 297 34Q297 48 305.0 80.0Q313 112 325.0 153.0Q337 194 348.5 235.0Q360 276 368.0 308.5Q376 341 376 355Q376 375 356 375Q335 375 308.5 352.0Q282 329 253.5 289.5Q225 250 198.5 201.0Q172 152 151.0 100.0Q130 48 119 0H42Q59 54 75.0 111.5Q91 169 103.0 222.0Q115 275 122.0 317.0Q129 359 129 381Q107 369 87.0 350.5Q67 332 47 303L24 335Q49 366 75.0 389.0Q101 412 125.0 425.0Q149 438 169 438Q188 438 196.5 426.5Q205 415 205 395Q205 378 200.5 347.5Q196 317 184.0 268.0Q172 219 151 145H141Q160 199 187.5 251.0Q215 303 248.5 345.0Q282 387 318.5 412.5Q355 438 392 438Q422 438 438.5 421.5Q455 405 455 375Q455 359 447.0 326.5Q439 294 427.5 253.0Q416 212 404.5 171.0Q393 130 385.0 97.5Q377 65 377 49Q399 61 418.5 79.5Q438 98 458 123L482 94Q457 63 431.0 40.0Q405 17 381.0 4.5Q357 -8 337 -8Z" transform="translate(279.491, 617.820) scale(0.703125, -0.703125)" fill="#F5F1E8"/>
<circle cx="708.509375" cy="578.2203125" r="36.0" fill="#E55642"/>
</g>
</svg>
