<?xml version="1.0" encoding="UTF-8"?>
<svg xmlns="http://www.w3.org/2000/svg" viewBox="0 0 1024 1024" width="1024" height="1024">
<defs>
<clipPath id="iconClip">
<rect x="0" y="0" width="1024" height="1024" rx="224" ry="224"/>
</clipPath>
</defs>
<g clip-path="url(#iconClip)">
<rect x="0" y="0" width="1024" height="1024" fill="#161614"/>
<path d="M 512.0 192.0 C 745.3333333333333 192.0, 745.3333333333333 654.0, 512.0 852.0 C 278.6666666666667 654.0, 278.6666666666667 192.0, 512.0 192.0 Z" fill="#E55642"/>
<path d="M866 750Q881 750 881 735V705Q881 690 866 690Q829 690 811.0 663.0Q793 636 793 595V15Q793 0 778 0H709Q699 0 691 9L218 553V155Q218 115 236.5 87.5Q255 60 292 60Q307 60 307 45V15Q307 0 292 0H45Q30 0 30 15V45Q30 60 45 60Q82 60 100.0 87.5Q118 115 118 155V665Q103 678 88.5 684.0Q74 690 55 690Q40 690 40 705V735Q40 750 55 750H228Q239 750 246 741L693 231V595Q693 636 674.5 663.0Q656 690 619 690Q604 690 604 705V735Q604 750 619 750Z" transform="translate(289.250, 639.500) scale(0.500000, -0.500000)" fill="#F5F1E8"/>
<circle cx="512.0" cy="932.0" r="28" fill="#F5F1E8"/>
</g>
</svg>
