<?xml version="1.0" encoding="UTF-8"?>
<svg xmlns="http://www.w3.org/2000/svg" viewBox="0 0 834 414" width="834" height="414">
<rect width="834.2" height="414.0" fill="#161614"/>
<path d="M429 -9Q413 -9 402 15L131 603Q128 610 123.5 609.0Q119 608 119 600V86Q119 58 128.5 43.5Q138 29 163 25L176 23Q189 22 189 11Q189 0 174 0H31Q16 0 16 11Q16 22 29 23L42 25Q68 29 78.0 43.5Q88 58 88 86V654Q88 675 81.5 682.0Q75 689 52 693L29 697Q16 700 16 709Q16 720 31 720H138Q163 720 173 698L409 179Q412 173 416.5 174.0Q421 175 421 181V634Q421 666 410.0 678.5Q399 691 382 694L364 697Q351 700 351 709Q351 720 366 720H509Q524 720 524 709Q524 698 511 697L498 695Q472 691 462.0 678.5Q452 666 452 634V23Q452 5 445.5 -2.0Q439 -9 429 -9Z" transform="translate(216.000, 242.000) scale(0.200000, -0.200000)" fill="#F5F1E8"/>
<path d="M120 -9Q78 -9 51.0 17.5Q24 44 24 88Q24 131 51.0 169.5Q78 208 125.0 239.0Q172 270 232 289Q245 293 245 306V397Q245 445 230.0 465.5Q215 486 189 486Q164 486 143.5 463.5Q123 441 114 388Q109 356 92.5 341.5Q76 327 59 327Q31 327 31 355Q31 384 47.5 412.5Q64 441 91.0 464.5Q118 488 150.0 502.0Q182 516 214 516Q313 516 313 401V95Q313 53 334 53Q347 53 358.0 70.5Q369 88 369 130Q369 146 382 146Q394 146 394 129Q394 56 368.5 23.5Q343 -9 311 -9Q287 -9 273.0 10.5Q259 30 254 57Q253 67 245.5 67.5Q238 68 231 58Q207 25 182.0 8.0Q157 -9 120 -9ZM147 37Q173 37 195.0 55.5Q217 74 231.0 105.0Q245 136 245 175V248Q245 267 224 259Q163 237 129.5 198.5Q96 160 96 106Q96 37 147 37Z" transform="translate(324.000, 242.000) scale(0.200000, -0.200000)" fill="#F5F1E8"/>
<path d="M27 0Q15 0 15 11Q15 21 26 23L40 25Q61 28 67.5 37.0Q74 46 74 67V640Q74 658 68.5 664.5Q63 671 49 673L28 676Q17 678 17 688Q17 698 28 700Q56 706 75.0 714.0Q94 722 107 730Q123 740 131 740Q142 740 142 724V305Q142 295 150.5 292.5Q159 290 167 299L284 425Q305 448 301.5 463.5Q298 479 278 483L255 487Q242 490 242 500Q242 510 256 510H428Q442 510 442 499Q442 488 429 487L420 486Q397 484 374.0 468.5Q351 453 319 420L257 354Q236 331 247 309L373 67Q384 47 397.0 38.0Q410 29 429 25L439 23Q451 20 451 11Q451 0 437 0H263Q249 0 249 11Q249 21 262 23L279 25Q317 30 295 74L200 259Q195 269 185.5 270.0Q176 271 168 263L157 252Q148 243 145.0 234.0Q142 225 142 214V67Q142 46 148.5 37.0Q155 28 176 26L203 23Q214 21 214 11Q214 0 202 0Z" transform="translate(403.800, 242.000) scale(0.200000, -0.200000)" fill="#F5F1E8"/>
<path d="M131 -9Q108 -9 82.0 -3.5Q56 2 40 10Q31 15 31 27L28 139Q28 156 41 156Q52 156 56 140Q73 69 97.5 43.0Q122 17 157 17Q186 17 205.0 39.5Q224 62 224 102Q224 142 202.0 173.0Q180 204 128 241Q76 276 52.0 311.5Q28 347 28 389Q28 446 68.0 481.0Q108 516 174 516Q194 516 213.0 511.5Q232 507 247 497Q256 491 256 481L258 371Q258 356 246 356Q239 356 236.0 360.5Q233 365 231 372Q211 437 191.0 462.5Q171 488 142 488Q116 488 99.0 470.0Q82 452 82 425Q82 390 103.0 364.0Q124 338 179 300Q229 264 254.5 222.5Q280 181 280 132Q280 68 239.0 29.5Q198 -9 131 -9Z" transform="translate(494.000, 242.000) scale(0.200000, -0.200000)" fill="#F5F1E8"/>
<path d="M27 0Q15 0 15 11Q15 21 26 23L40 25Q61 28 67.5 37.0Q74 46 74 67V640Q74 658 68.5 664.5Q63 671 49 673L28 676Q17 678 17 688Q17 698 28 700Q56 706 75.0 714.0Q94 722 107 730Q123 740 131 740Q142 740 142 724V459Q142 450 148.0 448.5Q154 447 163 455Q201 490 230.0 503.0Q259 516 291 516Q338 516 365.0 484.5Q392 453 392 392V67Q392 46 398.5 37.5Q405 29 426 26L448 23Q459 21 459 11Q459 0 447 0H279Q265 0 265 11Q265 21 276 23L290 25Q311 28 317.5 37.0Q324 46 324 67V381Q324 430 306.0 450.0Q288 470 255 470Q223 470 197.5 451.5Q172 433 157.0 402.5Q142 372 142 335V67Q142 46 148.5 37.0Q155 28 176 26L203 23Q214 21 214 11Q214 0 202 0Z" transform="translate(555.600, 242.000) scale(0.200000, -0.200000)" fill="#F5F1E8"/>
<path d="M204 605Q185 605 172.5 618.5Q160 632 160 651Q160 678 176.5 694.0Q193 710 214 710Q234 710 247.5 697.5Q261 685 261 665Q261 637 244.0 621.0Q227 605 204 605ZM122 -10Q89 -10 75.0 14.5Q61 39 74 95L148 412Q153 434 149.5 446.5Q146 459 131 459Q113 459 91.5 432.5Q70 406 43 332Q39 319 29 319Q14 319 21 337Q43 406 67.5 445.0Q92 484 117.0 500.0Q142 516 163 516Q198 516 212.0 491.5Q226 467 213 411L139 94Q134 72 137.5 59.5Q141 47 156 47Q174 47 195.5 73.5Q217 100 244 174Q248 187 258 187Q273 187 266 169Q245 101 219.5 61.5Q194 22 169.0 6.0Q144 -10 122 -10Z" transform="translate(641.600, 242.000) scale(0.200000, -0.200000)" fill="#F5F1E8"/>
<path d="M134 -205Q121 -205 121 -194Q121 -184 137 -182L162 -180Q182 -178 191.0 -169.0Q200 -160 205 -138L276 168Q278 175 273.5 176.0Q269 177 266 171Q232 102 201.5 63.0Q171 24 143.5 7.5Q116 -9 90 -9Q53 -9 33.0 22.0Q13 53 13 113Q13 170 29.0 227.5Q45 285 73.0 337.0Q101 389 136.5 429.0Q172 469 211.5 492.5Q251 516 290 516Q309 516 326.0 508.5Q343 501 354 485Q360 476 366 476Q372 476 378 485Q389 501 396.0 505.5Q403 510 409 510Q422 510 419 496L272 -138Q267 -160 272.5 -167.5Q278 -175 296 -178L313 -181Q331 -184 331 -193Q331 -205 314 -205ZM114 42Q138 42 167.0 71.0Q196 100 224.5 146.0Q253 192 277.0 245.0Q301 298 315.5 347.0Q330 396 330 430Q330 491 287 491Q261 491 232.0 467.5Q203 444 176.5 404.0Q150 364 128.5 313.5Q107 263 94.0 208.5Q81 154 81 102Q81 67 90.5 54.5Q100 42 114 42Z" transform="translate(699.200, 242.000) scale(0.200000, -0.200000)" fill="#F5F1E8"/>
<circle cx="105.0" cy="191.0" r="50.325" fill="none" stroke="#F5F1E8" stroke-width="9.350"/><circle cx="105.0" cy="191.0" r="19.800" fill="#E55642"/>
<line x1="325.325" y1="328.000" x2="508.875" y2="328.000" stroke="#F5F1E8" stroke-width="1" opacity="0.5"/>
<path d="M259 0V602H24V720H648V602H413V0Z" transform="translate(124.561, 364.000) scale(0.026000, -0.026000)" fill="#F5F1E8"/>
<path d="M50 0V720H204V0ZM516 0V720H670V0ZM122 434H586V316H122Z" transform="translate(147.753, 364.000) scale(0.026000, -0.026000)" fill="#F5F1E8"/>
<path d="M50 0V720H204V0ZM122 0V118H586V0ZM122 310V426H551V310ZM122 602V720H574V602Z" transform="translate(172.193, 364.000) scale(0.026000, -0.026000)" fill="#F5F1E8"/>
<path d="M50 0V720H204V0Z" transform="translate(204.849, 364.000) scale(0.026000, -0.026000)" fill="#F5F1E8"/>
<path d="M50 0V720H249L569 84L520 72V720H670V0H471L151 636L200 648V0Z" transform="translate(217.173, 364.000) scale(0.026000, -0.026000)" fill="#F5F1E8"/>
<path d="M259 0V602H24V720H648V602H413V0Z" transform="translate(241.613, 364.000) scale(0.026000, -0.026000)" fill="#F5F1E8"/>
<path d="M50 0V720H204V0ZM122 0V118H586V0ZM122 310V426H551V310ZM122 602V720H574V602Z" transform="translate(264.805, 364.000) scale(0.026000, -0.026000)" fill="#F5F1E8"/>
<path d="M50 0V720H204V0ZM122 0V118H550V0Z" transform="translate(286.801, 364.000) scale(0.026000, -0.026000)" fill="#F5F1E8"/>
<path d="M50 0V720H204V0ZM122 0V118H550V0Z" transform="translate(307.861, 364.000) scale(0.026000, -0.026000)" fill="#F5F1E8"/>
<path d="M50 0V720H204V0Z" transform="translate(328.921, 364.000) scale(0.026000, -0.026000)" fill="#F5F1E8"/>
<path d="M406 -10Q289 -10 205.0 36.0Q121 82 75.5 165.0Q30 248 30 359Q30 469 76.0 552.5Q122 636 203.5 683.0Q285 730 393 730Q482 730 552.5 698.0Q623 666 666.5 610.5Q710 555 718 482H564Q554 541 508.5 574.5Q463 608 395 608Q332 608 285.0 578.5Q238 549 212.0 494.0Q186 439 186 362Q186 282 212.0 225.5Q238 169 288.5 139.5Q339 110 413 110Q473 110 515.0 125.0Q557 140 579 167L725 109Q667 51 590.5 20.5Q514 -10 406 -10ZM571 109V307L602 276H412V394H725V109Z" transform="translate(341.245, 364.000) scale(0.026000, -0.026000)" fill="#F5F1E8"/>
<path d="M50 0V720H204V0ZM122 0V118H586V0ZM122 310V426H551V310ZM122 602V720H574V602Z" transform="translate(366.803, 364.000) scale(0.026000, -0.026000)" fill="#F5F1E8"/>
<path d="M50 0V720H249L569 84L520 72V720H670V0H471L151 636L200 648V0Z" transform="translate(388.799, 364.000) scale(0.026000, -0.026000)" fill="#F5F1E8"/>
<path d="M259 0V602H24V720H648V602H413V0Z" transform="translate(413.239, 364.000) scale(0.026000, -0.026000)" fill="#F5F1E8"/>
<path d="M50 0V720H290L490 26H403L603 720H844V0H692V677H718L523 0H364L171 671H196V0Z" transform="translate(447.091, 364.000) scale(0.026000, -0.026000)" fill="#F5F1E8"/>
<path d="M24 0 282 720H414L177 0ZM552 0 316 720H454L712 0ZM160 279H564V159H160Z" transform="translate(476.055, 364.000) scale(0.026000, -0.026000)" fill="#F5F1E8"/>
<path d="M50 0V720H392Q472 720 529.5 692.0Q587 664 618.5 614.0Q650 564 650 497Q650 430 618.0 379.0Q586 328 528.5 299.5Q471 271 392 271H172V389H384Q437 389 466.5 418.5Q496 448 496 496Q496 544 466.5 573.0Q437 602 384 602H204V0Z" transform="translate(500.911, 364.000) scale(0.026000, -0.026000)" fill="#F5F1E8"/>
<path d="M50 0V720H204V0ZM122 279V397H535V279ZM122 602V720H558V602Z" transform="translate(534.763, 364.000) scale(0.026000, -0.026000)" fill="#F5F1E8"/>
<path d="M399 -10Q319 -10 251.5 17.0Q184 44 134.5 93.5Q85 143 57.5 211.5Q30 280 30 363Q30 473 77.0 555.5Q124 638 207.5 684.0Q291 730 398 730Q507 730 590.0 684.0Q673 638 720.5 555.0Q768 472 768 362Q768 280 740.5 211.5Q713 143 663.5 93.5Q614 44 546.5 17.0Q479 -10 399 -10ZM398 112Q461 112 509.0 144.0Q557 176 584.5 232.5Q612 289 612 364Q612 438 585.0 493.0Q558 548 510.0 578.0Q462 608 398 608Q335 608 287.0 578.0Q239 548 212.5 493.5Q186 439 186 364Q186 288 213.0 231.5Q240 175 288.0 143.5Q336 112 398 112Z" transform="translate(555.823, 364.000) scale(0.026000, -0.026000)" fill="#F5F1E8"/>
<path d="M46 0V720H368Q446 720 504.0 693.5Q562 667 594.0 619.0Q626 571 626 507Q626 444 594.0 396.5Q562 349 504.0 322.5Q446 296 368 296H168V409H364Q419 409 448.5 434.5Q478 460 478 506Q478 553 449.0 577.5Q420 602 364 602H200V0ZM452 0 163 374H326L660 0Z" transform="translate(582.291, 364.000) scale(0.026000, -0.026000)" fill="#F5F1E8"/>
<path d="M50 0V720H204V0Z" transform="translate(616.039, 364.000) scale(0.026000, -0.026000)" fill="#F5F1E8"/>
<path d="M50 0V720H249L569 84L520 72V720H670V0H471L151 636L200 648V0Z" transform="translate(628.363, 364.000) scale(0.026000, -0.026000)" fill="#F5F1E8"/>
<path d="M144 0V120H326Q404 120 458.5 151.5Q513 183 541.5 238.0Q570 293 570 364Q570 434 542.0 487.0Q514 540 459.5 570.0Q405 600 326 600H147V720H326Q447 720 537.0 676.5Q627 633 676.5 552.5Q726 472 726 362Q726 252 676.0 170.5Q626 89 536.5 44.5Q447 0 327 0ZM50 0V720H204V0Z" transform="translate(652.803, 364.000) scale(0.026000, -0.026000)" fill="#F5F1E8"/>
<path d="M50 0V720H204V0Z" transform="translate(678.179, 364.000) scale(0.026000, -0.026000)" fill="#F5F1E8"/>
<path d="M24 0 282 720H414L177 0ZM552 0 316 720H454L712 0ZM160 279H564V159H160Z" transform="translate(690.503, 364.000) scale(0.026000, -0.026000)" fill="#F5F1E8"/>
</svg>
