<?xml version="1.0" encoding="UTF-8"?>
<svg xmlns="http://www.w3.org/2000/svg" viewBox="0 0 837 348" width="837" height="348">
<rect width="836.8" height="348.0" fill="#161614"/>
<path d="M374 -9Q361 -9 357 7L211 603Q210 608 206.0 608.0Q202 608 200 603L81 86Q74 58 80.5 43.5Q87 29 111 25L123 23Q136 22 134 11Q131 0 116 0H-27Q-42 0 -39 11Q-37 22 -24 23L-10 25Q17 29 30.0 43.5Q43 58 50 86L181 654Q186 675 181.0 682.0Q176 689 154 693L132 697Q119 700 122 709Q124 720 139 720H236Q261 720 266 698L392 180Q394 173 398.5 173.0Q403 173 404 180L509 634Q517 666 509.0 678.5Q501 691 484 694L467 697Q454 700 457 709Q459 720 474 720H617Q632 720 630 709Q626 698 614 697L600 695Q573 691 560.5 678.5Q548 666 540 634L397 13Q392 -9 374 -9Z" transform="translate(206.000, 242.000) scale(0.200000, -0.200000)" fill="#F5F1E8"/>
<path d="M89 -9Q53 -9 33.0 22.0Q13 53 13 113Q13 170 29.0 227.5Q45 285 73.0 337.0Q101 389 136.5 429.0Q172 469 211.5 492.5Q251 516 290 516Q309 516 326.0 508.5Q343 501 354 485Q360 476 366 476Q372 476 378 485Q389 501 396.0 505.5Q403 510 409 510Q422 510 419 496L330 113Q315 48 350 48Q373 48 391.5 79.0Q410 110 429 175Q432 186 442 186Q449 186 451.0 180.0Q453 174 451 166Q432 72 400.0 31.5Q368 -9 323 -9Q284 -9 267.5 24.0Q251 57 264 114L277 169Q279 176 274.5 177.0Q270 178 267 172Q212 71 169.5 31.0Q127 -9 89 -9ZM114 42Q138 42 167.0 71.0Q196 100 224.5 146.0Q253 192 277.0 245.0Q301 298 315.5 347.0Q330 396 330 430Q330 491 287 491Q261 491 232.0 467.5Q203 444 176.5 404.0Q150 364 128.5 313.5Q107 263 94.0 208.5Q81 154 81 102Q81 67 89.5 54.5Q98 42 114 42Z" transform="translate(314.400, 242.000) scale(0.200000, -0.200000)" fill="#F5F1E8"/>
<path d="M318 -9Q267 -9 235 74L180 219Q170 243 155 243Q140 243 129 218Q119 196 107.5 158.5Q96 121 86 77L71 11Q68 0 57 0H18Q4 0 7 13L153 640Q157 657 153.0 664.5Q149 672 135 673L105 676Q90 678 92 689Q94 698 106 700Q149 707 175.0 716.0Q201 725 215 737Q223 743 229 743Q242 743 239 728L146 332Q145 325 149.0 324.0Q153 323 156 329L189 388Q261 516 351 516Q385 516 405.0 498.0Q425 480 425 449Q425 400 377.5 351.0Q330 302 253 271Q229 262 239 239L297 91Q307 66 317.0 55.5Q327 45 342 45Q365 45 377.0 73.5Q389 102 398 173Q400 186 410 186Q421 186 420 166Q415 82 388.5 36.5Q362 -9 318 -9ZM165 288Q161 279 164.5 274.5Q168 270 177 272Q260 293 311.0 341.0Q362 389 362 447Q362 485 333 485Q299 485 254.0 432.5Q209 380 165 288Z" transform="translate(409.200, 242.000) scale(0.200000, -0.200000)" fill="#F5F1E8"/>
<path d="M116 -9Q83 -9 46.5 1.0Q10 11 -9 26Q-16 32 -15 44L7 175Q9 188 19 188Q30 188 30 174L32 126Q34 69 59.5 42.5Q85 16 122 16Q154 16 177.0 36.5Q200 57 200 97Q200 120 193.0 139.5Q186 159 171.0 181.5Q156 204 130 236Q96 280 79.5 311.5Q63 343 63 377Q63 440 102.5 478.0Q142 516 203 516Q230 516 255.5 508.0Q281 500 298 484Q307 477 304 466L276 332Q273 319 264 319Q255 319 253 333L250 381Q246 441 234.5 467.0Q223 493 187 493Q155 493 135.0 471.0Q115 449 115 418Q115 385 133.0 357.5Q151 330 182 288Q223 234 237.5 202.0Q252 170 252 137Q252 95 233.5 62.0Q215 29 184.0 10.0Q153 -9 116 -9Z" transform="translate(498.600, 242.000) scale(0.200000, -0.200000)" fill="#F5F1E8"/>
<path d="M322 -9Q286 -9 268.0 21.0Q250 51 266 114L343 404Q354 443 346.5 458.0Q339 473 325 473Q303 473 275.5 445.5Q248 418 218.5 370.5Q189 323 161.5 263.5Q134 204 111.0 138.5Q88 73 74 11Q71 0 60 0H18Q4 0 7 13L153 640Q158 658 153.5 665.0Q149 672 135 673L105 676Q90 677 92 689Q94 698 106 700Q142 706 170.0 714.5Q198 723 215 737Q223 743 230 743Q242 743 239 728L141 303Q140 296 144.0 295.0Q148 294 151 300Q191 382 227.0 429.0Q263 476 294.5 496.0Q326 516 352 516Q389 516 406.0 486.0Q423 456 406 394L330 104Q323 76 329.0 62.0Q335 48 351 48Q371 48 390.0 74.5Q409 101 431 175Q434 186 444 186Q452 186 453.5 180.0Q455 174 453 166Q434 98 412.0 59.5Q390 21 367.5 6.0Q345 -9 322 -9Z" transform="translate(559.000, 242.000) scale(0.200000, -0.200000)" fill="#F5F1E8"/>
<path d="M204 605Q185 605 172.5 618.5Q160 632 160 651Q160 678 176.5 694.0Q193 710 214 710Q234 710 247.5 697.5Q261 685 261 665Q261 637 244.0 621.0Q227 605 204 605ZM122 -10Q89 -10 75.0 14.5Q61 39 74 95L148 412Q153 434 149.5 446.5Q146 459 131 459Q113 459 91.5 432.5Q70 406 43 332Q39 319 29 319Q14 319 21 337Q43 406 67.5 445.0Q92 484 117.0 500.0Q142 516 163 516Q198 516 212.0 491.5Q226 467 213 411L139 94Q134 72 137.5 59.5Q141 47 156 47Q174 47 195.5 73.5Q217 100 244 174Q248 187 258 187Q273 187 266 169Q245 101 219.5 61.5Q194 22 169.0 6.0Q144 -10 122 -10Z" transform="translate(654.200, 242.000) scale(0.200000, -0.200000)" fill="#F5F1E8"/>
<path d="M134 -205Q121 -205 121 -194Q121 -184 137 -182L162 -180Q182 -178 191.0 -169.0Q200 -160 205 -138L276 168Q278 175 273.5 176.0Q269 177 266 171Q232 102 201.5 63.0Q171 24 143.5 7.5Q116 -9 90 -9Q53 -9 33.0 22.0Q13 53 13 113Q13 170 29.0 227.5Q45 285 73.0 337.0Q101 389 136.5 429.0Q172 469 211.5 492.5Q251 516 290 516Q309 516 326.0 508.5Q343 501 354 485Q360 476 366 476Q372 476 378 485Q389 501 396.0 505.5Q403 510 409 510Q422 510 419 496L272 -138Q267 -160 272.5 -167.5Q278 -175 296 -178L313 -181Q331 -184 331 -193Q331 -205 314 -205ZM114 42Q138 42 167.0 71.0Q196 100 224.5 146.0Q253 192 277.0 245.0Q301 298 315.5 347.0Q330 396 330 430Q330 491 287 491Q261 491 232.0 467.5Q203 444 176.5 404.0Q150 364 128.5 313.5Q107 263 94.0 208.5Q81 154 81 102Q81 67 90.5 54.5Q100 42 114 42Z" transform="translate(711.800, 242.000) scale(0.200000, -0.200000)" fill="#F5F1E8"/>
<circle cx="95.0" cy="191.0" r="50.325" fill="none" stroke="#F5F1E8" stroke-width="9.350"/><circle cx="95.0" cy="191.0" r="19.800" fill="#E55642"/>
</svg>
