<?xml version="1.0" encoding="UTF-8"?>
<svg xmlns="http://www.w3.org/2000/svg" viewBox="0 0 997 365" width="997" height="365">
<rect width="996.8200000000003" height="364.76000000000005" fill="#F5F1E8"/>
<path d="M78 0H65V700H99L515 53V700H528V0H455L78 580Z" transform="translate(224.400, 256.960) scale(0.220000, -0.220000)" fill="#0E0E0C"/>
<path d="M453 0Q385 0 360 26Q337 48 337 64V85Q288 -4 180 -4Q54 -4 37 110Q35 122 35.0 134.5Q35 147 39.0 162.0Q43 177 62 195Q100 231 229 239Q261 242 288.0 242.0Q315 242 337 240V406Q335 407 337.0 415.5Q339 424 333.5 437.5Q328 451 319.0 464.0Q310 477 287.0 486.5Q264 496 227.0 496.0Q190 496 140.5 482.5Q91 469 68 456L64 463Q153 504 245 504Q348 504 381 467Q407 438 407 406V71Q407 42 418.5 26.5Q430 11 442 10L453 8H484V0ZM196 4Q249 4 291.5 40.5Q334 77 337 111V232Q310 234 282.5 234.0Q255 234 228 231Q152 222 129.0 197.0Q106 172 106 128Q106 120 107 110Q116 4 196 4Z" transform="translate(354.860, 256.960) scale(0.220000, -0.220000)" fill="#0E0E0C"/>
<path d="M120 750V252L340 500H350L187 316L402 0H332L147 272L120 241V0H50V750Z" transform="translate(469.040, 256.960) scale(0.220000, -0.220000)" fill="#0E0E0C"/>
<path d="M332 465Q316 478 280.5 487.0Q245 496 227.0 496.0Q209 496 206 496Q152 495 128.0 468.5Q104 442 104.0 409.0Q104 376 125.0 353.5Q146 331 177.5 318.5Q209 306 245.5 290.0Q282 274 313.5 257.5Q345 241 366.0 209.5Q387 178 387.0 131.0Q387 84 354.0 51.0Q321 18 280.5 7.0Q240 -4 193 -4Q91 -4 40 41L46 47Q66 28 105.5 16.0Q145 4 182 4Q241 4 279.5 36.5Q318 69 318.0 117.5Q318 166 289.0 195.5Q260 225 218.5 241.5Q177 258 135.0 274.5Q93 291 64.0 320.5Q35 350 35.0 389.0Q35 428 53.0 452.5Q71 477 101 487Q152 504 203 504Q289 504 337 472Z" transform="translate(565.180, 256.960) scale(0.220000, -0.220000)" fill="#0E0E0C"/>
<path d="M460 0Q419 0 397.5 18.0Q376 36 375 54L374 71V385Q374 464 332 486Q312 496 281 496Q219 496 169.5 445.5Q120 395 120 355V0H50V749H120V386Q136 429 181.0 466.5Q226 504 282 504Q379 504 411.5 470.5Q444 437 444 384V71Q444 42 455.5 26.5Q467 11 478 10L490 8H521V0Z" transform="translate(658.020, 256.960) scale(0.220000, -0.220000)" fill="#0E0E0C"/>
<path d="M142 0Q101 0 79.5 18.0Q58 36 57 54L56 71V500H126V71Q126 42 137.5 26.5Q149 11 160 10L172 8H203V0ZM62.0 612.0Q50 624 50.0 642.0Q50 660 62.0 672.5Q74 685 92.0 685.0Q110 685 122.5 672.5Q135 660 135.0 642.0Q135 624 122.5 612.0Q110 600 92.0 600.0Q74 600 62.0 612.0Z" transform="translate(780.340, 256.960) scale(0.220000, -0.220000)" fill="#0E0E0C"/>
<path d="M40 232Q40 362 103.0 433.0Q166 504 292 504Q351 504 411 474V500H481V-250H411V87Q392 52 348.0 25.0Q304 -2 244 -2Q40 3 40 232ZM245 6Q312 6 360.0 42.0Q408 78 411 113V465Q340 496 289 496Q200 496 155.0 426.5Q110 357 110 232Q110 6 245 6Z" transform="translate(833.800, 256.960) scale(0.220000, -0.220000)" fill="#0E0E0C"/>
<circle cx="103.4" cy="201.96000000000004" r="50.325" fill="none" stroke="#0E0E0C" stroke-width="9.350"/><circle cx="103.4" cy="201.96000000000004" r="19.800" fill="#D43F2A"/>
</svg>
