<?xml version="1.0" encoding="UTF-8"?>
<svg xmlns="http://www.w3.org/2000/svg" viewBox="0 0 2000 1100" width="2000" height="1100">
<rect width="2000" height="1100" fill="#161614"/>
<path d="M489 137 538 368Q550 422 556.5 455.0Q563 488 566.0 507.0Q569 526 570 536L505 550L515 587H702L696 550L632 536Q629 525 624.5 506.0Q620 487 612.5 454.5Q605 422 593 368L542 130Q535 99 528.5 65.0Q522 31 515 -4H473L210 495H229L173 229Q166 197 159.0 161.0Q152 125 146.5 95.0Q141 65 139 51L204 37L194 0H6L12 37L76 51Q80 65 90.5 111.0Q101 157 117 232L152 394Q165 456 170.5 491.5Q176 527 177 536L119 550L130 587H262L501 139Z" transform="translate(234.756, 615.923) scale(0.449219, -0.449219)" fill="#F5F1E8"/>
<path d="M101 -8Q67 -8 48.0 20.5Q29 49 29 94Q29 165 52.5 227.0Q76 289 115.0 336.5Q154 384 200.5 411.0Q247 438 292 438Q319 438 339.0 424.5Q359 411 379 387L359 355Q343 373 320.0 381.0Q297 389 274 389Q242 389 213.0 366.5Q184 344 162.0 305.5Q140 267 127.0 217.0Q114 167 114 112Q114 86 119.5 71.5Q125 57 138 57Q154 57 180.5 82.5Q207 108 238.0 152.5Q269 197 298.0 254.0Q327 311 348 375L358 395L396 430H439Q422 376 406.0 318.5Q390 261 378.0 208.0Q366 155 359.0 113.5Q352 72 352 49Q374 61 394.0 79.5Q414 98 434 123L458 94Q433 63 407.0 40.0Q381 17 357.0 4.5Q333 -8 312 -8Q293 -8 284.0 3.5Q275 15 275 34Q275 52 280.0 82.0Q285 112 297.0 161.5Q309 211 330 285H341Q310 198 268.0 132.0Q226 66 182.0 29.0Q138 -8 101 -8Z" transform="translate(537.529, 615.923) scale(0.449219, -0.449219)" fill="#F5F1E8"/>
<path d="M23 0Q40 68 57.0 137.0Q74 206 89 270L167 613L95 623L100 651L245 694L262 680Q254 651 246.0 620.5Q238 590 230.0 558.0Q222 526 213 490L158 266Q142 199 127.5 133.0Q113 67 98 0ZM292 -8Q270 -8 258.0 6.0Q246 20 234 49L170 208H129L137 233L179 243L332 382L268 393L279 430H483L478 393L409 381L222 231L228 256Q257 192 284.0 135.5Q311 79 328 49Q350 61 370.0 79.5Q390 98 410 123L434 94Q409 63 383.5 40.0Q358 17 334.5 4.5Q311 -8 292 -8Z" transform="translate(754.053, 615.923) scale(0.449219, -0.449219)" fill="#F5F1E8"/>
<path d="M115 -8Q83 -8 56.5 2.0Q30 12 14.0 29.5Q-2 47 -2 67Q-2 81 3.0 92.0Q8 103 17 113Q44 79 76.0 60.0Q108 41 136 41Q164 41 180.0 55.0Q196 69 196 97Q196 114 184.0 133.0Q172 152 139 180Q106 211 88.0 232.0Q70 253 63.0 270.5Q56 288 56 306Q56 343 76.5 373.0Q97 403 132.5 420.5Q168 438 211 438Q236 438 259.5 431.0Q283 424 298.0 411.0Q313 398 313 379Q313 367 308.0 357.5Q303 348 294 338Q269 364 241.0 378.0Q213 392 187 392Q159 392 142.5 376.0Q126 360 126 334Q126 322 131.5 309.5Q137 297 150.0 282.0Q163 267 187 245Q220 215 237.0 194.5Q254 174 260.5 157.5Q267 141 267 123Q267 88 245.5 58.0Q224 28 189.5 10.0Q155 -8 115 -8Z" transform="translate(954.854, 615.923) scale(0.449219, -0.449219)" fill="#F5F1E8"/>
<path d="M172 326Q165 299 159.0 274.5Q153 250 144.5 219.5Q136 189 123 145H115Q134 199 162.0 251.0Q190 303 223.5 345.0Q257 387 294.0 412.5Q331 438 368 438Q398 438 414.5 421.5Q431 405 431 375Q431 359 423.0 326.5Q415 294 403.5 253.0Q392 212 380.0 171.0Q368 130 360.0 97.5Q352 65 352 49Q374 61 394.0 79.5Q414 98 434 123L458 94Q433 63 407.0 40.0Q381 17 357.0 4.5Q333 -8 313 -8Q294 -8 283.5 3.0Q273 14 273 33Q273 47 281.0 79.5Q289 112 301.0 153.0Q313 194 324.5 235.0Q336 276 344.0 308.5Q352 341 352 355Q352 375 332 375Q311 375 284.0 352.0Q257 329 228.5 289.5Q200 250 173.0 201.0Q146 152 125.0 100.0Q104 48 93 0H16Q39 72 56.0 137.0Q73 202 85.5 256.0Q98 310 107 349L168 613L96 623L101 651L247 694L263 680Q255 651 244.0 609.0Q233 567 221.0 519.0Q209 471 197 423Z" transform="translate(1096.807, 615.923) scale(0.449219, -0.449219)" fill="#F5F1E8"/>
<circle cx="1376.220703125" cy="593.1528515625" r="20.7" fill="#E55642"/>
<path d="M99 -8Q80 -8 69.0 3.5Q58 15 58 36Q58 50 66.0 84.0Q74 118 86.5 161.5Q99 205 111.0 249.0Q123 293 131.0 328.0Q139 363 139 380Q117 369 97.0 350.5Q77 332 57 303L33 335Q58 366 83.5 389.0Q109 412 133.5 425.0Q158 438 178 438Q198 438 208.5 426.5Q219 415 219 392Q219 378 211.0 343.5Q203 309 191.0 265.5Q179 222 166.5 178.0Q154 134 146.0 99.0Q138 64 138 49Q160 61 180.0 79.5Q200 98 220 123L244 94Q219 63 193.0 40.0Q167 17 143.0 4.5Q119 -8 99 -8ZM208 549Q188 549 174.0 562.5Q160 576 160 596Q160 617 169.5 633.0Q179 649 195.0 658.0Q211 667 228 667Q248 667 261.0 654.0Q274 641 274 621Q274 599 265.0 582.5Q256 566 241.0 557.5Q226 549 208 549Z" transform="translate(1433.721, 615.923) scale(0.449219, -0.449219)" fill="#F5F1E8"/>
<path d="M443 430Q435 404 427.5 380.0Q420 356 413.0 330.0Q406 304 399.0 274.5Q392 245 385 208L339 -25Q326 -89 320.5 -124.5Q315 -160 313 -173L372 -188L362 -220H150L155 -188L230 -173Q235 -153 241.0 -123.0Q247 -93 254 -59L279 54Q287 92 299.5 146.5Q312 201 335 285H345Q313 198 270.5 132.0Q228 66 184.0 29.0Q140 -8 104 -8Q68 -8 49.0 20.5Q30 49 29 94Q29 163 52.0 225.0Q75 287 113.5 335.0Q152 383 199.5 410.5Q247 438 295 438Q324 438 344.0 424.5Q364 411 383 387L363 355Q347 373 324.5 381.0Q302 389 277 389Q244 389 215.0 366.5Q186 344 163.0 305.5Q140 267 127.0 217.0Q114 167 114 112Q114 85 120.0 71.0Q126 57 138 57Q155 57 182.5 83.0Q210 109 241.5 154.0Q273 199 302.5 256.0Q332 313 353 375L363 395L401 430Z" transform="translate(1558.154, 615.923) scale(0.449219, -0.449219)" fill="#F5F1E8"/>
<line x1="503.081" y1="806.0843098958334" x2="703.081" y2="806.0843098958334" stroke="#6B6862" stroke-width="1"/>
<line x1="1296.9189999999999" y1="806.0843098958334" x2="1496.9189999999999" y2="806.0843098958334" stroke="#6B6862" stroke-width="1"/>
<path d="M406 -10Q289 -10 205.0 36.0Q121 82 75.5 165.0Q30 248 30 359Q30 469 76.0 552.5Q122 636 203.5 683.0Q285 730 393 730Q482 730 552.5 698.0Q623 666 666.5 610.5Q710 555 718 482H564Q554 541 508.5 574.5Q463 608 395 608Q332 608 285.0 578.5Q238 549 212.0 494.0Q186 439 186 362Q186 282 212.0 225.5Q238 169 288.5 139.5Q339 110 413 110Q473 110 515.0 125.0Q557 140 579 167L725 109Q667 51 590.5 20.5Q514 -10 406 -10ZM571 109V307L602 276H412V394H725V109Z" transform="translate(743.081, 814.751) scale(0.026000, -0.026000)" fill="#B8B2A3"/>
<path d="M399 -10Q319 -10 251.5 17.0Q184 44 134.5 93.5Q85 143 57.5 211.5Q30 280 30 363Q30 473 77.0 555.5Q124 638 207.5 684.0Q291 730 398 730Q507 730 590.0 684.0Q673 638 720.5 555.0Q768 472 768 362Q768 280 740.5 211.5Q713 143 663.5 93.5Q614 44 546.5 17.0Q479 -10 399 -10ZM398 112Q461 112 509.0 144.0Q557 176 584.5 232.5Q612 289 612 364Q612 438 585.0 493.0Q558 548 510.0 578.0Q462 608 398 608Q335 608 287.0 578.0Q239 548 212.5 493.5Q186 439 186 364Q186 288 213.0 231.5Q240 175 288.0 143.5Q336 112 398 112Z" transform="translate(775.919, 814.751) scale(0.026000, -0.026000)" fill="#B8B2A3"/>
<path d="M237 0 34 720H190L358 61H309L459 720H634L782 61H734L903 720H1052L849 0H677L524 646H564L409 0Z" transform="translate(827.607, 814.751) scale(0.026000, -0.026000)" fill="#B8B2A3"/>
<path d="M50 0V720H204V0Z" transform="translate(868.843, 814.751) scale(0.026000, -0.026000)" fill="#B8B2A3"/>
<path d="M259 0V602H24V720H648V602H413V0Z" transform="translate(888.447, 814.751) scale(0.026000, -0.026000)" fill="#B8B2A3"/>
<path d="M50 0V720H204V0ZM516 0V720H670V0ZM122 434H586V316H122Z" transform="translate(918.919, 814.751) scale(0.026000, -0.026000)" fill="#B8B2A3"/>
<path d="M391 -10Q313 -10 247.0 17.5Q181 45 132.5 95.0Q84 145 57.0 213.5Q30 282 30 363Q30 444 56.5 511.0Q83 578 131.5 627.5Q180 677 246.0 703.5Q312 730 391 730Q480 730 551.5 695.5Q623 661 668.5 598.5Q714 536 724 452H574Q561 529 511.0 568.5Q461 608 392 608Q331 608 284.5 579.0Q238 550 212.0 495.5Q186 441 186 364Q186 286 212.5 229.5Q239 173 286.0 142.5Q333 112 394 112Q459 112 509.0 151.0Q559 190 574 267H726Q713 183 667.0 120.5Q621 58 550.0 24.0Q479 -10 391 -10Z" transform="translate(968.579, 814.751) scale(0.026000, -0.026000)" fill="#B8B2A3"/>
<path d="M399 -10Q319 -10 251.5 17.0Q184 44 134.5 93.5Q85 143 57.5 211.5Q30 280 30 363Q30 473 77.0 555.5Q124 638 207.5 684.0Q291 730 398 730Q507 730 590.0 684.0Q673 638 720.5 555.0Q768 472 768 362Q768 280 740.5 211.5Q713 143 663.5 93.5Q614 44 546.5 17.0Q479 -10 399 -10ZM398 112Q461 112 509.0 144.0Q557 176 584.5 232.5Q612 289 612 364Q612 438 585.0 493.0Q558 548 510.0 578.0Q462 608 398 608Q335 608 287.0 578.0Q239 548 212.5 493.5Q186 439 186 364Q186 288 213.0 231.5Q240 175 288.0 143.5Q336 112 398 112Z" transform="translate(1001.079, 814.751) scale(0.026000, -0.026000)" fill="#B8B2A3"/>
<path d="M50 0V720H249L569 84L520 72V720H670V0H471L151 636L200 648V0Z" transform="translate(1034.827, 814.751) scale(0.026000, -0.026000)" fill="#B8B2A3"/>
<path d="M50 0V720H204V0ZM122 279V397H535V279ZM122 602V720H558V602Z" transform="translate(1066.547, 814.751) scale(0.026000, -0.026000)" fill="#B8B2A3"/>
<path d="M50 0V720H204V0Z" transform="translate(1094.887, 814.751) scale(0.026000, -0.026000)" fill="#B8B2A3"/>
<path d="M144 0V120H326Q404 120 458.5 151.5Q513 183 541.5 238.0Q570 293 570 364Q570 434 542.0 487.0Q514 540 459.5 570.0Q405 600 326 600H147V720H326Q447 720 537.0 676.5Q627 633 676.5 552.5Q726 472 726 362Q726 252 676.0 170.5Q626 89 536.5 44.5Q447 0 327 0ZM50 0V720H204V0Z" transform="translate(1114.491, 814.751) scale(0.026000, -0.026000)" fill="#B8B2A3"/>
<path d="M50 0V720H204V0ZM122 0V118H586V0ZM122 310V426H551V310ZM122 602V720H574V602Z" transform="translate(1147.147, 814.751) scale(0.026000, -0.026000)" fill="#B8B2A3"/>
<path d="M50 0V720H249L569 84L520 72V720H670V0H471L151 636L200 648V0Z" transform="translate(1176.423, 814.751) scale(0.026000, -0.026000)" fill="#B8B2A3"/>
<path d="M391 -10Q313 -10 247.0 17.5Q181 45 132.5 95.0Q84 145 57.0 213.5Q30 282 30 363Q30 444 56.5 511.0Q83 578 131.5 627.5Q180 677 246.0 703.5Q312 730 391 730Q480 730 551.5 695.5Q623 661 668.5 598.5Q714 536 724 452H574Q561 529 511.0 568.5Q461 608 392 608Q331 608 284.5 579.0Q238 550 212.0 495.5Q186 441 186 364Q186 286 212.5 229.5Q239 173 286.0 142.5Q333 112 394 112Q459 112 509.0 151.0Q559 190 574 267H726Q713 183 667.0 120.5Q621 58 550.0 24.0Q479 -10 391 -10Z" transform="translate(1208.143, 814.751) scale(0.026000, -0.026000)" fill="#B8B2A3"/>
<path d="M50 0V720H204V0ZM122 0V118H586V0ZM122 310V426H551V310ZM122 602V720H574V602Z" transform="translate(1240.643, 814.751) scale(0.026000, -0.026000)" fill="#B8B2A3"/>
</svg>
