<?xml version="1.0" encoding="UTF-8"?>
<svg xmlns="http://www.w3.org/2000/svg" viewBox="0 0 1024 1024" width="1024" height="1024">
<defs>
<clipPath id="iconClip">
<rect x="0" y="0" width="1024" height="1024" rx="224" ry="224"/>
</clipPath>
</defs>
<g clip-path="url(#iconClip)">
<rect x="0" y="0" width="1024" height="1024" fill="#161614"/>
<path d="M374 -9Q361 -9 357 7L211 603Q210 608 206.0 608.0Q202 608 200 603L81 86Q74 58 80.5 43.5Q87 29 111 25L123 23Q136 22 134 11Q131 0 116 0H-27Q-42 0 -39 11Q-37 22 -24 23L-10 25Q17 29 30.0 43.5Q43 58 50 86L181 654Q186 675 181.0 682.0Q176 689 154 693L132 697Q119 700 122 709Q124 720 139 720H236Q261 720 266 698L392 180Q394 173 398.5 173.0Q403 173 404 180L509 634Q517 666 509.0 678.5Q501 691 484 694L467 697Q454 700 457 709Q459 720 474 720H617Q632 720 630 709Q626 698 614 697L600 695Q573 691 560.5 678.5Q548 666 540 634L397 13Q392 -9 374 -9Z" transform="translate(228.280, 748.160) scale(0.820000, -0.820000)" fill="#F5F1E8"/>
<circle cx="750.62" cy="694.04" r="45.1" fill="#E55642"/>
</g>
</svg>
