<?xml version="1.0" encoding="UTF-8"?>
<svg xmlns="http://www.w3.org/2000/svg" viewBox="0 0 2000 1100" width="2000" height="1100">
<rect width="2000" height="1100" fill="#161614"/>
<path d="M105 0V1600H543L654 1091L771 227H859L814 950L794 1600H1052V0H594L481 539L390 1375H299L341 609L362 0Z" transform="translate(150.000, 651.918) scale(0.253997, -0.253997)" fill="#F5F1E8"/>
<path d="M40 0 247 1600H700L907 0H643L607 370H340L304 0ZM364 597H584L549 947L519 1373H428L398 946Z" transform="translate(454.034, 651.918) scale(0.253997, -0.253997)" fill="#F5F1E8"/>
<path d="M105 0V1600H378L375 1216L347 825H412L522 1226L656 1600H937L679 925L952 0H691L504 655L367 363V0Z" transform="translate(704.729, 651.918) scale(0.253997, -0.253997)" fill="#F5F1E8"/>
<path d="M475 -18Q269 -18 177.5 66.0Q86 150 78 346Q77 385 77.0 427.0Q77 469 79.0 511.0Q81 553 85 594H327Q323 516 322.5 441.5Q322 367 327 301Q332 246 368.0 219.5Q404 193 474 193Q541 193 575.5 219.5Q610 246 616 301Q620 338 621.0 376.5Q622 415 620.5 453.5Q619 492 616 529Q612 582 581.5 618.5Q551 655 497 668L336 705Q238 728 181.5 775.0Q125 822 100.0 895.0Q75 968 72 1068Q71 1118 71.0 1163.5Q71 1209 72 1256Q77 1386 119.5 1465.5Q162 1545 248.5 1581.5Q335 1618 474 1618Q677 1618 768.0 1534.5Q859 1451 866 1256Q868 1207 867.0 1141.0Q866 1075 863 1014H616Q619 1089 620.0 1160.0Q621 1231 618 1301Q616 1355 580.0 1381.0Q544 1407 474 1407Q406 1407 370.5 1381.0Q335 1355 329 1301Q324 1242 324.0 1184.5Q324 1127 329 1068Q333 1014 356.0 978.0Q379 942 431 931L575 900Q681 876 745.5 827.5Q810 779 840.0 704.5Q870 630 874 529Q875 500 875.0 468.5Q875 437 874.5 406.0Q874 375 872 346Q864 150 772.0 66.0Q680 -18 475 -18Z" transform="translate(960.250, 651.918) scale(0.253997, -0.253997)" fill="#F5F1E8"/>
<path d="M105 0V1600H362V925H623V1600H880V0H623V698H362V0Z" transform="translate(1210.690, 651.918) scale(0.253997, -0.253997)" fill="#F5F1E8"/>
<path d="M105 0V1600H362V0Z" transform="translate(1471.037, 651.918) scale(0.253997, -0.253997)" fill="#F5F1E8"/>
<path d="M822 -294Q650 -307 564.0 -242.0Q478 -177 459 -18Q266 -11 180.5 74.0Q95 159 91 348Q89 472 88.0 583.5Q87 695 87.0 802.0Q87 909 88.0 1020.0Q89 1131 91 1253Q95 1449 188.0 1533.5Q281 1618 491 1618Q699 1618 791.5 1533.5Q884 1449 890 1253Q894 1131 896.0 1020.0Q898 909 898.0 801.0Q898 693 896.0 582.0Q894 471 890 348Q886 213 842.0 132.5Q798 52 704 16Q702 -43 731.5 -68.5Q761 -94 822 -87ZM491 193Q567 193 599.5 225.0Q632 257 633 333Q638 456 640.5 571.5Q643 687 643.0 800.5Q643 914 640.5 1030.0Q638 1146 633 1268Q632 1344 599.5 1375.5Q567 1407 491 1407Q416 1407 383.0 1375.5Q350 1344 348 1268Q343 1147 341.0 1031.5Q339 916 339.0 802.5Q339 689 341.0 573.0Q343 457 348 333Q350 257 383.0 225.0Q416 193 491 193Z" transform="translate(1599.813, 651.918) scale(0.253997, -0.253997)" fill="#F5F1E8"/>
<rect x="1700.7769311220677" y="184.05647691618105" width="27.939638428208575" height="27.939638428208575" fill="#E55642"/>
<line x1="450.0" y1="814.8830121021963" x2="1550.0" y2="814.8830121021963" stroke="#6B6862" stroke-width="1.5"/>
<path d="M50 0V720H204V0Z" transform="translate(567.352, 850.883) scale(0.024000, -0.024000)" fill="#B8B2A3"/>
<path d="M50 0V720H249L569 84L520 72V720H670V0H471L151 636L200 648V0Z" transform="translate(583.048, 850.883) scale(0.024000, -0.024000)" fill="#B8B2A3"/>
<path d="M144 0V120H326Q404 120 458.5 151.5Q513 183 541.5 238.0Q570 293 570 364Q570 434 542.0 487.0Q514 540 459.5 570.0Q405 600 326 600H147V720H326Q447 720 537.0 676.5Q627 633 676.5 552.5Q726 472 726 362Q726 252 676.0 170.5Q626 89 536.5 44.5Q447 0 327 0ZM50 0V720H204V0Z" transform="translate(609.928, 850.883) scale(0.024000, -0.024000)" fill="#B8B2A3"/>
<path d="M50 0V720H204V0Z" transform="translate(637.672, 850.883) scale(0.024000, -0.024000)" fill="#B8B2A3"/>
<path d="M24 0 282 720H414L177 0ZM552 0 316 720H454L712 0ZM160 279H564V159H160Z" transform="translate(653.368, 850.883) scale(0.024000, -0.024000)" fill="#B8B2A3"/>
<path d="M0 290V455H165V290Z" transform="translate(708.952, 850.883) scale(0.024000, -0.024000)" fill="#B8B2A3"/>
<path d="M50 0V720H290L490 26H403L603 720H844V0H692V677H718L523 0H364L171 671H196V0Z" transform="translate(750.832, 850.883) scale(0.024000, -0.024000)" fill="#B8B2A3"/>
<path d="M399 -10Q319 -10 251.5 17.0Q184 44 134.5 93.5Q85 143 57.5 211.5Q30 280 30 363Q30 473 77.0 555.5Q124 638 207.5 684.0Q291 730 398 730Q507 730 590.0 684.0Q673 638 720.5 555.0Q768 472 768 362Q768 280 740.5 211.5Q713 143 663.5 93.5Q614 44 546.5 17.0Q479 -10 399 -10ZM398 112Q461 112 509.0 144.0Q557 176 584.5 232.5Q612 289 612 364Q612 438 585.0 493.0Q558 548 510.0 578.0Q462 608 398 608Q335 608 287.0 578.0Q239 548 212.5 493.5Q186 439 186 364Q186 288 213.0 231.5Q240 175 288.0 143.5Q336 112 398 112Z" transform="translate(781.888, 850.883) scale(0.024000, -0.024000)" fill="#B8B2A3"/>
<path d="M50 0V720H249L569 84L520 72V720H670V0H471L151 636L200 648V0Z" transform="translate(810.640, 850.883) scale(0.024000, -0.024000)" fill="#B8B2A3"/>
<path d="M259 0V602H24V720H648V602H413V0Z" transform="translate(837.520, 850.883) scale(0.024000, -0.024000)" fill="#B8B2A3"/>
<path d="M50 0V720H204V0ZM516 0V720H670V0ZM122 434H586V316H122Z" transform="translate(863.248, 850.883) scale(0.024000, -0.024000)" fill="#B8B2A3"/>
<path d="M176 0V110H362Q412 110 437.5 137.5Q463 165 463 214Q463 264 435.5 293.0Q408 322 357 322H176V432H349Q396 432 420.5 454.5Q445 477 445 521Q445 565 421.5 587.5Q398 610 352 610H176V720H385Q481 720 540.0 671.0Q599 622 599 538Q599 485 574.0 447.0Q549 409 507.0 389.0Q465 369 413 369L418 390Q474 390 519.5 366.0Q565 342 592.0 298.5Q619 255 619 196Q619 137 591.5 92.5Q564 48 514.5 24.0Q465 0 398 0ZM50 0V720H204V0Z" transform="translate(904.288, 850.883) scale(0.024000, -0.024000)" fill="#B8B2A3"/>
<path d="M279 0V291L11 720H196L408 339H321L532 720H701L433 291V0Z" transform="translate(929.464, 850.883) scale(0.024000, -0.024000)" fill="#B8B2A3"/>
<path d="M50 0V720H290L490 26H403L603 720H844V0H692V677H718L523 0H364L171 671H196V0Z" transform="translate(970.312, 850.883) scale(0.024000, -0.024000)" fill="#B8B2A3"/>
<path d="M399 -10Q319 -10 251.5 17.0Q184 44 134.5 93.5Q85 143 57.5 211.5Q30 280 30 363Q30 473 77.0 555.5Q124 638 207.5 684.0Q291 730 398 730Q507 730 590.0 684.0Q673 638 720.5 555.0Q768 472 768 362Q768 280 740.5 211.5Q713 143 663.5 93.5Q614 44 546.5 17.0Q479 -10 399 -10ZM398 112Q461 112 509.0 144.0Q557 176 584.5 232.5Q612 289 612 364Q612 438 585.0 493.0Q558 548 510.0 578.0Q462 608 398 608Q335 608 287.0 578.0Q239 548 212.5 493.5Q186 439 186 364Q186 288 213.0 231.5Q240 175 288.0 143.5Q336 112 398 112Z" transform="translate(1001.368, 850.883) scale(0.024000, -0.024000)" fill="#B8B2A3"/>
<path d="M50 0V720H249L569 84L520 72V720H670V0H471L151 636L200 648V0Z" transform="translate(1030.120, 850.883) scale(0.024000, -0.024000)" fill="#B8B2A3"/>
<path d="M259 0V602H24V720H648V602H413V0Z" transform="translate(1057.000, 850.883) scale(0.024000, -0.024000)" fill="#B8B2A3"/>
<path d="M50 0V720H204V0ZM516 0V720H670V0ZM122 434H586V316H122Z" transform="translate(1082.728, 850.883) scale(0.024000, -0.024000)" fill="#B8B2A3"/>
<path d="M0 290V455H165V290Z" transform="translate(1137.928, 850.883) scale(0.024000, -0.024000)" fill="#B8B2A3"/>
<path d="M50 0V720H249L569 84L520 72V720H670V0H471L151 636L200 648V0Z" transform="translate(1179.808, 850.883) scale(0.024000, -0.024000)" fill="#B8B2A3"/>
<path d="M399 -10Q319 -10 251.5 17.0Q184 44 134.5 93.5Q85 143 57.5 211.5Q30 280 30 363Q30 473 77.0 555.5Q124 638 207.5 684.0Q291 730 398 730Q507 730 590.0 684.0Q673 638 720.5 555.0Q768 472 768 362Q768 280 740.5 211.5Q713 143 663.5 93.5Q614 44 546.5 17.0Q479 -10 399 -10ZM398 112Q461 112 509.0 144.0Q557 176 584.5 232.5Q612 289 612 364Q612 438 585.0 493.0Q558 548 510.0 578.0Q462 608 398 608Q335 608 287.0 578.0Q239 548 212.5 493.5Q186 439 186 364Q186 288 213.0 231.5Q240 175 288.0 143.5Q336 112 398 112Z" transform="translate(1206.688, 850.883) scale(0.024000, -0.024000)" fill="#B8B2A3"/>
<path d="M176 0V110H362Q412 110 437.5 137.5Q463 165 463 214Q463 264 435.5 293.0Q408 322 357 322H176V432H349Q396 432 420.5 454.5Q445 477 445 521Q445 565 421.5 587.5Q398 610 352 610H176V720H385Q481 720 540.0 671.0Q599 622 599 538Q599 485 574.0 447.0Q549 409 507.0 389.0Q465 369 413 369L418 390Q474 390 519.5 366.0Q565 342 592.0 298.5Q619 255 619 196Q619 137 591.5 92.5Q564 48 514.5 24.0Q465 0 398 0ZM50 0V720H204V0Z" transform="translate(1249.600, 850.883) scale(0.024000, -0.024000)" fill="#B8B2A3"/>
<path d="M349 -10Q195 -10 118.5 74.5Q42 159 42 321V720H196V294Q196 200 237.0 156.0Q278 112 350 112Q422 112 463.0 156.0Q504 200 504 293V720H658V319Q658 159 581.0 74.5Q504 -10 349 -10Z" transform="translate(1274.776, 850.883) scale(0.024000, -0.024000)" fill="#B8B2A3"/>
<path d="M50 0V720H204V0ZM122 0V118H550V0Z" transform="translate(1301.176, 850.883) scale(0.024000, -0.024000)" fill="#B8B2A3"/>
<path d="M50 0V720H204V0ZM122 0V118H550V0Z" transform="translate(1324.936, 850.883) scale(0.024000, -0.024000)" fill="#B8B2A3"/>
<path d="M346 -9Q206 -9 122.0 53.5Q38 116 24 230H172Q179 172 228.0 138.5Q277 105 353 105Q415 105 448.5 127.0Q482 149 482 186Q482 221 462.0 242.5Q442 264 393 277L259 314Q156 343 108.5 393.5Q61 444 61 520Q61 585 94.5 632.5Q128 680 189.0 705.5Q250 731 332 731Q458 731 533.0 671.5Q608 612 618 514H470Q460 567 421.5 592.0Q383 617 323 617Q271 617 240.0 597.0Q209 577 209 543Q209 517 226.0 495.5Q243 474 297 459L431 422Q537 393 583.5 342.5Q630 292 630 215Q630 107 555.0 49.0Q480 -9 346 -9Z" transform="translate(1348.696, 850.883) scale(0.024000, -0.024000)" fill="#B8B2A3"/>
<path d="M50 0V720H204V0ZM516 0V720H670V0ZM122 434H586V316H122Z" transform="translate(1373.944, 850.883) scale(0.024000, -0.024000)" fill="#B8B2A3"/>
<path d="M50 0V720H204V0Z" transform="translate(1400.824, 850.883) scale(0.024000, -0.024000)" fill="#B8B2A3"/>
<path d="M259 0V602H24V720H648V602H413V0Z" transform="translate(1416.520, 850.883) scale(0.024000, -0.024000)" fill="#B8B2A3"/>
</svg>
