<?xml version="1.0" encoding="UTF-8"?>
<svg xmlns="http://www.w3.org/2000/svg" viewBox="0 0 2000 1100" width="2000" height="1100">
<rect width="2000" height="1100" fill="#161614"/>
<path d="M663 -14 139 654Q132 663 123.5 672.0Q115 681 108 687V115Q108 72 134.0 41.0Q160 10 203 10V0H-5V10Q39 10 65.0 41.0Q91 72 91 116V701Q46 735 -4 740V750H253L646 243V635Q646 678 620.0 709.0Q594 740 551 740V750H758V740Q715 740 689.0 709.0Q663 678 663 635Z" transform="translate(558.060, 493.000) scale(0.380000, -0.380000)" fill="#F5F1E8"/>
<path d="M-24 0V10Q-5 12 14.5 28.5Q34 45 51.0 70.0Q68 95 77 119L341 765H350L610 119Q654 10 708 10H711V0H391V10H395Q440 10 455.5 37.5Q471 65 451 114L391 263H150L94 124Q76 81 98.5 46.5Q121 12 171 10V0ZM155 276H386L272 564Z" transform="translate(873.080, 493.000) scale(0.380000, -0.380000)" fill="#F5F1E8"/>
<path d="M0 0V10H4Q40 10 62.0 32.0Q84 54 84 90V660Q84 696 62.0 718.0Q40 740 4 740H0V750H307V740H303Q267 740 245.0 718.0Q223 696 223 660V412L479 644Q520 681 520.0 710.5Q520 740 474 740H473V750H685V740Q665 739 637.5 731.0Q610 723 583.0 710.5Q556 698 537 681L325 486L680 60Q698 38 719.0 24.0Q740 10 760 10V0H464V10Q506 10 516.5 26.5Q527 43 505 69L223 407V90Q223 54 245.0 32.0Q267 10 303 10H307V0Z" transform="translate(1163.400, 493.000) scale(0.380000, -0.380000)" fill="#F5F1E8"/>
<rect x="765.388" y="537.875" width="469.22399999999993" height="10" fill="#E55642"/>
<path d="M235 -14Q209 -14 192.5 -12.0Q176 -10 160.0 -7.0Q144 -4 121.0 -2.0Q98 0 58 0L23 260H35Q50 137 103.5 70.5Q157 4 241 4Q303 4 342.0 39.0Q381 74 381 130Q381 154 372.5 176.0Q364 198 344 223Q324 248 291.0 277.5Q258 307 209 344L168 375Q93 432 64.0 477.0Q35 522 35 575Q35 663 99.5 713.5Q164 764 270 764Q296 764 312.5 762.0Q329 760 344.5 757.0Q360 754 381.0 752.0Q402 750 435 750L445 548H435Q421 641 375.0 695.0Q329 749 264 749Q218 749 190.5 722.0Q163 695 163 650Q163 611 188.5 575.5Q214 540 277 493L320 461Q386 413 424.5 372.5Q463 332 480.0 294.0Q497 256 497 213Q497 147 464.0 96.0Q431 45 372.5 16.5Q314 -12 235 -14Z" transform="translate(478.640, 877.750) scale(0.380000, -0.380000)" fill="#F5F1E8"/>
<path d="M0 0V10H4Q40 10 62.0 32.0Q84 54 84 90V660Q84 696 62.0 718.0Q40 740 4 740H0V750H320V740H318Q282 740 260.0 718.0Q238 696 238 660V428H568V660Q568 696 546.0 718.0Q524 740 488 740H485V750H805V740H802Q766 740 744.0 718.0Q722 696 722 660V90Q722 54 744.0 32.0Q766 10 802 10H805V0H485V10H488Q524 10 546.0 32.0Q568 54 568 90V414H238V90Q238 54 260.0 32.0Q282 10 318 10H320V0Z" transform="translate(702.840, 877.750) scale(0.380000, -0.380000)" fill="#F5F1E8"/>
<path d="M0 0V10H1Q37 10 59.0 32.0Q81 54 81 90V660Q81 696 59.0 718.0Q37 740 1 740H0V750H317V740H316Q280 740 258.0 718.0Q236 696 236 660V90Q236 54 258.0 32.0Q280 10 316 10H317V0Z" transform="translate(1039.140, 877.750) scale(0.380000, -0.380000)" fill="#F5F1E8"/>
<path d="M730 -159Q627 -159 517.5 -116.5Q408 -74 316 6Q187 41 112.0 138.0Q37 235 37 378Q37 495 87.0 581.5Q137 668 227.0 716.0Q317 764 436 764Q556 764 645.5 716.0Q735 668 785.0 581.5Q835 495 835 378Q835 278 798.0 200.0Q761 122 694.5 71.5Q628 21 537 2Q604 -50 676.5 -77.0Q749 -104 817 -104Q889 -104 944 -74L943 -85Q905 -123 850.0 -141.0Q795 -159 730 -159ZM436 8Q488 8 530.5 34.5Q573 61 604 110Q634 158 650.5 226.5Q667 295 667 378Q667 462 650.5 531.0Q634 600 604 649Q573 697 530.5 724.0Q488 751 436 751Q384 751 341.5 724.0Q299 697 269 649Q239 600 222.5 531.0Q206 462 206 378Q206 267 234.5 183.5Q263 100 315.0 54.0Q367 8 436 8Z" transform="translate(1190.000, 877.750) scale(0.380000, -0.380000)" fill="#F5F1E8"/>
</svg>
