<?xml version="1.0" encoding="UTF-8"?>
<svg xmlns="http://www.w3.org/2000/svg" viewBox="0 0 2000 1100" width="2000" height="1100">
<rect width="2000" height="1100" fill="#161614"/>
<circle cx="100" cy="100" r="1.5" fill="#6B6862"/>
<circle cx="100" cy="160" r="1.5" fill="#6B6862"/>
<circle cx="100" cy="220" r="1.5" fill="#6B6862"/>
<circle cx="100" cy="280" r="1.5" fill="#6B6862"/>
<circle cx="100" cy="340" r="1.5" fill="#6B6862"/>
<circle cx="100" cy="400" r="1.5" fill="#6B6862"/>
<circle cx="100" cy="460" r="1.5" fill="#6B6862"/>
<circle cx="100" cy="520" r="1.5" fill="#6B6862"/>
<circle cx="100" cy="580" r="1.5" fill="#6B6862"/>
<circle cx="100" cy="640" r="1.5" fill="#6B6862"/>
<circle cx="100" cy="700" r="1.5" fill="#6B6862"/>
<circle cx="100" cy="760" r="1.5" fill="#6B6862"/>
<circle cx="100" cy="820" r="1.5" fill="#6B6862"/>
<circle cx="100" cy="880" r="1.5" fill="#6B6862"/>
<circle cx="100" cy="940" r="1.5" fill="#6B6862"/>
<circle cx="100" cy="1000" r="1.5" fill="#6B6862"/>
<circle cx="160" cy="100" r="1.5" fill="#6B6862"/>
<circle cx="160" cy="160" r="1.5" fill="#6B6862"/>
<circle cx="160" cy="220" r="1.5" fill="#6B6862"/>
<circle cx="160" cy="280" r="1.5" fill="#6B6862"/>
<circle cx="160" cy="340" r="1.5" fill="#6B6862"/>
<circle cx="160" cy="400" r="1.5" fill="#6B6862"/>
<circle cx="160" cy="460" r="1.5" fill="#6B6862"/>
<circle cx="160" cy="520" r="1.5" fill="#6B6862"/>
<circle cx="160" cy="580" r="1.5" fill="#6B6862"/>
<circle cx="160" cy="640" r="1.5" fill="#6B6862"/>
<circle cx="160" cy="700" r="1.5" fill="#6B6862"/>
<circle cx="160" cy="760" r="1.5" fill="#6B6862"/>
<circle cx="160" cy="820" r="1.5" fill="#6B6862"/>
<circle cx="160" cy="880" r="1.5" fill="#6B6862"/>
<circle cx="160" cy="940" r="1.5" fill="#6B6862"/>
<circle cx="160" cy="1000" r="1.5" fill="#6B6862"/>
<circle cx="220" cy="100" r="1.5" fill="#6B6862"/>
<circle cx="220" cy="160" r="1.5" fill="#6B6862"/>
<circle cx="220" cy="220" r="1.5" fill="#6B6862"/>
<circle cx="220" cy="280" r="1.5" fill="#6B6862"/>
<circle cx="220" cy="340" r="1.5" fill="#6B6862"/>
<circle cx="220" cy="400" r="1.5" fill="#6B6862"/>
<circle cx="220" cy="460" r="1.5" fill="#6B6862"/>
<circle cx="220" cy="520" r="1.5" fill="#6B6862"/>
<circle cx="220" cy="580" r="1.5" fill="#6B6862"/>
<circle cx="220" cy="640" r="1.5" fill="#6B6862"/>
<circle cx="220" cy="700" r="1.5" fill="#6B6862"/>
<circle cx="220" cy="760" r="1.5" fill="#6B6862"/>
<circle cx="220" cy="820" r="1.5" fill="#6B6862"/>
<circle cx="220" cy="880" r="1.5" fill="#6B6862"/>
<circle cx="220" cy="940" r="1.5" fill="#6B6862"/>
<circle cx="220" cy="1000" r="1.5" fill="#6B6862"/>
<circle cx="280" cy="100" r="1.5" fill="#6B6862"/>
<circle cx="280" cy="160" r="1.5" fill="#6B6862"/>
<circle cx="280" cy="220" r="1.5" fill="#6B6862"/>
<circle cx="280" cy="280" r="1.5" fill="#6B6862"/>
<circle cx="280" cy="340" r="1.5" fill="#6B6862"/>
<circle cx="280" cy="400" r="1.5" fill="#6B6862"/>
<circle cx="280" cy="460" r="1.5" fill="#6B6862"/>
<circle cx="280" cy="520" r="1.5" fill="#6B6862"/>
<circle cx="280" cy="580" r="1.5" fill="#6B6862"/>
<circle cx="280" cy="640" r="1.5" fill="#6B6862"/>
<circle cx="280" cy="700" r="1.5" fill="#6B6862"/>
<circle cx="280" cy="760" r="1.5" fill="#6B6862"/>
<circle cx="280" cy="820" r="1.5" fill="#6B6862"/>
<circle cx="280" cy="880" r="1.5" fill="#6B6862"/>
<circle cx="280" cy="940" r="1.5" fill="#6B6862"/>
<circle cx="280" cy="1000" r="1.5" fill="#6B6862"/>
<circle cx="340" cy="100" r="1.5" fill="#6B6862"/>
<circle cx="340" cy="160" r="1.5" fill="#6B6862"/>
<circle cx="340" cy="220" r="1.5" fill="#6B6862"/>
<circle cx="340" cy="280" r="1.5" fill="#6B6862"/>
<circle cx="340" cy="340" r="1.5" fill="#6B6862"/>
<circle cx="340" cy="400" r="1.5" fill="#6B6862"/>
<circle cx="340" cy="460" r="1.5" fill="#6B6862"/>
<circle cx="340" cy="520" r="1.5" fill="#6B6862"/>
<circle cx="340" cy="580" r="1.5" fill="#6B6862"/>
<circle cx="340" cy="640" r="1.5" fill="#6B6862"/>
<circle cx="340" cy="700" r="1.5" fill="#6B6862"/>
<circle cx="340" cy="760" r="1.5" fill="#6B6862"/>
<circle cx="340" cy="820" r="1.5" fill="#6B6862"/>
<circle cx="340" cy="880" r="1.5" fill="#6B6862"/>
<circle cx="340" cy="940" r="1.5" fill="#6B6862"/>
<circle cx="340" cy="1000" r="1.5" fill="#6B6862"/>
<circle cx="400" cy="100" r="1.5" fill="#6B6862"/>
<circle cx="400" cy="160" r="1.5" fill="#6B6862"/>
<circle cx="400" cy="220" r="1.5" fill="#6B6862"/>
<circle cx="400" cy="280" r="1.5" fill="#6B6862"/>
<circle cx="400" cy="340" r="1.5" fill="#6B6862"/>
<circle cx="400" cy="400" r="1.5" fill="#6B6862"/>
<circle cx="400" cy="700" r="1.5" fill="#6B6862"/>
<circle cx="400" cy="760" r="1.5" fill="#6B6862"/>
<circle cx="400" cy="820" r="1.5" fill="#6B6862"/>
<circle cx="400" cy="880" r="1.5" fill="#6B6862"/>
<circle cx="400" cy="940" r="1.5" fill="#6B6862"/>
<circle cx="400" cy="1000" r="1.5" fill="#6B6862"/>
<circle cx="460" cy="100" r="1.5" fill="#6B6862"/>
<circle cx="460" cy="160" r="1.5" fill="#6B6862"/>
<circle cx="460" cy="220" r="1.5" fill="#6B6862"/>
<circle cx="460" cy="280" r="1.5" fill="#6B6862"/>
<circle cx="460" cy="340" r="1.5" fill="#6B6862"/>
<circle cx="460" cy="400" r="1.5" fill="#6B6862"/>
<circle cx="460" cy="700" r="1.5" fill="#6B6862"/>
<circle cx="460" cy="760" r="1.5" fill="#6B6862"/>
<circle cx="460" cy="820" r="1.5" fill="#6B6862"/>
<circle cx="460" cy="880" r="1.5" fill="#6B6862"/>
<circle cx="460" cy="940" r="1.5" fill="#6B6862"/>
<circle cx="460" cy="1000" r="1.5" fill="#6B6862"/>
<circle cx="520" cy="100" r="1.5" fill="#6B6862"/>
<circle cx="520" cy="160" r="1.5" fill="#6B6862"/>
<circle cx="520" cy="220" r="1.5" fill="#6B6862"/>
<circle cx="520" cy="280" r="1.5" fill="#6B6862"/>
<circle cx="520" cy="340" r="1.5" fill="#6B6862"/>
<circle cx="520" cy="760" r="1.5" fill="#6B6862"/>
<circle cx="520" cy="820" r="1.5" fill="#6B6862"/>
<circle cx="520" cy="880" r="1.5" fill="#6B6862"/>
<circle cx="520" cy="940" r="1.5" fill="#6B6862"/>
<circle cx="520" cy="1000" r="1.5" fill="#6B6862"/>
<circle cx="580" cy="100" r="1.5" fill="#6B6862"/>
<circle cx="580" cy="160" r="1.5" fill="#6B6862"/>
<circle cx="580" cy="220" r="1.5" fill="#6B6862"/>
<circle cx="580" cy="280" r="1.5" fill="#6B6862"/>
<circle cx="580" cy="340" r="1.5" fill="#6B6862"/>
<circle cx="580" cy="760" r="1.5" fill="#6B6862"/>
<circle cx="580" cy="820" r="1.5" fill="#6B6862"/>
<circle cx="580" cy="880" r="1.5" fill="#6B6862"/>
<circle cx="580" cy="940" r="1.5" fill="#6B6862"/>
<circle cx="580" cy="1000" r="1.5" fill="#6B6862"/>
<circle cx="640" cy="100" r="1.5" fill="#6B6862"/>
<circle cx="640" cy="160" r="1.5" fill="#6B6862"/>
<circle cx="640" cy="220" r="1.5" fill="#6B6862"/>
<circle cx="640" cy="280" r="1.5" fill="#6B6862"/>
<circle cx="640" cy="820" r="1.5" fill="#6B6862"/>
<circle cx="640" cy="880" r="1.5" fill="#6B6862"/>
<circle cx="640" cy="940" r="1.5" fill="#6B6862"/>
<circle cx="640" cy="1000" r="1.5" fill="#6B6862"/>
<circle cx="700" cy="100" r="1.5" fill="#6B6862"/>
<circle cx="700" cy="160" r="1.5" fill="#6B6862"/>
<circle cx="700" cy="220" r="1.5" fill="#6B6862"/>
<circle cx="700" cy="280" r="1.5" fill="#6B6862"/>
<circle cx="700" cy="820" r="1.5" fill="#6B6862"/>
<circle cx="700" cy="880" r="1.5" fill="#6B6862"/>
<circle cx="700" cy="940" r="1.5" fill="#6B6862"/>
<circle cx="700" cy="1000" r="1.5" fill="#6B6862"/>
<circle cx="760" cy="100" r="1.5" fill="#6B6862"/>
<circle cx="760" cy="160" r="1.5" fill="#6B6862"/>
<circle cx="760" cy="220" r="1.5" fill="#6B6862"/>
<circle cx="760" cy="280" r="1.5" fill="#6B6862"/>
<circle cx="760" cy="820" r="1.5" fill="#6B6862"/>
<circle cx="760" cy="880" r="1.5" fill="#6B6862"/>
<circle cx="760" cy="940" r="1.5" fill="#6B6862"/>
<circle cx="760" cy="1000" r="1.5" fill="#6B6862"/>
<circle cx="820" cy="100" r="1.5" fill="#6B6862"/>
<circle cx="820" cy="160" r="1.5" fill="#6B6862"/>
<circle cx="820" cy="220" r="1.5" fill="#6B6862"/>
<circle cx="820" cy="280" r="1.5" fill="#6B6862"/>
<circle cx="820" cy="820" r="1.5" fill="#6B6862"/>
<circle cx="820" cy="880" r="1.5" fill="#6B6862"/>
<circle cx="820" cy="940" r="1.5" fill="#6B6862"/>
<circle cx="820" cy="1000" r="1.5" fill="#6B6862"/>
<circle cx="880" cy="100" r="1.5" fill="#6B6862"/>
<circle cx="880" cy="160" r="1.5" fill="#6B6862"/>
<circle cx="880" cy="220" r="1.5" fill="#6B6862"/>
<circle cx="880" cy="280" r="1.5" fill="#6B6862"/>
<circle cx="880" cy="820" r="1.5" fill="#6B6862"/>
<circle cx="880" cy="880" r="1.5" fill="#6B6862"/>
<circle cx="880" cy="940" r="1.5" fill="#6B6862"/>
<circle cx="880" cy="1000" r="1.5" fill="#6B6862"/>
<circle cx="940" cy="100" r="1.5" fill="#6B6862"/>
<circle cx="940" cy="160" r="1.5" fill="#6B6862"/>
<circle cx="940" cy="220" r="1.5" fill="#6B6862"/>
<circle cx="940" cy="280" r="1.5" fill="#6B6862"/>
<circle cx="940" cy="820" r="1.5" fill="#6B6862"/>
<circle cx="940" cy="880" r="1.5" fill="#6B6862"/>
<circle cx="940" cy="940" r="1.5" fill="#6B6862"/>
<circle cx="940" cy="1000" r="1.5" fill="#6B6862"/>
<circle cx="1000" cy="100" r="1.5" fill="#6B6862"/>
<circle cx="1000" cy="160" r="1.5" fill="#6B6862"/>
<circle cx="1000" cy="220" r="1.5" fill="#6B6862"/>
<circle cx="1000" cy="280" r="1.5" fill="#6B6862"/>
<circle cx="1000" cy="820" r="1.5" fill="#6B6862"/>
<circle cx="1000" cy="880" r="1.5" fill="#6B6862"/>
<circle cx="1000" cy="940" r="1.5" fill="#6B6862"/>
<circle cx="1000" cy="1000" r="1.5" fill="#6B6862"/>
<circle cx="1060" cy="100" r="1.5" fill="#6B6862"/>
<circle cx="1060" cy="160" r="1.5" fill="#6B6862"/>
<circle cx="1060" cy="220" r="1.5" fill="#6B6862"/>
<circle cx="1060" cy="280" r="1.5" fill="#6B6862"/>
<circle cx="1060" cy="820" r="1.5" fill="#6B6862"/>
<circle cx="1060" cy="880" r="1.5" fill="#6B6862"/>
<circle cx="1060" cy="940" r="1.5" fill="#6B6862"/>
<circle cx="1060" cy="1000" r="1.5" fill="#6B6862"/>
<circle cx="1120" cy="100" r="1.5" fill="#6B6862"/>
<circle cx="1120" cy="160" r="1.5" fill="#6B6862"/>
<circle cx="1120" cy="220" r="1.5" fill="#6B6862"/>
<circle cx="1120" cy="280" r="1.5" fill="#6B6862"/>
<circle cx="1120" cy="820" r="1.5" fill="#6B6862"/>
<circle cx="1120" cy="880" r="1.5" fill="#6B6862"/>
<circle cx="1120" cy="940" r="1.5" fill="#6B6862"/>
<circle cx="1120" cy="1000" r="1.5" fill="#6B6862"/>
<circle cx="1180" cy="100" r="1.5" fill="#6B6862"/>
<circle cx="1180" cy="160" r="1.5" fill="#6B6862"/>
<circle cx="1180" cy="220" r="1.5" fill="#6B6862"/>
<circle cx="1180" cy="280" r="1.5" fill="#6B6862"/>
<circle cx="1180" cy="820" r="1.5" fill="#6B6862"/>
<circle cx="1180" cy="880" r="1.5" fill="#6B6862"/>
<circle cx="1180" cy="940" r="1.5" fill="#6B6862"/>
<circle cx="1180" cy="1000" r="1.5" fill="#6B6862"/>
<circle cx="1240" cy="100" r="1.5" fill="#6B6862"/>
<circle cx="1240" cy="160" r="1.5" fill="#6B6862"/>
<circle cx="1240" cy="220" r="1.5" fill="#6B6862"/>
<circle cx="1240" cy="280" r="1.5" fill="#6B6862"/>
<circle cx="1240" cy="820" r="1.5" fill="#6B6862"/>
<circle cx="1240" cy="880" r="1.5" fill="#6B6862"/>
<circle cx="1240" cy="940" r="1.5" fill="#6B6862"/>
<circle cx="1240" cy="1000" r="1.5" fill="#6B6862"/>
<circle cx="1300" cy="100" r="1.5" fill="#6B6862"/>
<circle cx="1300" cy="160" r="1.5" fill="#6B6862"/>
<circle cx="1300" cy="220" r="1.5" fill="#6B6862"/>
<circle cx="1300" cy="280" r="1.5" fill="#6B6862"/>
<circle cx="1300" cy="820" r="1.5" fill="#6B6862"/>
<circle cx="1300" cy="880" r="1.5" fill="#6B6862"/>
<circle cx="1300" cy="940" r="1.5" fill="#6B6862"/>
<circle cx="1300" cy="1000" r="1.5" fill="#6B6862"/>
<circle cx="1360" cy="100" r="1.5" fill="#6B6862"/>
<circle cx="1360" cy="160" r="1.5" fill="#6B6862"/>
<circle cx="1360" cy="220" r="1.5" fill="#6B6862"/>
<circle cx="1360" cy="280" r="1.5" fill="#6B6862"/>
<circle cx="1360" cy="820" r="1.5" fill="#6B6862"/>
<circle cx="1360" cy="880" r="1.5" fill="#6B6862"/>
<circle cx="1360" cy="940" r="1.5" fill="#6B6862"/>
<circle cx="1360" cy="1000" r="1.5" fill="#6B6862"/>
<circle cx="1420" cy="100" r="1.5" fill="#6B6862"/>
<circle cx="1420" cy="160" r="1.5" fill="#6B6862"/>
<circle cx="1420" cy="220" r="1.5" fill="#6B6862"/>
<circle cx="1420" cy="280" r="1.5" fill="#6B6862"/>
<circle cx="1420" cy="340" r="1.5" fill="#6B6862"/>
<circle cx="1420" cy="760" r="1.5" fill="#6B6862"/>
<circle cx="1420" cy="820" r="1.5" fill="#6B6862"/>
<circle cx="1420" cy="880" r="1.5" fill="#6B6862"/>
<circle cx="1420" cy="940" r="1.5" fill="#6B6862"/>
<circle cx="1420" cy="1000" r="1.5" fill="#6B6862"/>
<circle cx="1480" cy="100" r="1.5" fill="#6B6862"/>
<circle cx="1480" cy="160" r="1.5" fill="#6B6862"/>
<circle cx="1480" cy="220" r="1.5" fill="#6B6862"/>
<circle cx="1480" cy="280" r="1.5" fill="#6B6862"/>
<circle cx="1480" cy="340" r="1.5" fill="#6B6862"/>
<circle cx="1480" cy="760" r="1.5" fill="#6B6862"/>
<circle cx="1480" cy="820" r="1.5" fill="#6B6862"/>
<circle cx="1480" cy="880" r="1.5" fill="#6B6862"/>
<circle cx="1480" cy="940" r="1.5" fill="#6B6862"/>
<circle cx="1480" cy="1000" r="1.5" fill="#6B6862"/>
<circle cx="1540" cy="100" r="1.5" fill="#6B6862"/>
<circle cx="1540" cy="160" r="1.5" fill="#6B6862"/>
<circle cx="1540" cy="220" r="1.5" fill="#6B6862"/>
<circle cx="1540" cy="280" r="1.5" fill="#6B6862"/>
<circle cx="1540" cy="340" r="1.5" fill="#6B6862"/>
<circle cx="1540" cy="400" r="1.5" fill="#6B6862"/>
<circle cx="1540" cy="700" r="1.5" fill="#6B6862"/>
<circle cx="1540" cy="760" r="1.5" fill="#6B6862"/>
<circle cx="1540" cy="820" r="1.5" fill="#6B6862"/>
<circle cx="1540" cy="880" r="1.5" fill="#6B6862"/>
<circle cx="1540" cy="940" r="1.5" fill="#6B6862"/>
<circle cx="1540" cy="1000" r="1.5" fill="#6B6862"/>
<circle cx="1600" cy="100" r="1.5" fill="#6B6862"/>
<circle cx="1600" cy="160" r="1.5" fill="#6B6862"/>
<circle cx="1600" cy="220" r="1.5" fill="#6B6862"/>
<circle cx="1600" cy="280" r="1.5" fill="#6B6862"/>
<circle cx="1600" cy="340" r="1.5" fill="#6B6862"/>
<circle cx="1600" cy="400" r="1.5" fill="#6B6862"/>
<circle cx="1600" cy="700" r="1.5" fill="#6B6862"/>
<circle cx="1600" cy="760" r="1.5" fill="#6B6862"/>
<circle cx="1600" cy="820" r="1.5" fill="#6B6862"/>
<circle cx="1600" cy="880" r="1.5" fill="#6B6862"/>
<circle cx="1600" cy="940" r="1.5" fill="#6B6862"/>
<circle cx="1600" cy="1000" r="1.5" fill="#6B6862"/>
<circle cx="1660" cy="100" r="1.5" fill="#6B6862"/>
<circle cx="1660" cy="160" r="1.5" fill="#6B6862"/>
<circle cx="1660" cy="220" r="1.5" fill="#6B6862"/>
<circle cx="1660" cy="280" r="1.5" fill="#6B6862"/>
<circle cx="1660" cy="340" r="1.5" fill="#6B6862"/>
<circle cx="1660" cy="400" r="1.5" fill="#6B6862"/>
<circle cx="1660" cy="460" r="1.5" fill="#6B6862"/>
<circle cx="1660" cy="520" r="1.5" fill="#6B6862"/>
<circle cx="1660" cy="580" r="1.5" fill="#6B6862"/>
<circle cx="1660" cy="640" r="1.5" fill="#6B6862"/>
<circle cx="1660" cy="700" r="1.5" fill="#6B6862"/>
<circle cx="1660" cy="760" r="1.5" fill="#6B6862"/>
<circle cx="1660" cy="820" r="1.5" fill="#6B6862"/>
<circle cx="1660" cy="880" r="1.5" fill="#6B6862"/>
<circle cx="1660" cy="940" r="1.5" fill="#6B6862"/>
<circle cx="1660" cy="1000" r="1.5" fill="#6B6862"/>
<circle cx="1720" cy="100" r="1.5" fill="#6B6862"/>
<circle cx="1720" cy="160" r="1.5" fill="#6B6862"/>
<circle cx="1720" cy="220" r="1.5" fill="#6B6862"/>
<circle cx="1720" cy="280" r="1.5" fill="#6B6862"/>
<circle cx="1720" cy="340" r="1.5" fill="#6B6862"/>
<circle cx="1720" cy="400" r="1.5" fill="#6B6862"/>
<circle cx="1720" cy="460" r="1.5" fill="#6B6862"/>
<circle cx="1720" cy="520" r="1.5" fill="#6B6862"/>
<circle cx="1720" cy="580" r="1.5" fill="#6B6862"/>
<circle cx="1720" cy="640" r="1.5" fill="#6B6862"/>
<circle cx="1720" cy="700" r="1.5" fill="#6B6862"/>
<circle cx="1720" cy="760" r="1.5" fill="#6B6862"/>
<circle cx="1720" cy="820" r="1.5" fill="#6B6862"/>
<circle cx="1720" cy="880" r="1.5" fill="#6B6862"/>
<circle cx="1720" cy="940" r="1.5" fill="#6B6862"/>
<circle cx="1720" cy="1000" r="1.5" fill="#6B6862"/>
<circle cx="1780" cy="100" r="1.5" fill="#6B6862"/>
<circle cx="1780" cy="160" r="1.5" fill="#6B6862"/>
<circle cx="1780" cy="220" r="1.5" fill="#6B6862"/>
<circle cx="1780" cy="280" r="1.5" fill="#6B6862"/>
<circle cx="1780" cy="340" r="1.5" fill="#6B6862"/>
<circle cx="1780" cy="400" r="1.5" fill="#6B6862"/>
<circle cx="1780" cy="460" r="1.5" fill="#6B6862"/>
<circle cx="1780" cy="520" r="1.5" fill="#6B6862"/>
<circle cx="1780" cy="580" r="1.5" fill="#6B6862"/>
<circle cx="1780" cy="640" r="1.5" fill="#6B6862"/>
<circle cx="1780" cy="700" r="1.5" fill="#6B6862"/>
<circle cx="1780" cy="760" r="1.5" fill="#6B6862"/>
<circle cx="1780" cy="820" r="1.5" fill="#6B6862"/>
<circle cx="1780" cy="880" r="1.5" fill="#6B6862"/>
<circle cx="1780" cy="940" r="1.5" fill="#6B6862"/>
<circle cx="1780" cy="1000" r="1.5" fill="#6B6862"/>
<circle cx="1840" cy="100" r="1.5" fill="#6B6862"/>
<circle cx="1840" cy="160" r="1.5" fill="#6B6862"/>
<circle cx="1840" cy="220" r="1.5" fill="#6B6862"/>
<circle cx="1840" cy="280" r="1.5" fill="#6B6862"/>
<circle cx="1840" cy="340" r="1.5" fill="#6B6862"/>
<circle cx="1840" cy="400" r="1.5" fill="#6B6862"/>
<circle cx="1840" cy="460" r="1.5" fill="#6B6862"/>
<circle cx="1840" cy="520" r="1.5" fill="#6B6862"/>
<circle cx="1840" cy="580" r="1.5" fill="#6B6862"/>
<circle cx="1840" cy="640" r="1.5" fill="#6B6862"/>
<circle cx="1840" cy="700" r="1.5" fill="#6B6862"/>
<circle cx="1840" cy="760" r="1.5" fill="#6B6862"/>
<circle cx="1840" cy="820" r="1.5" fill="#6B6862"/>
<circle cx="1840" cy="880" r="1.5" fill="#6B6862"/>
<circle cx="1840" cy="940" r="1.5" fill="#6B6862"/>
<circle cx="1840" cy="1000" r="1.5" fill="#6B6862"/>
<circle cx="1900" cy="100" r="1.5" fill="#6B6862"/>
<circle cx="1900" cy="160" r="1.5" fill="#6B6862"/>
<circle cx="1900" cy="220" r="1.5" fill="#6B6862"/>
<circle cx="1900" cy="280" r="1.5" fill="#6B6862"/>
<circle cx="1900" cy="340" r="1.5" fill="#6B6862"/>
<circle cx="1900" cy="400" r="1.5" fill="#6B6862"/>
<circle cx="1900" cy="460" r="1.5" fill="#6B6862"/>
<circle cx="1900" cy="520" r="1.5" fill="#6B6862"/>
<circle cx="1900" cy="580" r="1.5" fill="#6B6862"/>
<circle cx="1900" cy="640" r="1.5" fill="#6B6862"/>
<circle cx="1900" cy="700" r="1.5" fill="#6B6862"/>
<circle cx="1900" cy="760" r="1.5" fill="#6B6862"/>
<circle cx="1900" cy="820" r="1.5" fill="#6B6862"/>
<circle cx="1900" cy="880" r="1.5" fill="#6B6862"/>
<circle cx="1900" cy="940" r="1.5" fill="#6B6862"/>
<circle cx="1900" cy="1000" r="1.5" fill="#6B6862"/>
<line x1="110" y1="140" x2="170" y2="140" stroke="#B8B2A3" stroke-width="1.5"/><line x1="140" y1="110" x2="140" y2="170" stroke="#B8B2A3" stroke-width="1.5"/><circle cx="140" cy="140" r="6" fill="none" stroke="#B8B2A3" stroke-width="1.5"/>
<line x1="1830" y1="960" x2="1890" y2="960" stroke="#B8B2A3" stroke-width="1.5"/><line x1="1860" y1="930" x2="1860" y2="990" stroke="#B8B2A3" stroke-width="1.5"/><circle cx="1860" cy="960" r="6" fill="none" stroke="#B8B2A3" stroke-width="1.5"/>
<path d="M79 0V121L307 350Q355 399 378.0 438.5Q401 478 401 520Q401 571 373.0 599.5Q345 628 297 628Q244 628 214.0 597.5Q184 567 184 513H59Q60 583 89.5 633.5Q119 684 173.0 712.0Q227 740 299 740Q368 740 419.0 714.0Q470 688 498.0 641.0Q526 594 526 529Q526 462 491.5 398.5Q457 335 381 262L229 113H535V0Z" transform="translate(758.200, 170.000) scale(0.026000, -0.026000)" fill="#B8B2A3"/>
<path d="M300 -10Q228 -10 175.0 14.5Q122 39 93.0 84.0Q64 129 64 189Q64 255 101.0 302.0Q138 349 211 382L323 433Q359 450 379.5 479.0Q400 508 400 544Q400 585 373.0 609.5Q346 634 300 634Q254 634 226.5 609.0Q199 584 199 543Q199 508 220.0 479.0Q241 450 276 434L387 383Q466 348 501.0 300.5Q536 253 536 189Q536 97 472.5 43.5Q409 -10 300 -10ZM300 97Q352 97 382.5 124.5Q413 152 413 197Q413 232 392.0 263.5Q371 295 334 312L215 367Q147 399 111.5 443.5Q76 488 76 550Q76 606 103.0 649.0Q130 692 180.5 716.0Q231 740 300 740Q369 740 418.5 716.0Q468 692 495.5 649.0Q523 606 523 550Q523 487 488.0 443.0Q453 399 385 367L265 311Q229 295 208.0 264.0Q187 233 187 198Q187 153 217.5 125.0Q248 97 300 97Z" transform="translate(777.700, 170.000) scale(0.026000, -0.026000)" fill="#B8B2A3"/>
<path d="M300 450Q233 450 191.5 490.0Q150 530 150 595Q150 660 191.5 700.0Q233 740 300 740Q368 740 409.0 700.0Q450 660 450 595Q450 530 409.0 490.0Q368 450 300 450ZM299 509Q336 509 358.5 533.0Q381 557 381 595Q381 634 358.5 657.5Q336 681 300 681Q263 681 241.0 657.5Q219 634 219 595Q219 557 241.0 533.0Q263 509 299 509Z" transform="translate(797.200, 170.000) scale(0.026000, -0.026000)" fill="#B8B2A3"/>
<path d="M293 -10Q222 -10 169.5 16.0Q117 42 88.0 89.0Q59 136 59 200H185Q185 151 213.5 123.5Q242 96 294 96Q346 96 374.0 124.0Q402 152 402 200V257Q402 306 374.0 333.5Q346 361 294 361H212V474L373 623H92V730H500V617L294 428V468Q402 468 465.0 411.0Q528 354 528 257V200Q528 136 499.0 89.0Q470 42 417.0 16.0Q364 -10 293 -10Z" transform="translate(816.700, 170.000) scale(0.026000, -0.026000)" fill="#B8B2A3"/>
<path d="M300 -10Q227 -10 171.5 20.5Q116 51 85.5 106.5Q55 162 55 235Q55 287 72.5 344.0Q90 401 121 451L293 730H432L216 390L222 386Q242 417 276.0 433.0Q310 449 352 449Q411 449 454.0 421.0Q497 393 521.0 343.0Q545 293 545 226Q545 155 514.5 102.0Q484 49 429.5 19.5Q375 -10 300 -10ZM300 96Q355 96 389.0 131.5Q423 167 423 224Q423 283 389.0 318.5Q355 354 300 354Q245 354 211.0 318.5Q177 283 177 224Q177 167 211.0 131.5Q245 96 300 96Z" transform="translate(836.200, 170.000) scale(0.026000, -0.026000)" fill="#B8B2A3"/>
<path d="M150 465 230 776H390L260 465Z" transform="translate(855.700, 170.000) scale(0.026000, -0.026000)" fill="#B8B2A3"/>
<path d="M299 -10Q198 -10 137.0 40.5Q76 91 70 178H195Q199 140 225.5 119.5Q252 99 299 99Q351 99 378.0 126.5Q405 154 405 203V274Q405 324 378.0 350.5Q351 377 299 377Q267 377 244.0 364.0Q221 351 209 328H87L92 730H503V617H210L208 405H237L207 380Q207 426 243.5 452.5Q280 479 342 479Q431 480 480.5 425.5Q530 371 530 274V203Q530 104 468.5 47.0Q407 -10 299 -10Z" transform="translate(875.200, 170.000) scale(0.026000, -0.026000)" fill="#B8B2A3"/>
<path d="M300 -10Q229 -10 177.0 17.0Q125 44 96.5 93.0Q68 142 68 208V522Q68 588 96.5 637.0Q125 686 177.0 713.0Q229 740 300 740Q372 740 423.5 713.0Q475 686 503.5 637.0Q532 588 532 522V208Q532 142 503.5 93.0Q475 44 423.0 17.0Q371 -10 300 -10ZM300 98Q352 98 383.0 128.0Q414 158 414 208V522Q414 572 383.0 602.0Q352 632 300 632Q248 632 217.0 602.0Q186 572 186 522V208Q186 158 217.0 128.0Q248 98 300 98ZM300 300Q271 300 252.5 319.0Q234 338 234 368Q234 398 252.0 416.0Q270 434 300 434Q330 434 348.0 416.0Q366 398 366 368Q366 338 348.0 319.0Q330 300 300 300Z" transform="translate(894.700, 170.000) scale(0.026000, -0.026000)" fill="#B8B2A3"/>
<path d="M309 465 389 776H548L418 465ZM62 465 142 776H301L171 465Z" transform="translate(914.200, 170.000) scale(0.026000, -0.026000)" fill="#B8B2A3"/>
<path d="M72 0V730H225L428 140Q425 172 421.5 215.5Q418 259 416.0 304.5Q414 350 414 384V730H528V0H375L174 590Q176 561 179.0 520.0Q182 479 184.0 436.0Q186 393 186 357V0Z" transform="translate(933.700, 170.000) scale(0.026000, -0.026000)" fill="#B8B2A3"/>
<path d="M300 255Q257 255 231.5 280.0Q206 305 206 348Q206 391 231.5 416.5Q257 442 300 442Q343 442 368.5 416.5Q394 391 394 348Q394 305 368.5 280.0Q343 255 300 255Z" transform="translate(992.200, 170.000) scale(0.026000, -0.026000)" fill="#B8B2A3"/>
<path d="M155 0 419 614H185V508H60V730H544V612L289 0Z" transform="translate(1050.700, 170.000) scale(0.026000, -0.026000)" fill="#B8B2A3"/>
<path d="M155 0 419 614H185V508H60V730H544V612L289 0Z" transform="translate(1070.200, 170.000) scale(0.026000, -0.026000)" fill="#B8B2A3"/>
<path d="M300 450Q233 450 191.5 490.0Q150 530 150 595Q150 660 191.5 700.0Q233 740 300 740Q368 740 409.0 700.0Q450 660 450 595Q450 530 409.0 490.0Q368 450 300 450ZM299 509Q336 509 358.5 533.0Q381 557 381 595Q381 634 358.5 657.5Q336 681 300 681Q263 681 241.0 657.5Q219 634 219 595Q219 557 241.0 533.0Q263 509 299 509Z" transform="translate(1089.700, 170.000) scale(0.026000, -0.026000)" fill="#B8B2A3"/>
<path d="M84 0V110H274V619L83 477V609L251 730H399V110H552V0Z" transform="translate(1109.200, 170.000) scale(0.026000, -0.026000)" fill="#B8B2A3"/>
<path d="M79 0V121L307 350Q355 399 378.0 438.5Q401 478 401 520Q401 571 373.0 599.5Q345 628 297 628Q244 628 214.0 597.5Q184 567 184 513H59Q60 583 89.5 633.5Q119 684 173.0 712.0Q227 740 299 740Q368 740 419.0 714.0Q470 688 498.0 641.0Q526 594 526 529Q526 462 491.5 398.5Q457 335 381 262L229 113H535V0Z" transform="translate(1128.700, 170.000) scale(0.026000, -0.026000)" fill="#B8B2A3"/>
<path d="M150 465 230 776H390L260 465Z" transform="translate(1148.200, 170.000) scale(0.026000, -0.026000)" fill="#B8B2A3"/>
<path d="M293 -10Q222 -10 169.5 16.0Q117 42 88.0 89.0Q59 136 59 200H185Q185 151 213.5 123.5Q242 96 294 96Q346 96 374.0 124.0Q402 152 402 200V257Q402 306 374.0 333.5Q346 361 294 361H212V474L373 623H92V730H500V617L294 428V468Q402 468 465.0 411.0Q528 354 528 257V200Q528 136 499.0 89.0Q470 42 417.0 16.0Q364 -10 293 -10Z" transform="translate(1167.700, 170.000) scale(0.026000, -0.026000)" fill="#B8B2A3"/>
<path d="M79 0V121L307 350Q355 399 378.0 438.5Q401 478 401 520Q401 571 373.0 599.5Q345 628 297 628Q244 628 214.0 597.5Q184 567 184 513H59Q60 583 89.5 633.5Q119 684 173.0 712.0Q227 740 299 740Q368 740 419.0 714.0Q470 688 498.0 641.0Q526 594 526 529Q526 462 491.5 398.5Q457 335 381 262L229 113H535V0Z" transform="translate(1187.200, 170.000) scale(0.026000, -0.026000)" fill="#B8B2A3"/>
<path d="M309 465 389 776H548L418 465ZM62 465 142 776H301L171 465Z" transform="translate(1206.700, 170.000) scale(0.026000, -0.026000)" fill="#B8B2A3"/>
<path d="M88 0V730H526V621H211V431H491V323H211V109H526V0Z" transform="translate(1226.200, 170.000) scale(0.026000, -0.026000)" fill="#B8B2A3"/>
<path d="M406 -10Q289 -10 205.0 36.0Q121 82 75.5 165.0Q30 248 30 359Q30 469 76.0 552.5Q122 636 203.5 683.0Q285 730 393 730Q482 730 552.5 698.0Q623 666 666.5 610.5Q710 555 718 482H564Q554 541 508.5 574.5Q463 608 395 608Q332 608 285.0 578.5Q238 549 212.0 494.0Q186 439 186 362Q186 282 212.0 225.5Q238 169 288.5 139.5Q339 110 413 110Q473 110 515.0 125.0Q557 140 579 167L725 109Q667 51 590.5 20.5Q514 -10 406 -10ZM571 109V307L602 276H412V394H725V109Z" transform="translate(703.555, 970.000) scale(0.030000, -0.030000)" fill="#B8B2A3"/>
<path d="M399 -10Q319 -10 251.5 17.0Q184 44 134.5 93.5Q85 143 57.5 211.5Q30 280 30 363Q30 473 77.0 555.5Q124 638 207.5 684.0Q291 730 398 730Q507 730 590.0 684.0Q673 638 720.5 555.0Q768 472 768 362Q768 280 740.5 211.5Q713 143 663.5 93.5Q614 44 546.5 17.0Q479 -10 399 -10ZM398 112Q461 112 509.0 144.0Q557 176 584.5 232.5Q612 289 612 364Q612 438 585.0 493.0Q558 548 510.0 578.0Q462 608 398 608Q335 608 287.0 578.0Q239 548 212.5 493.5Q186 439 186 364Q186 288 213.0 231.5Q240 175 288.0 143.5Q336 112 398 112Z" transform="translate(741.445, 970.000) scale(0.030000, -0.030000)" fill="#B8B2A3"/>
<path d="M237 0 34 720H190L358 61H309L459 720H634L782 61H734L903 720H1052L849 0H677L524 646H564L409 0Z" transform="translate(801.085, 970.000) scale(0.030000, -0.030000)" fill="#B8B2A3"/>
<path d="M50 0V720H204V0Z" transform="translate(848.665, 970.000) scale(0.030000, -0.030000)" fill="#B8B2A3"/>
<path d="M259 0V602H24V720H648V602H413V0Z" transform="translate(871.285, 970.000) scale(0.030000, -0.030000)" fill="#B8B2A3"/>
<path d="M50 0V720H204V0ZM516 0V720H670V0ZM122 434H586V316H122Z" transform="translate(906.445, 970.000) scale(0.030000, -0.030000)" fill="#B8B2A3"/>
<path d="M391 -10Q313 -10 247.0 17.5Q181 45 132.5 95.0Q84 145 57.0 213.5Q30 282 30 363Q30 444 56.5 511.0Q83 578 131.5 627.5Q180 677 246.0 703.5Q312 730 391 730Q480 730 551.5 695.5Q623 661 668.5 598.5Q714 536 724 452H574Q561 529 511.0 568.5Q461 608 392 608Q331 608 284.5 579.0Q238 550 212.0 495.5Q186 441 186 364Q186 286 212.5 229.5Q239 173 286.0 142.5Q333 112 394 112Q459 112 509.0 151.0Q559 190 574 267H726Q713 183 667.0 120.5Q621 58 550.0 24.0Q479 -10 391 -10Z" transform="translate(963.745, 970.000) scale(0.030000, -0.030000)" fill="#B8B2A3"/>
<path d="M399 -10Q319 -10 251.5 17.0Q184 44 134.5 93.5Q85 143 57.5 211.5Q30 280 30 363Q30 473 77.0 555.5Q124 638 207.5 684.0Q291 730 398 730Q507 730 590.0 684.0Q673 638 720.5 555.0Q768 472 768 362Q768 280 740.5 211.5Q713 143 663.5 93.5Q614 44 546.5 17.0Q479 -10 399 -10ZM398 112Q461 112 509.0 144.0Q557 176 584.5 232.5Q612 289 612 364Q612 438 585.0 493.0Q558 548 510.0 578.0Q462 608 398 608Q335 608 287.0 578.0Q239 548 212.5 493.5Q186 439 186 364Q186 288 213.0 231.5Q240 175 288.0 143.5Q336 112 398 112Z" transform="translate(1001.245, 970.000) scale(0.030000, -0.030000)" fill="#B8B2A3"/>
<path d="M50 0V720H249L569 84L520 72V720H670V0H471L151 636L200 648V0Z" transform="translate(1040.185, 970.000) scale(0.030000, -0.030000)" fill="#B8B2A3"/>
<path d="M50 0V720H204V0ZM122 279V397H535V279ZM122 602V720H558V602Z" transform="translate(1076.785, 970.000) scale(0.030000, -0.030000)" fill="#B8B2A3"/>
<path d="M50 0V720H204V0Z" transform="translate(1109.485, 970.000) scale(0.030000, -0.030000)" fill="#B8B2A3"/>
<path d="M144 0V120H326Q404 120 458.5 151.5Q513 183 541.5 238.0Q570 293 570 364Q570 434 542.0 487.0Q514 540 459.5 570.0Q405 600 326 600H147V720H326Q447 720 537.0 676.5Q627 633 676.5 552.5Q726 472 726 362Q726 252 676.0 170.5Q626 89 536.5 44.5Q447 0 327 0ZM50 0V720H204V0Z" transform="translate(1132.105, 970.000) scale(0.030000, -0.030000)" fill="#B8B2A3"/>
<path d="M50 0V720H204V0ZM122 0V118H586V0ZM122 310V426H551V310ZM122 602V720H574V602Z" transform="translate(1169.785, 970.000) scale(0.030000, -0.030000)" fill="#B8B2A3"/>
<path d="M50 0V720H249L569 84L520 72V720H670V0H471L151 636L200 648V0Z" transform="translate(1203.565, 970.000) scale(0.030000, -0.030000)" fill="#B8B2A3"/>
<path d="M391 -10Q313 -10 247.0 17.5Q181 45 132.5 95.0Q84 145 57.0 213.5Q30 282 30 363Q30 444 56.5 511.0Q83 578 131.5 627.5Q180 677 246.0 703.5Q312 730 391 730Q480 730 551.5 695.5Q623 661 668.5 598.5Q714 536 724 452H574Q561 529 511.0 568.5Q461 608 392 608Q331 608 284.5 579.0Q238 550 212.0 495.5Q186 441 186 364Q186 286 212.5 229.5Q239 173 286.0 142.5Q333 112 394 112Q459 112 509.0 151.0Q559 190 574 267H726Q713 183 667.0 120.5Q621 58 550.0 24.0Q479 -10 391 -10Z" transform="translate(1240.165, 970.000) scale(0.030000, -0.030000)" fill="#B8B2A3"/>
<path d="M50 0V720H204V0ZM122 0V118H586V0ZM122 310V426H551V310ZM122 602V720H574V602Z" transform="translate(1277.665, 970.000) scale(0.030000, -0.030000)" fill="#B8B2A3"/>
<path d="M489 137 538 368Q550 422 556.5 455.0Q563 488 566.0 507.0Q569 526 570 536L505 550L515 587H702L696 550L632 536Q629 525 624.5 506.0Q620 487 612.5 454.5Q605 422 593 368L542 130Q535 99 528.5 65.0Q522 31 515 -4H473L210 495H229L173 229Q166 197 159.0 161.0Q152 125 146.5 95.0Q141 65 139 51L204 37L194 0H6L12 37L76 51Q80 65 90.5 111.0Q101 157 117 232L152 394Q165 456 170.5 491.5Q176 527 177 536L119 550L130 587H262L501 139Z" transform="translate(366.913, 611.910) scale(0.351562, -0.351562)" fill="#F5F1E8"/>
<path d="M101 -8Q67 -8 48.0 20.5Q29 49 29 94Q29 165 52.5 227.0Q76 289 115.0 336.5Q154 384 200.5 411.0Q247 438 292 438Q319 438 339.0 424.5Q359 411 379 387L359 355Q343 373 320.0 381.0Q297 389 274 389Q242 389 213.0 366.5Q184 344 162.0 305.5Q140 267 127.0 217.0Q114 167 114 112Q114 86 119.5 71.5Q125 57 138 57Q154 57 180.5 82.5Q207 108 238.0 152.5Q269 197 298.0 254.0Q327 311 348 375L358 395L396 430H439Q422 376 406.0 318.5Q390 261 378.0 208.0Q366 155 359.0 113.5Q352 72 352 49Q374 61 394.0 79.5Q414 98 434 123L458 94Q433 63 407.0 40.0Q381 17 357.0 4.5Q333 -8 312 -8Q293 -8 284.0 3.5Q275 15 275 34Q275 52 280.0 82.0Q285 112 297.0 161.5Q309 211 330 285H341Q310 198 268.0 132.0Q226 66 182.0 29.0Q138 -8 101 -8Z" transform="translate(603.866, 611.910) scale(0.351562, -0.351562)" fill="#F5F1E8"/>
<path d="M23 0Q40 68 57.0 137.0Q74 206 89 270L167 613L95 623L100 651L245 694L262 680Q254 651 246.0 620.5Q238 590 230.0 558.0Q222 526 213 490L158 266Q142 199 127.5 133.0Q113 67 98 0ZM292 -8Q270 -8 258.0 6.0Q246 20 234 49L170 208H129L137 233L179 243L332 382L268 393L279 430H483L478 393L409 381L222 231L228 256Q257 192 284.0 135.5Q311 79 328 49Q350 61 370.0 79.5Q390 98 410 123L434 94Q409 63 383.5 40.0Q358 17 334.5 4.5Q311 -8 292 -8Z" transform="translate(773.320, 611.910) scale(0.351562, -0.351562)" fill="#F5F1E8"/>
<path d="M115 -8Q83 -8 56.5 2.0Q30 12 14.0 29.5Q-2 47 -2 67Q-2 81 3.0 92.0Q8 103 17 113Q44 79 76.0 60.0Q108 41 136 41Q164 41 180.0 55.0Q196 69 196 97Q196 114 184.0 133.0Q172 152 139 180Q106 211 88.0 232.0Q70 253 63.0 270.5Q56 288 56 306Q56 343 76.5 373.0Q97 403 132.5 420.5Q168 438 211 438Q236 438 259.5 431.0Q283 424 298.0 411.0Q313 398 313 379Q313 367 308.0 357.5Q303 348 294 338Q269 364 241.0 378.0Q213 392 187 392Q159 392 142.5 376.0Q126 360 126 334Q126 322 131.5 309.5Q137 297 150.0 282.0Q163 267 187 245Q220 215 237.0 194.5Q254 174 260.5 157.5Q267 141 267 123Q267 88 245.5 58.0Q224 28 189.5 10.0Q155 -8 115 -8Z" transform="translate(930.468, 611.910) scale(0.351562, -0.351562)" fill="#F5F1E8"/>
<path d="M172 326Q165 299 159.0 274.5Q153 250 144.5 219.5Q136 189 123 145H115Q134 199 162.0 251.0Q190 303 223.5 345.0Q257 387 294.0 412.5Q331 438 368 438Q398 438 414.5 421.5Q431 405 431 375Q431 359 423.0 326.5Q415 294 403.5 253.0Q392 212 380.0 171.0Q368 130 360.0 97.5Q352 65 352 49Q374 61 394.0 79.5Q414 98 434 123L458 94Q433 63 407.0 40.0Q381 17 357.0 4.5Q333 -8 313 -8Q294 -8 283.5 3.0Q273 14 273 33Q273 47 281.0 79.5Q289 112 301.0 153.0Q313 194 324.5 235.0Q336 276 344.0 308.5Q352 341 352 355Q352 375 332 375Q311 375 284.0 352.0Q257 329 228.5 289.5Q200 250 173.0 201.0Q146 152 125.0 100.0Q104 48 93 0H16Q39 72 56.0 137.0Q73 202 85.5 256.0Q98 310 107 349L168 613L96 623L101 651L247 694L263 680Q255 651 244.0 609.0Q233 567 221.0 519.0Q209 471 197 423Z" transform="translate(1041.562, 611.910) scale(0.351562, -0.351562)" fill="#F5F1E8"/>
<circle cx="1294.4335937500002" cy="650.79015625" r="32.4" fill="#E55642"/>
<path d="M99 -8Q80 -8 69.0 3.5Q58 15 58 36Q58 50 66.0 84.0Q74 118 86.5 161.5Q99 205 111.0 249.0Q123 293 131.0 328.0Q139 363 139 380Q117 369 97.0 350.5Q77 332 57 303L33 335Q58 366 83.5 389.0Q109 412 133.5 425.0Q158 438 178 438Q198 438 208.5 426.5Q219 415 219 392Q219 378 211.0 343.5Q203 309 191.0 265.5Q179 222 166.5 178.0Q154 134 146.0 99.0Q138 64 138 49Q160 61 180.0 79.5Q200 98 220 123L244 94Q219 63 193.0 40.0Q167 17 143.0 4.5Q119 -8 99 -8ZM208 549Q188 549 174.0 562.5Q160 576 160 596Q160 617 169.5 633.0Q179 649 195.0 658.0Q211 667 228 667Q248 667 261.0 654.0Q274 641 274 621Q274 599 265.0 582.5Q256 566 241.0 557.5Q226 549 208 549Z" transform="translate(1373.634, 611.910) scale(0.351562, -0.351562)" fill="#F5F1E8"/>
<path d="M443 430Q435 404 427.5 380.0Q420 356 413.0 330.0Q406 304 399.0 274.5Q392 245 385 208L339 -25Q326 -89 320.5 -124.5Q315 -160 313 -173L372 -188L362 -220H150L155 -188L230 -173Q235 -153 241.0 -123.0Q247 -93 254 -59L279 54Q287 92 299.5 146.5Q312 201 335 285H345Q313 198 270.5 132.0Q228 66 184.0 29.0Q140 -8 104 -8Q68 -8 49.0 20.5Q30 49 29 94Q29 163 52.0 225.0Q75 287 113.5 335.0Q152 383 199.5 410.5Q247 438 295 438Q324 438 344.0 424.5Q364 411 383 387L363 355Q347 373 324.5 381.0Q302 389 277 389Q244 389 215.0 366.5Q186 344 163.0 305.5Q140 267 127.0 217.0Q114 167 114 112Q114 85 120.0 71.0Q126 57 138 57Q155 57 182.5 83.0Q210 109 241.5 154.0Q273 199 302.5 256.0Q332 313 353 375L363 395L401 430Z" transform="translate(1471.016, 611.910) scale(0.351562, -0.351562)" fill="#F5F1E8"/>
</svg>
