<?xml version="1.0" encoding="UTF-8"?>
<svg xmlns="http://www.w3.org/2000/svg" viewBox="0 0 2000 1100" width="2000" height="1100">
<rect width="2000" height="1100" fill="#161614"/>
<path d="M429 -9Q413 -9 402 15L131 603Q128 610 123.5 609.0Q119 608 119 600V86Q119 58 128.5 43.5Q138 29 163 25L176 23Q189 22 189 11Q189 0 174 0H31Q16 0 16 11Q16 22 29 23L42 25Q68 29 78.0 43.5Q88 58 88 86V654Q88 675 81.5 682.0Q75 689 52 693L29 697Q16 700 16 709Q16 720 31 720H138Q163 720 173 698L409 179Q412 173 416.5 174.0Q421 175 421 181V634Q421 666 410.0 678.5Q399 691 382 694L364 697Q351 700 351 709Q351 720 366 720H509Q524 720 524 709Q524 698 511 697L498 695Q472 691 462.0 678.5Q452 666 452 634V23Q452 5 445.5 -2.0Q439 -9 429 -9Z" transform="translate(215.230, 692.800) scale(0.420000, -0.420000)" fill="#F5F1E8"/>
<path d="M120 -9Q78 -9 51.0 17.5Q24 44 24 88Q24 131 51.0 169.5Q78 208 125.0 239.0Q172 270 232 289Q245 293 245 306V397Q245 445 230.0 465.5Q215 486 189 486Q164 486 143.5 463.5Q123 441 114 388Q109 356 92.5 341.5Q76 327 59 327Q31 327 31 355Q31 384 47.5 412.5Q64 441 91.0 464.5Q118 488 150.0 502.0Q182 516 214 516Q313 516 313 401V95Q313 53 334 53Q347 53 358.0 70.5Q369 88 369 130Q369 146 382 146Q394 146 394 129Q394 56 368.5 23.5Q343 -9 311 -9Q287 -9 273.0 10.5Q259 30 254 57Q253 67 245.5 67.5Q238 68 231 58Q207 25 182.0 8.0Q157 -9 120 -9ZM147 37Q173 37 195.0 55.5Q217 74 231.0 105.0Q245 136 245 175V248Q245 267 224 259Q163 237 129.5 198.5Q96 160 96 106Q96 37 147 37Z" transform="translate(442.030, 692.800) scale(0.420000, -0.420000)" fill="#F5F1E8"/>
<path d="M27 0Q15 0 15 11Q15 21 26 23L40 25Q61 28 67.5 37.0Q74 46 74 67V640Q74 658 68.5 664.5Q63 671 49 673L28 676Q17 678 17 688Q17 698 28 700Q56 706 75.0 714.0Q94 722 107 730Q123 740 131 740Q142 740 142 724V305Q142 295 150.5 292.5Q159 290 167 299L284 425Q305 448 301.5 463.5Q298 479 278 483L255 487Q242 490 242 500Q242 510 256 510H428Q442 510 442 499Q442 488 429 487L420 486Q397 484 374.0 468.5Q351 453 319 420L257 354Q236 331 247 309L373 67Q384 47 397.0 38.0Q410 29 429 25L439 23Q451 20 451 11Q451 0 437 0H263Q249 0 249 11Q249 21 262 23L279 25Q317 30 295 74L200 259Q195 269 185.5 270.0Q176 271 168 263L157 252Q148 243 145.0 234.0Q142 225 142 214V67Q142 46 148.5 37.0Q155 28 176 26L203 23Q214 21 214 11Q214 0 202 0Z" transform="translate(609.610, 692.800) scale(0.420000, -0.420000)" fill="#F5F1E8"/>
<path d="M131 -9Q108 -9 82.0 -3.5Q56 2 40 10Q31 15 31 27L28 139Q28 156 41 156Q52 156 56 140Q73 69 97.5 43.0Q122 17 157 17Q186 17 205.0 39.5Q224 62 224 102Q224 142 202.0 173.0Q180 204 128 241Q76 276 52.0 311.5Q28 347 28 389Q28 446 68.0 481.0Q108 516 174 516Q194 516 213.0 511.5Q232 507 247 497Q256 491 256 481L258 371Q258 356 246 356Q239 356 236.0 360.5Q233 365 231 372Q211 437 191.0 462.5Q171 488 142 488Q116 488 99.0 470.0Q82 452 82 425Q82 390 103.0 364.0Q124 338 179 300Q229 264 254.5 222.5Q280 181 280 132Q280 68 239.0 29.5Q198 -9 131 -9Z" transform="translate(799.030, 692.800) scale(0.420000, -0.420000)" fill="#F5F1E8"/>
<path d="M27 0Q15 0 15 11Q15 21 26 23L40 25Q61 28 67.5 37.0Q74 46 74 67V640Q74 658 68.5 664.5Q63 671 49 673L28 676Q17 678 17 688Q17 698 28 700Q56 706 75.0 714.0Q94 722 107 730Q123 740 131 740Q142 740 142 724V459Q142 450 148.0 448.5Q154 447 163 455Q201 490 230.0 503.0Q259 516 291 516Q338 516 365.0 484.5Q392 453 392 392V67Q392 46 398.5 37.5Q405 29 426 26L448 23Q459 21 459 11Q459 0 447 0H279Q265 0 265 11Q265 21 276 23L290 25Q311 28 317.5 37.0Q324 46 324 67V381Q324 430 306.0 450.0Q288 470 255 470Q223 470 197.5 451.5Q172 433 157.0 402.5Q142 372 142 335V67Q142 46 148.5 37.0Q155 28 176 26L203 23Q214 21 214 11Q214 0 202 0Z" transform="translate(928.390, 692.800) scale(0.420000, -0.420000)" fill="#F5F1E8"/>
<circle cx="1230.79" cy="585.6999999999999" r="46.2" fill="#E55642"/>
<path d="M50 0V720H204V0Z" transform="translate(1335.790, 692.800) scale(0.420000, -0.420000)" fill="#F5F1E8"/>
<path d="M399 -10Q292 -10 208.5 37.0Q125 84 77.5 168.0Q30 252 30 363Q30 473 77.0 555.5Q124 638 207.5 684.0Q291 730 398 730Q507 730 590.0 684.0Q673 638 720.5 555.0Q768 472 768 362Q768 292 745.5 230.0Q723 168 673.5 123.0Q624 78 543 56ZM398 106Q461 106 509.0 137.0Q557 168 584.5 226.0Q612 284 612 364Q612 438 585.0 493.0Q558 548 510.0 578.0Q462 608 398 608Q335 608 287.0 578.0Q239 548 212.5 493.5Q186 439 186 364Q186 283 213.0 225.5Q240 168 288.0 137.0Q336 106 398 106ZM399 -10V98L805 118V0Q741 0 690.5 -1.5Q640 -3 595.0 -5.0Q550 -7 503.0 -8.5Q456 -10 399 -10Z" transform="translate(1442.470, 692.800) scale(0.420000, -0.420000)" fill="#F5F1E8"/>
</svg>
