<?xml version="1.0" encoding="UTF-8"?>
<svg xmlns="http://www.w3.org/2000/svg" viewBox="0 0 2000 1100" width="2000" height="1100">
<rect width="2000" height="1100" fill="#161614"/>
<path d="M489 137 538 368Q550 422 556.5 455.0Q563 488 566.0 507.0Q569 526 570 536L505 550L515 587H702L696 550L632 536Q629 525 624.5 506.0Q620 487 612.5 454.5Q605 422 593 368L542 130Q535 99 528.5 65.0Q522 31 515 -4H473L210 495H229L173 229Q166 197 159.0 161.0Q152 125 146.5 95.0Q141 65 139 51L204 37L194 0H6L12 37L76 51Q80 65 90.5 111.0Q101 157 117 232L152 394Q165 456 170.5 491.5Q176 527 177 536L119 550L130 587H262L501 139Z" transform="translate(173.802, 708.400) scale(0.429688, -0.429688)" fill="#F5F1E8"/>
<path d="M101 -8Q67 -8 48.0 20.5Q29 49 29 94Q29 165 52.5 227.0Q76 289 115.0 336.5Q154 384 200.5 411.0Q247 438 292 438Q319 438 339.0 424.5Q359 411 379 387L359 355Q343 373 320.0 381.0Q297 389 274 389Q242 389 213.0 366.5Q184 344 162.0 305.5Q140 267 127.0 217.0Q114 167 114 112Q114 86 119.5 71.5Q125 57 138 57Q154 57 180.5 82.5Q207 108 238.0 152.5Q269 197 298.0 254.0Q327 311 348 375L358 395L396 430H439Q422 376 406.0 318.5Q390 261 378.0 208.0Q366 155 359.0 113.5Q352 72 352 49Q374 61 394.0 79.5Q414 98 434 123L458 94Q433 63 407.0 40.0Q381 17 357.0 4.5Q333 -8 312 -8Q293 -8 284.0 3.5Q275 15 275 34Q275 52 280.0 82.0Q285 112 297.0 161.5Q309 211 330 285H341Q310 198 268.0 132.0Q226 66 182.0 29.0Q138 -8 101 -8Z" transform="translate(463.411, 708.400) scale(0.429688, -0.429688)" fill="#F5F1E8"/>
<path d="M23 0Q40 68 57.0 137.0Q74 206 89 270L167 613L95 623L100 651L245 694L262 680Q254 651 246.0 620.5Q238 590 230.0 558.0Q222 526 213 490L158 266Q142 199 127.5 133.0Q113 67 98 0ZM292 -8Q270 -8 258.0 6.0Q246 20 234 49L170 208H129L137 233L179 243L332 382L268 393L279 430H483L478 393L409 381L222 231L228 256Q257 192 284.0 135.5Q311 79 328 49Q350 61 370.0 79.5Q390 98 410 123L434 94Q409 63 383.5 40.0Q358 17 334.5 4.5Q311 -8 292 -8Z" transform="translate(670.521, 708.400) scale(0.429688, -0.429688)" fill="#F5F1E8"/>
<path d="M115 -8Q83 -8 56.5 2.0Q30 12 14.0 29.5Q-2 47 -2 67Q-2 81 3.0 92.0Q8 103 17 113Q44 79 76.0 60.0Q108 41 136 41Q164 41 180.0 55.0Q196 69 196 97Q196 114 184.0 133.0Q172 152 139 180Q106 211 88.0 232.0Q70 253 63.0 270.5Q56 288 56 306Q56 343 76.5 373.0Q97 403 132.5 420.5Q168 438 211 438Q236 438 259.5 431.0Q283 424 298.0 411.0Q313 398 313 379Q313 367 308.0 357.5Q303 348 294 338Q269 364 241.0 378.0Q213 392 187 392Q159 392 142.5 376.0Q126 360 126 334Q126 322 131.5 309.5Q137 297 150.0 282.0Q163 267 187 245Q220 215 237.0 194.5Q254 174 260.5 157.5Q267 141 267 123Q267 88 245.5 58.0Q224 28 189.5 10.0Q155 -8 115 -8Z" transform="translate(862.591, 708.400) scale(0.429688, -0.429688)" fill="#F5F1E8"/>
<path d="M172 326Q165 299 159.0 274.5Q153 250 144.5 219.5Q136 189 123 145H115Q134 199 162.0 251.0Q190 303 223.5 345.0Q257 387 294.0 412.5Q331 438 368 438Q398 438 414.5 421.5Q431 405 431 375Q431 359 423.0 326.5Q415 294 403.5 253.0Q392 212 380.0 171.0Q368 130 360.0 97.5Q352 65 352 49Q374 61 394.0 79.5Q414 98 434 123L458 94Q433 63 407.0 40.0Q381 17 357.0 4.5Q333 -8 313 -8Q294 -8 283.5 3.0Q273 14 273 33Q273 47 281.0 79.5Q289 112 301.0 153.0Q313 194 324.5 235.0Q336 276 344.0 308.5Q352 341 352 355Q352 375 332 375Q311 375 284.0 352.0Q257 329 228.5 289.5Q200 250 173.0 201.0Q146 152 125.0 100.0Q104 48 93 0H16Q39 72 56.0 137.0Q73 202 85.5 256.0Q98 310 107 349L168 613L96 623L101 651L247 694L263 680Q255 651 244.0 609.0Q233 567 221.0 519.0Q209 471 197 423Z" transform="translate(998.372, 708.400) scale(0.429688, -0.429688)" fill="#F5F1E8"/>
<circle cx="1274.43796875" cy="616.0171875" r="19.8" fill="#E55642"/>
<path d="M50 0V720H204V0Z" transform="translate(1338.238, 708.400) scale(0.440000, -0.440000)" fill="#F5F1E8"/>
<path d="M399 -10Q292 -10 208.5 37.0Q125 84 77.5 168.0Q30 252 30 363Q30 473 77.0 555.5Q124 638 207.5 684.0Q291 730 398 730Q507 730 590.0 684.0Q673 638 720.5 555.0Q768 472 768 362Q768 292 745.5 230.0Q723 168 673.5 123.0Q624 78 543 56ZM398 106Q461 106 509.0 137.0Q557 168 584.5 226.0Q612 284 612 364Q612 438 585.0 493.0Q558 548 510.0 578.0Q462 608 398 608Q335 608 287.0 578.0Q239 548 212.5 493.5Q186 439 186 364Q186 283 213.0 225.5Q240 168 288.0 137.0Q336 106 398 106ZM399 -10V98L805 118V0Q741 0 690.5 -1.5Q640 -3 595.0 -5.0Q550 -7 503.0 -8.5Q456 -10 399 -10Z" transform="translate(1467.598, 708.400) scale(0.440000, -0.440000)" fill="#F5F1E8"/>
</svg>
